<?xml version="1.0" encoding="utf-8"?>
<!-- Generator: Adobe Illustrator 19.1.0, SVG Export Plug-In . SVG Version: 6.00 Build 0)  -->
<svg version="1.1" id="圖層_1" xmlns="http://www.w3.org/2000/svg" xmlns:xlink="http://www.w3.org/1999/xlink" x="0px" y="0px"
	 viewBox="0 0 375 210" style="enable-background:new 0 0 375 210;" xml:space="preserve">
<style type="text/css">
	.st0{fill:#B81C25;}
	.st1{fill:none;stroke:#C9CACA;stroke-miterlimit:10;}
	.st2{fill:#231815;}
	.st3{fill:#595757;}
	.st4{fill:none;stroke:#898989;stroke-miterlimit:10;}
	.st5{fill:none;stroke:#B81C25;stroke-miterlimit:10;}
	.st6{fill:#9FA0A0;stroke:#FFFFFF;stroke-miterlimit:10;}
	.st7{fill:#B5B5B6;stroke:#FFFFFF;stroke-miterlimit:10;}
	.st8{fill:#C9CACA;stroke:#FFFFFF;stroke-miterlimit:10;}
	.st9{fill:#DCDDDD;stroke:#FFFFFF;stroke-miterlimit:10;}
	.st10{fill:#EFEFEF;stroke:#FFFFFF;stroke-miterlimit:10;}
	.st11{fill:#F7F8F8;stroke:#FFFFFF;stroke-miterlimit:10;}
	.st12{fill:#F7F8F8;}
	.st13{fill:#EFEFEF;}
	.st14{fill:#DCDDDD;}
	.st15{fill:#C9CACA;}
	.st16{fill:#B5B5B6;}
	.st17{fill:#9FA0A0;}
	.st18{fill:#898989;}
	.st19{fill:none;stroke:#898989;stroke-width:0.5;stroke-miterlimit:10;}
</style>
<g>
	<g>
		<path class="st2" d="M13.2,200.6c-1.5-1.5-2.3-3.3-2.3-5.5c0-2.2,0.8-4.1,2.3-5.6h1c-1.5,1.6-2.3,3.5-2.3,5.6c0,2.1,0.8,4,2.3,5.5
			H13.2z"/>
		<path class="st2" d="M27.5,198.7l-0.5,0.5c-2.9-1.8-4.8-4.2-5.6-7.2c-0.6,2.8-2.4,5.2-5.6,7.2l-0.5-0.5c1.1-0.6,2-1.4,2.9-2.3
			s1.5-2,2-3.1c0.5-1.1,0.7-2.6,0.7-4.6h0.8c0,2.2,0.5,4.2,1.5,5.9S25.8,197.6,27.5,198.7z"/>
		<path class="st2" d="M33.9,195.4h-4.6v-0.6h4.6V195.4z M33.5,191h-3.9v-0.6h3.9V191z M41.5,198.7l-0.4,0.5
			c-2.4-1.3-3.9-2.8-4.5-4.4c-0.7,1.7-2.1,3.2-4.3,4.3l-0.5-0.5c1-0.5,1.8-1.1,2.5-1.8c0.7-0.7,1.2-1.4,1.4-2
			c0.3-0.6,0.4-1.6,0.4-2.7h0.7c0,0.2,0,0.4,0,0.6c0,0.8,0.2,1.6,0.5,2.1c0.3,0.6,0.8,1.2,1.4,1.8C39.3,197.3,40.3,198,41.5,198.7z
			 M41.1,191.3c0,0.1-0.1,0.3-0.3,0.8c-0.2,0.4-0.4,0.8-0.6,1.1c-0.2,0.3-0.4,0.6-0.6,0.8s-0.4,0.5-0.7,0.8l-0.6-0.4
			c0.8-0.9,1.5-1.9,2-3.1h-5.2c-0.6,1-1.1,1.8-1.7,2.3l-0.5-0.4c1.1-1,1.9-2.5,2.6-4.5l0.7,0.2c-0.2,0.7-0.5,1.3-0.7,1.8h5.7V191.3z
			"/>
		<path class="st2" d="M42.5,200.6c1.5-1.6,2.3-3.4,2.3-5.5c0-2.1-0.8-4-2.3-5.6h1c1.5,1.5,2.3,3.4,2.3,5.6c0,2.2-0.8,4-2.3,5.5
			H42.5z"/>
	</g>
</g>
<g>
	<line class="st1" x1="63.4" y1="182.9" x2="63.4" y2="185.3"/>
	<line class="st1" x1="95.5" y1="182.9" x2="95.5" y2="185.3"/>
	<line class="st1" x1="127.6" y1="182.9" x2="127.6" y2="185.3"/>
	<line class="st1" x1="159.7" y1="182.9" x2="159.7" y2="185.3"/>
	<line class="st1" x1="191.8" y1="182.9" x2="191.8" y2="185.3"/>
	<line class="st1" x1="223.9" y1="182.9" x2="223.9" y2="185.3"/>
	<line class="st1" x1="256.1" y1="182.9" x2="256.1" y2="185.3"/>
	<line class="st1" x1="288.2" y1="182.9" x2="288.2" y2="185.3"/>
	<line class="st1" x1="320.3" y1="182.9" x2="320.3" y2="185.3"/>
	<line class="st1" x1="352.4" y1="182.9" x2="352.4" y2="185.3"/>
</g>
<g>
	<g>
		<path class="st3" d="M88.4,199.6l1.4-0.1c0.1,0.6,0.3,1,0.7,1.3s0.8,0.4,1.3,0.4c0.5,0,0.8-0.1,1.2-0.3c0.3-0.2,0.6-0.4,0.8-0.7
			c0.2-0.3,0.4-0.7,0.5-1.3s0.2-1.1,0.2-1.6c0-0.1,0-0.1,0-0.3c-0.3,0.4-0.7,0.8-1.2,1c-0.5,0.3-1.1,0.4-1.7,0.4c-1,0-1.8-0.3-2.5-1
			c-0.7-0.6-1-1.5-1-2.5c0-1.1,0.4-2,1.1-2.6c0.7-0.7,1.6-1,2.7-1c0.8,0,1.5,0.2,2.1,0.6s1.1,0.9,1.5,1.6c0.3,0.7,0.5,1.7,0.5,3
			c0,1.4-0.2,2.5-0.5,3.3c-0.3,0.8-0.8,1.4-1.5,1.9c-0.7,0.4-1.4,0.6-2.3,0.6c-0.9,0-1.7-0.2-2.3-0.7
			C88.9,201.1,88.5,200.5,88.4,199.6z M94.4,194.9c0-0.8-0.2-1.4-0.7-1.8s-1-0.7-1.6-0.7c-0.7,0-1.2,0.2-1.7,0.7
			c-0.5,0.5-0.7,1.1-0.7,1.9c0,0.7,0.2,1.2,0.7,1.7c0.5,0.4,1,0.6,1.7,0.6c0.7,0,1.2-0.2,1.7-0.6C94.2,196.2,94.4,195.6,94.4,194.9z
			"/>
		<path class="st3" d="M97.6,192.8v-1.3h7.8v1c-0.8,0.7-1.5,1.7-2.3,2.9s-1.3,2.4-1.7,3.7c-0.3,0.9-0.5,1.9-0.6,3h-1.5
			c0-0.8,0.2-1.9,0.6-3.1c0.4-1.2,0.9-2.3,1.5-3.5c0.7-1.1,1.4-2,2.1-2.8H97.6z"/>
	</g>
</g>
<g>
	<g>
		<path class="st3" d="M151.4,199.6l1.4-0.1c0.1,0.6,0.3,1,0.7,1.3s0.8,0.4,1.3,0.4c0.5,0,0.8-0.1,1.2-0.3c0.3-0.2,0.6-0.4,0.8-0.7
			c0.2-0.3,0.4-0.7,0.5-1.3s0.2-1.1,0.2-1.6c0-0.1,0-0.1,0-0.3c-0.3,0.4-0.7,0.8-1.2,1c-0.5,0.3-1.1,0.4-1.7,0.4c-1,0-1.8-0.3-2.5-1
			c-0.7-0.6-1-1.5-1-2.5c0-1.1,0.4-2,1.1-2.6c0.7-0.7,1.6-1,2.7-1c0.8,0,1.5,0.2,2.1,0.6s1.1,0.9,1.5,1.6c0.3,0.7,0.5,1.7,0.5,3
			c0,1.4-0.2,2.5-0.5,3.3c-0.3,0.8-0.8,1.4-1.5,1.9c-0.7,0.4-1.4,0.6-2.3,0.6c-0.9,0-1.7-0.2-2.3-0.7
			C151.9,201.1,151.5,200.5,151.4,199.6z M157.4,194.9c0-0.8-0.2-1.4-0.7-1.8s-1-0.7-1.6-0.7c-0.7,0-1.2,0.2-1.7,0.7
			c-0.5,0.5-0.7,1.1-0.7,1.9c0,0.7,0.2,1.2,0.7,1.7c0.5,0.4,1,0.6,1.7,0.6c0.7,0,1.2-0.2,1.7-0.6
			C157.2,196.2,157.4,195.6,157.4,194.9z"/>
		<path class="st3" d="M160.7,199.6l1.4-0.1c0.1,0.6,0.3,1,0.7,1.3s0.8,0.4,1.3,0.4c0.5,0,0.8-0.1,1.2-0.3c0.3-0.2,0.6-0.4,0.8-0.7
			c0.2-0.3,0.4-0.7,0.5-1.3s0.2-1.1,0.2-1.6c0-0.1,0-0.1,0-0.3c-0.3,0.4-0.7,0.8-1.2,1c-0.5,0.3-1.1,0.4-1.7,0.4c-1,0-1.8-0.3-2.5-1
			c-0.7-0.6-1-1.5-1-2.5c0-1.1,0.4-2,1.1-2.6c0.7-0.7,1.6-1,2.7-1c0.8,0,1.5,0.2,2.1,0.6s1.1,0.9,1.5,1.6c0.3,0.7,0.5,1.7,0.5,3
			c0,1.4-0.2,2.5-0.5,3.3c-0.3,0.8-0.8,1.4-1.5,1.9c-0.7,0.4-1.4,0.6-2.3,0.6c-0.9,0-1.7-0.2-2.3-0.7
			C161.2,201.1,160.8,200.5,160.7,199.6z M166.7,194.9c0-0.8-0.2-1.4-0.7-1.8s-1-0.7-1.6-0.7c-0.7,0-1.2,0.2-1.7,0.7
			c-0.5,0.5-0.7,1.1-0.7,1.9c0,0.7,0.2,1.2,0.7,1.7c0.5,0.4,1,0.6,1.7,0.6c0.7,0,1.2-0.2,1.7-0.6
			C166.5,196.2,166.7,195.6,166.7,194.9z"/>
	</g>
</g>
<g>
	<g>
		<path class="st3" d="M216.5,202.1H215v-8.4c-0.4,0.3-0.8,0.6-1.4,0.9c-0.6,0.3-1.1,0.5-1.5,0.7V194c0.8-0.3,1.5-0.8,2.2-1.3
			c0.6-0.5,1.1-1,1.3-1.4h0.9V202.1z"/>
		<path class="st3" d="M220.2,196.8c0-1.3,0.1-2.3,0.4-3.1c0.3-0.8,0.7-1.4,1.3-1.8s1.3-0.6,2.2-0.6c0.6,0,1.2,0.1,1.7,0.3
			c0.5,0.2,0.9,0.6,1.2,1c0.3,0.4,0.6,1,0.7,1.6c0.2,0.6,0.3,1.5,0.3,2.5c0,1.3-0.1,2.3-0.4,3c-0.3,0.8-0.7,1.4-1.3,1.8
			c-0.6,0.4-1.3,0.6-2.2,0.6c-1.2,0-2.1-0.4-2.7-1.1C220.6,200.3,220.2,198.8,220.2,196.8z M221.7,196.8c0,1.8,0.2,2.9,0.7,3.5
			c0.5,0.6,1,0.9,1.7,0.9c0.7,0,1.2-0.3,1.7-0.9c0.5-0.6,0.7-1.8,0.7-3.5c0-1.8-0.2-2.9-0.7-3.5c-0.5-0.6-1-0.9-1.7-0.9
			c-0.7,0-1.2,0.3-1.6,0.8C222,193.8,221.7,195.1,221.7,196.8z"/>
		<path class="st3" d="M235.1,202.1h-1.5v-8.4c-0.4,0.3-0.8,0.6-1.4,0.9c-0.6,0.3-1.1,0.5-1.5,0.7V194c0.8-0.3,1.5-0.8,2.2-1.3
			c0.6-0.5,1.1-1,1.3-1.4h0.9V202.1z"/>
	</g>
</g>
<g>
	<g>
		<path class="st3" d="M280.8,202.1h-1.5v-8.4c-0.4,0.3-0.8,0.6-1.4,0.9c-0.6,0.3-1.1,0.5-1.5,0.7V194c0.8-0.3,1.5-0.8,2.2-1.3
			c0.6-0.5,1.1-1,1.3-1.4h0.9V202.1z"/>
		<path class="st3" d="M284.6,196.8c0-1.3,0.1-2.3,0.4-3.1c0.3-0.8,0.7-1.4,1.3-1.8s1.3-0.6,2.2-0.6c0.6,0,1.2,0.1,1.7,0.3
			c0.5,0.2,0.9,0.6,1.2,1c0.3,0.4,0.6,1,0.7,1.6c0.2,0.6,0.3,1.5,0.3,2.5c0,1.3-0.1,2.3-0.4,3c-0.3,0.8-0.7,1.4-1.3,1.8
			c-0.6,0.4-1.3,0.6-2.2,0.6c-1.2,0-2.1-0.4-2.7-1.1C285,200.3,284.6,198.8,284.6,196.8z M286.1,196.8c0,1.8,0.2,2.9,0.7,3.5
			c0.5,0.6,1,0.9,1.7,0.9c0.7,0,1.2-0.3,1.7-0.9c0.5-0.6,0.7-1.8,0.7-3.5c0-1.8-0.2-2.9-0.7-3.5c-0.5-0.6-1-0.9-1.7-0.9
			c-0.7,0-1.2,0.3-1.6,0.8C286.3,193.8,286.1,195.1,286.1,196.8z"/>
		<path class="st3" d="M293.9,199.3l1.5-0.2c0.2,0.7,0.5,1.3,0.9,1.6c0.4,0.3,0.9,0.5,1.5,0.5c0.7,0,1.3-0.2,1.8-0.6s0.7-1,0.7-1.6
			c0-0.6-0.2-1.1-0.7-1.5c-0.4-0.4-1-0.6-1.7-0.6c-0.3,0-0.6,0-1,0.1l0.2-1.2c0.1,0,0.2,0,0.2,0c0.6,0,1.2-0.1,1.7-0.4
			c0.5-0.3,0.8-0.7,0.8-1.4c0-0.5-0.2-0.9-0.5-1.2c-0.4-0.3-0.8-0.5-1.4-0.5c-0.6,0-1,0.2-1.4,0.5s-0.6,0.8-0.7,1.5l-1.5-0.2
			c0.2-0.9,0.6-1.6,1.2-2.1c0.6-0.5,1.4-0.7,2.4-0.7c0.7,0,1.3,0.1,1.8,0.4c0.5,0.3,1,0.6,1.3,1c0.3,0.4,0.4,0.9,0.4,1.4
			c0,0.5-0.1,0.9-0.4,1.3c-0.3,0.4-0.7,0.7-1.2,0.9c0.7,0.1,1.3,0.5,1.7,0.9c0.4,0.5,0.6,1,0.6,1.7c0,0.9-0.4,1.7-1.1,2.4
			c-0.8,0.7-1.7,1-2.9,1c-1.1,0-1.9-0.3-2.6-0.8C294.4,200.9,294,200.2,293.9,199.3z"/>
	</g>
</g>
<g>
	<g>
		<path class="st3" d="M344.9,202.1h-1.5v-8.4c-0.4,0.3-0.8,0.6-1.4,0.9c-0.6,0.3-1.1,0.5-1.5,0.7V194c0.8-0.3,1.5-0.8,2.2-1.3
			c0.6-0.5,1.1-1,1.3-1.4h0.9V202.1z"/>
		<path class="st3" d="M348.7,196.8c0-1.3,0.1-2.3,0.4-3.1c0.3-0.8,0.7-1.4,1.3-1.8s1.3-0.6,2.2-0.6c0.6,0,1.2,0.1,1.7,0.3
			c0.5,0.2,0.9,0.6,1.2,1c0.3,0.4,0.6,1,0.7,1.6c0.2,0.6,0.3,1.5,0.3,2.5c0,1.3-0.1,2.3-0.4,3c-0.3,0.8-0.7,1.4-1.3,1.8
			c-0.6,0.4-1.3,0.6-2.2,0.6c-1.2,0-2.1-0.4-2.7-1.1C349.1,200.3,348.7,198.8,348.7,196.8z M350.2,196.8c0,1.8,0.2,2.9,0.7,3.5
			c0.5,0.6,1,0.9,1.7,0.9c0.7,0,1.2-0.3,1.7-0.9c0.5-0.6,0.7-1.8,0.7-3.5c0-1.8-0.2-2.9-0.7-3.5c-0.5-0.6-1-0.9-1.7-0.9
			c-0.7,0-1.2,0.3-1.6,0.8C350.4,193.8,350.2,195.1,350.2,196.8z"/>
		<path class="st3" d="M358,199.3l1.5-0.1c0.1,0.7,0.4,1.2,0.8,1.5c0.4,0.3,0.9,0.5,1.5,0.5c0.7,0,1.3-0.2,1.8-0.7
			c0.5-0.5,0.7-1.1,0.7-1.9c0-0.8-0.2-1.3-0.7-1.8c-0.5-0.4-1.1-0.7-1.9-0.7c-0.5,0-0.9,0.1-1.3,0.3c-0.4,0.2-0.7,0.4-0.9,0.8
			l-1.4-0.2l1.2-5.5h6v1.3h-4.8l-0.6,2.9c0.7-0.4,1.5-0.7,2.3-0.7c1,0,1.9,0.3,2.6,1s1.1,1.5,1.1,2.5c0,1-0.3,1.8-0.9,2.5
			c-0.8,0.9-1.8,1.3-3.1,1.3c-1.1,0-2-0.3-2.7-0.8S358.1,200.2,358,199.3z"/>
	</g>
</g>
<g>
	<g>
		<path class="st3" d="M33.9,180.3c0-1.3,0.1-2.3,0.4-3.1c0.3-0.8,0.7-1.4,1.3-1.8s1.3-0.6,2.2-0.6c0.6,0,1.2,0.1,1.7,0.3
			c0.5,0.2,0.9,0.6,1.2,1c0.3,0.4,0.6,1,0.7,1.6c0.2,0.6,0.3,1.5,0.3,2.5c0,1.3-0.1,2.3-0.4,3c-0.3,0.8-0.7,1.4-1.3,1.8
			c-0.6,0.4-1.3,0.6-2.2,0.6c-1.2,0-2.1-0.4-2.7-1.1C34.2,183.7,33.9,182.3,33.9,180.3z M35.4,180.3c0,1.8,0.2,2.9,0.7,3.5
			c0.5,0.6,1,0.9,1.7,0.9c0.7,0,1.2-0.3,1.7-0.9c0.5-0.6,0.7-1.8,0.7-3.5c0-1.8-0.2-2.9-0.7-3.5c-0.5-0.6-1-0.9-1.7-0.9
			c-0.7,0-1.2,0.3-1.6,0.8C35.6,177.3,35.4,178.5,35.4,180.3z"/>
	</g>
</g>
<g>
	<g>
		<path class="st3" d="M11.5,101.1H10v-8.4c-0.4,0.3-0.8,0.6-1.4,0.9c-0.6,0.3-1.1,0.5-1.5,0.7V93c0.8-0.3,1.5-0.8,2.2-1.3
			c0.6-0.5,1.1-1,1.3-1.4h0.9V101.1z"/>
		<path class="st3" d="M15.2,95.8c0-1.3,0.1-2.3,0.4-3.1c0.3-0.8,0.7-1.4,1.3-1.8s1.3-0.6,2.2-0.6c0.6,0,1.2,0.1,1.7,0.3
			c0.5,0.2,0.9,0.6,1.2,1c0.3,0.4,0.6,1,0.7,1.6c0.2,0.6,0.3,1.5,0.3,2.5c0,1.3-0.1,2.3-0.4,3.1c-0.3,0.8-0.7,1.4-1.3,1.8
			c-0.6,0.4-1.3,0.6-2.2,0.6c-1.2,0-2.1-0.4-2.7-1.1C15.6,99.2,15.2,97.8,15.2,95.8z M16.8,95.8c0,1.8,0.2,2.9,0.7,3.5
			c0.5,0.6,1,0.9,1.7,0.9c0.7,0,1.2-0.3,1.7-0.9c0.5-0.6,0.7-1.8,0.7-3.5c0-1.8-0.2-2.9-0.7-3.5c-0.5-0.6-1-0.9-1.7-0.9
			c-0.7,0-1.2,0.3-1.6,0.8C17,92.8,16.8,94,16.8,95.8z"/>
		<path class="st3" d="M24.5,95.8c0-1.3,0.1-2.3,0.4-3.1c0.3-0.8,0.7-1.4,1.3-1.8s1.3-0.6,2.2-0.6c0.6,0,1.2,0.1,1.7,0.3
			c0.5,0.2,0.9,0.6,1.2,1c0.3,0.4,0.6,1,0.7,1.6c0.2,0.6,0.3,1.5,0.3,2.5c0,1.3-0.1,2.3-0.4,3.1c-0.3,0.8-0.7,1.4-1.3,1.8
			c-0.6,0.4-1.3,0.6-2.2,0.6c-1.2,0-2.1-0.4-2.7-1.1C24.9,99.2,24.5,97.8,24.5,95.8z M26.1,95.8c0,1.8,0.2,2.9,0.7,3.5
			c0.5,0.6,1,0.9,1.7,0.9c0.7,0,1.2-0.3,1.7-0.9c0.5-0.6,0.7-1.8,0.7-3.5c0-1.8-0.2-2.9-0.7-3.5c-0.5-0.6-1-0.9-1.7-0.9
			c-0.7,0-1.2,0.3-1.6,0.8C26.3,92.8,26.1,94,26.1,95.8z"/>
		<path class="st3" d="M33.9,95.8c0-1.3,0.1-2.3,0.4-3.1c0.3-0.8,0.7-1.4,1.3-1.8s1.3-0.6,2.2-0.6c0.6,0,1.2,0.1,1.7,0.3
			c0.5,0.2,0.9,0.6,1.2,1c0.3,0.4,0.6,1,0.7,1.6c0.2,0.6,0.3,1.5,0.3,2.5c0,1.3-0.1,2.3-0.4,3.1c-0.3,0.8-0.7,1.4-1.3,1.8
			c-0.6,0.4-1.3,0.6-2.2,0.6c-1.2,0-2.1-0.4-2.7-1.1C34.2,99.2,33.9,97.8,33.9,95.8z M35.4,95.8c0,1.8,0.2,2.9,0.7,3.5
			c0.5,0.6,1,0.9,1.7,0.9c0.7,0,1.2-0.3,1.7-0.9c0.5-0.6,0.7-1.8,0.7-3.5c0-1.8-0.2-2.9-0.7-3.5c-0.5-0.6-1-0.9-1.7-0.9
			c-0.7,0-1.2,0.3-1.6,0.8C35.6,92.8,35.4,94,35.4,95.8z"/>
	</g>
</g>
<g>
	<g>
		<path class="st3" d="M13.7,14.7V16H5.7c0-0.3,0-0.6,0.2-0.9c0.2-0.5,0.5-1,1-1.4c0.4-0.5,1.1-1,1.9-1.6c1.3-1,2.2-1.7,2.6-2.3
			c0.5-0.6,0.7-1.1,0.7-1.6c0-0.5-0.2-1-0.6-1.3c-0.4-0.4-1-0.5-1.6-0.5c-0.7,0-1.3,0.2-1.7,0.6S7.5,7.7,7.5,8.4L6,8.3
			c0.1-1,0.5-1.8,1.2-2.3c0.7-0.5,1.6-0.8,2.7-0.8c1.1,0,2.1,0.3,2.7,0.9s1,1.3,1,2.1c0,0.4-0.1,0.9-0.3,1.3s-0.5,0.9-1,1.3
			s-1.2,1.1-2.3,1.9c-0.9,0.7-1.4,1.1-1.7,1.4c-0.3,0.2-0.5,0.5-0.6,0.7H13.7z"/>
		<path class="st3" d="M15.2,10.7c0-1.3,0.1-2.3,0.4-3.1C16,6.8,16.4,6.2,17,5.8s1.3-0.6,2.2-0.6c0.6,0,1.2,0.1,1.7,0.3
			c0.5,0.2,0.9,0.6,1.2,1c0.3,0.4,0.6,1,0.7,1.6c0.2,0.6,0.3,1.5,0.3,2.5c0,1.3-0.1,2.3-0.4,3.1c-0.3,0.8-0.7,1.4-1.3,1.8
			c-0.6,0.4-1.3,0.6-2.2,0.6c-1.2,0-2.1-0.4-2.7-1.1C15.6,14.1,15.2,12.7,15.2,10.7z M16.8,10.7c0,1.8,0.2,2.9,0.7,3.5
			c0.5,0.6,1,0.9,1.7,0.9c0.7,0,1.2-0.3,1.7-0.9c0.5-0.6,0.7-1.8,0.7-3.5c0-1.8-0.2-2.9-0.7-3.5c-0.5-0.6-1-0.9-1.7-0.9
			c-0.7,0-1.2,0.3-1.6,0.8C17,7.7,16.8,8.9,16.8,10.7z"/>
		<path class="st3" d="M24.5,10.7c0-1.3,0.1-2.3,0.4-3.1c0.3-0.8,0.7-1.4,1.3-1.8s1.3-0.6,2.2-0.6c0.6,0,1.2,0.1,1.7,0.3
			c0.5,0.2,0.9,0.6,1.2,1c0.3,0.4,0.6,1,0.7,1.6c0.2,0.6,0.3,1.5,0.3,2.5c0,1.3-0.1,2.3-0.4,3.1c-0.3,0.8-0.7,1.4-1.3,1.8
			c-0.6,0.4-1.3,0.6-2.2,0.6c-1.2,0-2.1-0.4-2.7-1.1C24.9,14.1,24.5,12.7,24.5,10.7z M26.1,10.7c0,1.8,0.2,2.9,0.7,3.5
			c0.5,0.6,1,0.9,1.7,0.9c0.7,0,1.2-0.3,1.7-0.9c0.5-0.6,0.7-1.8,0.7-3.5c0-1.8-0.2-2.9-0.7-3.5c-0.5-0.6-1-0.9-1.7-0.9
			c-0.7,0-1.2,0.3-1.6,0.8C26.3,7.7,26.1,8.9,26.1,10.7z"/>
		<path class="st3" d="M33.9,10.7c0-1.3,0.1-2.3,0.4-3.1c0.3-0.8,0.7-1.4,1.3-1.8s1.3-0.6,2.2-0.6c0.6,0,1.2,0.1,1.7,0.3
			c0.5,0.2,0.9,0.6,1.2,1c0.3,0.4,0.6,1,0.7,1.6c0.2,0.6,0.3,1.5,0.3,2.5c0,1.3-0.1,2.3-0.4,3.1c-0.3,0.8-0.7,1.4-1.3,1.8
			c-0.6,0.4-1.3,0.6-2.2,0.6c-1.2,0-2.1-0.4-2.7-1.1C34.2,14.1,33.9,12.7,33.9,10.7z M35.4,10.7c0,1.8,0.2,2.9,0.7,3.5
			c0.5,0.6,1,0.9,1.7,0.9c0.7,0,1.2-0.3,1.7-0.9c0.5-0.6,0.7-1.8,0.7-3.5c0-1.8-0.2-2.9-0.7-3.5c-0.5-0.6-1-0.9-1.7-0.9
			c-0.7,0-1.2,0.3-1.6,0.8C35.6,7.7,35.4,8.9,35.4,10.7z"/>
	</g>
</g>
<g>
	<rect x="48.4" y="182.9" class="st1" width="320.2" height="0.3"/>
</g>
<g>
	<rect x="48.2" y="11.2" class="st1" width="0.4" height="171.8"/>
</g>
<g>
	<g>
		<g>
			<rect x="45.2" y="182.9" class="st1" width="3.2" height="0.3"/>
		</g>
		<g>
			<rect x="45.2" y="139.9" class="st1" width="3.2" height="0.3"/>
		</g>
		<g>
			<rect x="45.2" y="97" class="st1" width="3.2" height="0.3"/>
		</g>
		<g>
			<rect x="45.2" y="54" class="st1" width="3.2" height="0.3"/>
		</g>
		<g>
			<rect x="45.2" y="11" class="st1" width="3.2" height="0.3"/>
		</g>
	</g>
</g>
<g>
	<g>
		<g>
			<path class="st5" d="M64.4,110.2c-0.1,0-0.3-0.1-0.3-0.2c-0.1-0.2,0-0.3,0.2-0.4l32-12.5c0.2-0.1,0.4,0,0.5,0.2s0,0.3-0.2,0.4
				l-32,12.5C64.5,110.2,64.4,110.2,64.4,110.2z"/>
		</g>
		<g>
			<path class="st5" d="M96.4,97.8c-0.2,0-0.3-0.1-0.3-0.2c-0.1-0.2,0-0.3,0.2-0.4l32-8.6c0.2-0.1,0.4,0,0.5,0.2
				c0.1,0.2,0,0.3-0.2,0.4l-32,8.6C96.5,97.8,96.4,97.8,96.4,97.8z"/>
		</g>
		<g>
			<path class="st5" d="M128.4,89.2c-0.1,0-0.1,0-0.2,0c-0.2-0.1-0.2-0.3-0.1-0.4l32-43.2c0.1-0.1,0.3-0.2,0.5-0.1
				c0.2,0.1,0.2,0.3,0.1,0.4l-32,43.2C128.7,89.1,128.5,89.2,128.4,89.2z"/>
		</g>
		<g>
			<path class="st5" d="M192.4,50.3C192.4,50.3,192.4,50.3,192.4,50.3L160.4,46c-0.2,0-0.3-0.2-0.3-0.4c0-0.2,0.2-0.3,0.4-0.3
				l32,4.4c0.2,0,0.3,0.2,0.3,0.4C192.8,50.2,192.6,50.3,192.4,50.3z"/>
		</g>
		<g>
			<path class="st5" d="M192.4,50.3c-0.1,0-0.3-0.1-0.3-0.2c-0.1-0.2,0-0.3,0.2-0.4l32-13.5c0.2-0.1,0.4,0,0.5,0.1
				c0.1,0.2,0,0.3-0.2,0.4l-32,13.5C192.6,50.3,192.5,50.3,192.4,50.3z"/>
		</g>
		<g>
			<path class="st5" d="M256.5,46.5c0,0-0.1,0-0.1,0l-32-9.6c-0.2-0.1-0.3-0.2-0.2-0.4c0.1-0.2,0.3-0.2,0.5-0.2l32,9.6
				c0.2,0.1,0.3,0.2,0.2,0.4C256.8,46.4,256.6,46.5,256.5,46.5z"/>
		</g>
		<g>
			<path class="st5" d="M288.5,90.3c-0.1,0-0.2-0.1-0.3-0.1l-32-43.8c-0.1-0.1-0.1-0.3,0.1-0.4c0.2-0.1,0.4,0,0.5,0.1l32,43.8
				c0.1,0.1,0.1,0.3-0.1,0.4C288.6,90.3,288.6,90.3,288.5,90.3z"/>
		</g>
		<g>
			<path class="st5" d="M288.5,90.3c-0.2,0-0.3-0.1-0.4-0.3c0-0.2,0.1-0.3,0.3-0.3l32-3.2c0.2,0,0.4,0.1,0.4,0.3
				c0,0.2-0.1,0.3-0.3,0.3L288.5,90.3C288.5,90.3,288.5,90.3,288.5,90.3z"/>
		</g>
		<g>
			<path class="st5" d="M320.5,87.1c-0.2,0-0.3-0.1-0.4-0.3c0-0.2,0.1-0.3,0.3-0.3l32-3.4c0.2,0,0.4,0.1,0.4,0.3
				c0,0.2-0.1,0.3-0.3,0.3L320.5,87.1C320.5,87.1,320.5,87.1,320.5,87.1z"/>
		</g>
	</g>
</g>
<circle class="st0" cx="64" cy="110.3" r="2"/>
<circle class="st0" cx="96.4" cy="97.4" r="2"/>
<circle class="st0" cx="128.2" cy="88.7" r="2"/>
<circle class="st0" cx="160.5" cy="45.8" r="2"/>
<circle class="st0" cx="192.6" cy="49.6" r="2"/>
<circle class="st0" cx="224.6" cy="36.6" r="2"/>
<circle class="st0" cx="256.3" cy="46.1" r="2"/>
<circle class="st0" cx="288.5" cy="89.5" r="2"/>
<circle class="st0" cx="320.5" cy="86.7" r="2"/>
<circle class="st0" cx="352.9" cy="83" r="2"/>
</svg>
