<?xml version="1.0" encoding="utf-8"?>
<!-- Generator: Adobe Illustrator 19.1.0, SVG Export Plug-In . SVG Version: 6.00 Build 0)  -->
<svg version="1.1" id="圖層_1" xmlns="http://www.w3.org/2000/svg" xmlns:xlink="http://www.w3.org/1999/xlink" x="0px" y="0px"
	 viewBox="0 0 375 614.2" style="enable-background:new 0 0 375 614.2;" xml:space="preserve">
<style type="text/css">
	.st0{fill:#B81C25;}
	.st1{fill:none;stroke:#C9CACA;stroke-miterlimit:10;}
	.st2{fill:#231815;}
	.st3{fill:#595757;}
	.st4{fill:none;stroke:#898989;stroke-miterlimit:10;}
	.st5{fill:none;stroke:#B81C25;stroke-miterlimit:10;}
	.st6{fill:#9FA0A0;stroke:#FFFFFF;stroke-miterlimit:10;}
	.st7{fill:#B5B5B6;stroke:#FFFFFF;stroke-miterlimit:10;}
	.st8{fill:#C9CACA;stroke:#FFFFFF;stroke-miterlimit:10;}
	.st9{fill:#DCDDDD;stroke:#FFFFFF;stroke-miterlimit:10;}
	.st10{fill:#EFEFEF;stroke:#FFFFFF;stroke-miterlimit:10;}
	.st11{fill:#F7F8F8;stroke:#FFFFFF;stroke-miterlimit:10;}
	.st12{fill:#F7F8F8;}
	.st13{fill:#EFEFEF;}
	.st14{fill:#DCDDDD;}
	.st15{fill:#C9CACA;}
	.st16{fill:#B5B5B6;}
	.st17{fill:#9FA0A0;}
	.st18{fill:#898989;}
	.st19{fill:none;stroke:#898989;stroke-width:0.5;stroke-miterlimit:10;}
</style>
<g>
	<path class="st3" d="M133.4,558.1v1.8h-10.2c0-0.5,0.1-0.9,0.2-1.3c0.3-0.7,0.7-1.4,1.2-2.1s1.4-1.5,2.5-2.3
		c1.7-1.4,2.8-2.5,3.4-3.3c0.6-0.8,0.9-1.6,0.9-2.3c0-0.8-0.3-1.4-0.8-1.9c-0.5-0.5-1.2-0.8-2.1-0.8c-0.9,0-1.6,0.3-2.2,0.8
		s-0.8,1.3-0.8,2.3l-1.9-0.2c0.1-1.5,0.6-2.6,1.5-3.3c0.9-0.8,2-1.1,3.5-1.1c1.5,0,2.7,0.4,3.5,1.2c0.9,0.8,1.3,1.8,1.3,3.1
		c0,0.6-0.1,1.2-0.4,1.8c-0.3,0.6-0.7,1.2-1.3,1.9c-0.6,0.7-1.6,1.6-2.9,2.7c-1.1,1-1.9,1.6-2.2,1.9c-0.3,0.3-0.6,0.7-0.8,1H133.4z"
		/>
	<path class="st3" d="M135.5,552.3c0-1.8,0.2-3.3,0.6-4.4c0.4-1.1,0.9-2,1.7-2.6c0.7-0.6,1.7-0.9,2.8-0.9c0.8,0,1.6,0.2,2.2,0.5
		c0.6,0.3,1.1,0.8,1.5,1.4c0.4,0.6,0.7,1.4,1,2.3s0.3,2.1,0.3,3.6c0,1.8-0.2,3.3-0.6,4.4c-0.4,1.1-0.9,2-1.7,2.6
		c-0.7,0.6-1.7,0.9-2.8,0.9c-1.5,0-2.7-0.5-3.5-1.6C136,557.3,135.5,555.2,135.5,552.3z M137.4,552.3c0,2.5,0.3,4.2,0.9,5.1
		c0.6,0.8,1.3,1.3,2.2,1.3s1.6-0.4,2.2-1.3c0.6-0.8,0.9-2.5,0.9-5.1c0-2.5-0.3-4.2-0.9-5.1c-0.6-0.8-1.3-1.3-2.2-1.3
		c-0.9,0-1.6,0.4-2.1,1.1C137.7,548.1,137.4,549.8,137.4,552.3z"/>
	<path class="st3" d="M148.5,559.9v-2.2h2.2v2.2H148.5z"/>
	<path class="st3" d="M163.3,548.3l-1.9,0.1c-0.2-0.7-0.4-1.3-0.7-1.6c-0.5-0.5-1.1-0.8-1.9-0.8c-0.6,0-1.1,0.2-1.6,0.5
		c-0.6,0.4-1.1,1.1-1.4,1.9c-0.3,0.8-0.5,2-0.5,3.6c0.5-0.7,1-1.2,1.7-1.5c0.7-0.3,1.4-0.5,2.1-0.5c1.3,0,2.3,0.5,3.2,1.4
		c0.9,0.9,1.3,2.1,1.3,3.6c0,1-0.2,1.9-0.6,2.7c-0.4,0.8-1,1.5-1.7,1.9s-1.6,0.7-2.5,0.7c-1.6,0-2.9-0.6-3.9-1.7
		c-1-1.2-1.5-3.1-1.5-5.7c0-3,0.5-5.1,1.7-6.5c1-1.2,2.3-1.8,3.9-1.8c1.2,0,2.2,0.3,3,1C162.6,546.2,163.1,547.1,163.3,548.3z
		 M155.5,554.9c0,0.7,0.1,1.3,0.4,1.9c0.3,0.6,0.7,1.1,1.2,1.4c0.5,0.3,1,0.5,1.6,0.5c0.8,0,1.5-0.3,2.1-1s0.9-1.5,0.9-2.6
		c0-1.1-0.3-1.9-0.9-2.5c-0.6-0.6-1.3-0.9-2.1-0.9c-0.9,0-1.6,0.3-2.2,0.9C155.8,553.1,155.5,554,155.5,554.9z"/>
	<path class="st3" d="M165.8,548.2c0-1.1,0.3-2,0.8-2.8c0.6-0.8,1.4-1.2,2.4-1.2c1,0,1.8,0.3,2.4,1c0.6,0.7,1,1.7,1,3
		c0,1.3-0.3,2.3-1,3s-1.4,1.1-2.4,1.1c-0.9,0-1.7-0.3-2.3-1C166.1,550.7,165.8,549.6,165.8,548.2z M169.1,545.6
		c-0.5,0-0.9,0.2-1.2,0.6c-0.3,0.4-0.5,1.2-0.5,2.2c0,1,0.2,1.7,0.5,2.1c0.3,0.4,0.7,0.6,1.2,0.6c0.5,0,0.9-0.2,1.2-0.6
		c0.3-0.4,0.5-1.2,0.5-2.2c0-1-0.2-1.7-0.5-2.1C169.9,545.8,169.5,545.6,169.1,545.6z M169.1,560.5l8.4-16.3h1.5l-8.4,16.3H169.1z
		 M175.8,556.3c0-1.1,0.3-2,0.8-2.8c0.6-0.8,1.4-1.2,2.4-1.2c1,0,1.8,0.3,2.4,1s1,1.7,1,3c0,1.3-0.3,2.3-1,3s-1.4,1.1-2.4,1.1
		c-0.9,0-1.7-0.3-2.3-1C176.1,558.8,175.8,557.7,175.8,556.3z M179.1,553.7c-0.5,0-0.9,0.2-1.2,0.6c-0.3,0.4-0.5,1.2-0.5,2.2
		c0,1,0.2,1.7,0.5,2.1s0.7,0.6,1.2,0.6c0.5,0,0.9-0.2,1.2-0.6s0.5-1.2,0.5-2.2c0-1-0.2-1.7-0.5-2.1
		C179.9,553.9,179.5,553.7,179.1,553.7z"/>
</g>
<g>
	<g>
		<path class="st3" d="M128.6,415h-1.8v-11.8c-0.4,0.4-1,0.8-1.7,1.3c-0.7,0.4-1.4,0.7-1.9,1v-1.8c1-0.5,1.9-1.1,2.7-1.8
			s1.3-1.4,1.6-2h1.2V415z"/>
		<path class="st3" d="M134.4,415v-2.1h2.1v2.1H134.4z"/>
		<path class="st3" d="M139.2,411l1.9-0.2c0.1,0.9,0.5,1.7,1,2.1c0.5,0.5,1.2,0.7,1.9,0.7c0.9,0,1.6-0.3,2.3-1s0.9-1.6,0.9-2.7
			c0-1.1-0.3-1.9-0.9-2.5c-0.6-0.6-1.4-0.9-2.3-0.9c-0.6,0-1.1,0.1-1.6,0.4c-0.5,0.3-0.9,0.6-1.1,1.1l-1.7-0.2l1.5-7.7h7.5v1.8h-6
			l-0.8,4c0.9-0.6,1.8-0.9,2.8-0.9c1.3,0,2.4,0.5,3.3,1.4c0.9,0.9,1.4,2.1,1.4,3.5c0,1.4-0.4,2.5-1.2,3.5c-1,1.2-2.3,1.8-3.9,1.8
			c-1.4,0-2.5-0.4-3.3-1.1C139.8,413.3,139.3,412.3,139.2,411z"/>
		<path class="st3" d="M151.2,403.6c0-1.1,0.3-2,0.8-2.7s1.3-1.1,2.3-1.1c0.9,0,1.7,0.3,2.3,1c0.6,0.7,0.9,1.7,0.9,3
			c0,1.3-0.3,2.3-0.9,2.9c-0.6,0.7-1.4,1-2.3,1c-0.9,0-1.7-0.3-2.3-1C151.5,405.9,151.2,404.9,151.2,403.6z M154.4,401
			c-0.5,0-0.8,0.2-1.1,0.6c-0.3,0.4-0.5,1.1-0.5,2.2c0,1,0.2,1.6,0.5,2c0.3,0.4,0.7,0.6,1.1,0.6c0.5,0,0.8-0.2,1.2-0.6
			c0.3-0.4,0.5-1.1,0.5-2.2c0-1-0.2-1.7-0.5-2C155.2,401.2,154.9,401,154.4,401z M154.4,415.5l8.2-15.8h1.5l-8.2,15.8H154.4z
			 M160.9,411.4c0-1.1,0.3-2,0.8-2.7c0.5-0.7,1.3-1.1,2.4-1.1c0.9,0,1.7,0.3,2.3,1c0.6,0.7,0.9,1.7,0.9,3c0,1.3-0.3,2.3-0.9,2.9
			c-0.6,0.7-1.4,1-2.3,1c-0.9,0-1.7-0.3-2.3-1C161.2,413.8,160.9,412.8,160.9,411.4z M164.1,408.9c-0.5,0-0.8,0.2-1.2,0.6
			c-0.3,0.4-0.5,1.1-0.5,2.2c0,1,0.2,1.6,0.5,2s0.7,0.6,1.1,0.6c0.5,0,0.9-0.2,1.2-0.6c0.3-0.4,0.5-1.1,0.5-2.2c0-1-0.2-1.7-0.5-2
			C165,409.1,164.6,408.9,164.1,408.9z"/>
	</g>
</g>
<g>
	<g>
		<path class="st3" d="M128.6,524.8h-1.8V513c-0.4,0.4-1,0.8-1.7,1.3c-0.7,0.4-1.4,0.7-1.9,1v-1.8c1-0.5,1.9-1.1,2.7-1.8
			s1.3-1.4,1.6-2h1.2V524.8z"/>
		<path class="st3" d="M139.2,524.8v-3.6h-6.5v-1.7l6.9-9.7h1.5v9.7h2v1.7h-2v3.6H139.2z M139.2,519.5v-6.8l-4.7,6.8H139.2z"/>
		<path class="st3" d="M146,524.8v-2.1h2.1v2.1H146z"/>
		<path class="st3" d="M160.5,523v1.8h-9.9c0-0.4,0.1-0.9,0.2-1.3c0.3-0.7,0.7-1.3,1.2-2c0.6-0.7,1.4-1.4,2.4-2.3
			c1.6-1.3,2.7-2.4,3.3-3.2c0.6-0.8,0.9-1.5,0.9-2.2c0-0.7-0.3-1.3-0.8-1.9c-0.5-0.5-1.2-0.8-2-0.8c-0.9,0-1.6,0.3-2.1,0.8
			s-0.8,1.3-0.8,2.2L151,514c0.1-1.4,0.6-2.5,1.5-3.2c0.8-0.7,2-1.1,3.4-1.1c1.4,0,2.6,0.4,3.4,1.2c0.8,0.8,1.3,1.8,1.3,3
			c0,0.6-0.1,1.2-0.4,1.8c-0.2,0.6-0.7,1.2-1.2,1.8c-0.6,0.6-1.5,1.5-2.8,2.6c-1.1,0.9-1.8,1.6-2.1,1.9c-0.3,0.3-0.6,0.7-0.8,1
			H160.5z"/>
		<path class="st3" d="M162.9,513.3c0-1.1,0.3-2,0.8-2.7c0.5-0.8,1.3-1.1,2.3-1.1c0.9,0,1.7,0.3,2.3,1c0.6,0.7,0.9,1.7,0.9,3
			c0,1.3-0.3,2.3-0.9,2.9c-0.6,0.7-1.4,1-2.3,1c-0.9,0-1.7-0.3-2.3-1C163.2,515.7,162.9,514.7,162.9,513.3z M166.1,510.7
			c-0.5,0-0.8,0.2-1.1,0.6c-0.3,0.4-0.5,1.1-0.5,2.2c0,1,0.2,1.6,0.5,2c0.3,0.4,0.7,0.6,1.1,0.6c0.5,0,0.8-0.2,1.2-0.6
			c0.3-0.4,0.5-1.1,0.5-2.2c0-1-0.2-1.7-0.5-2C166.9,510.9,166.5,510.7,166.1,510.7z M166.1,525.3l8.2-15.8h1.5l-8.2,15.8H166.1z
			 M172.6,521.2c0-1.1,0.3-2,0.8-2.7c0.5-0.7,1.3-1.1,2.4-1.1c0.9,0,1.7,0.3,2.3,1c0.6,0.7,0.9,1.7,0.9,3c0,1.3-0.3,2.3-0.9,2.9
			c-0.6,0.7-1.4,1-2.3,1c-0.9,0-1.7-0.3-2.3-1C172.9,523.6,172.6,522.6,172.6,521.2z M175.8,518.6c-0.5,0-0.8,0.2-1.2,0.6
			c-0.3,0.4-0.5,1.1-0.5,2.2c0,1,0.2,1.6,0.5,2s0.7,0.6,1.1,0.6c0.5,0,0.9-0.2,1.2-0.6c0.3-0.4,0.5-1.1,0.5-2.2c0-1-0.2-1.7-0.5-2
			C176.6,518.8,176.3,518.6,175.8,518.6z"/>
	</g>
</g>
<g>
	<g>
		<path class="st3" d="M128.6,489.4h-1.8v-11.8c-0.4,0.4-1,0.8-1.7,1.3c-0.7,0.4-1.4,0.7-1.9,1v-1.8c1-0.5,1.9-1.1,2.7-1.8
			s1.3-1.4,1.6-2h1.2V489.4z"/>
		<path class="st3" d="M133.3,485.4l1.8-0.2c0.2,1,0.6,1.8,1.1,2.3c0.5,0.5,1.1,0.7,1.9,0.7c0.9,0,1.6-0.3,2.2-0.9
			c0.6-0.6,0.9-1.3,0.9-2.2c0-0.8-0.3-1.5-0.8-2.1c-0.6-0.5-1.3-0.8-2.1-0.8c-0.3,0-0.8,0.1-1.3,0.2l0.2-1.6c0.1,0,0.2,0,0.3,0
			c0.8,0,1.5-0.2,2.1-0.6s0.9-1,0.9-1.9c0-0.7-0.2-1.2-0.7-1.7c-0.5-0.4-1-0.7-1.8-0.7c-0.7,0-1.3,0.2-1.8,0.7s-0.8,1.1-0.9,2
			l-1.8-0.3c0.2-1.2,0.7-2.2,1.5-2.9c0.8-0.7,1.8-1,3-1c0.8,0,1.6,0.2,2.3,0.5c0.7,0.4,1.2,0.8,1.6,1.4c0.4,0.6,0.5,1.3,0.5,1.9
			c0,0.7-0.2,1.2-0.5,1.8s-0.9,1-1.5,1.3c0.9,0.2,1.6,0.6,2.1,1.3c0.5,0.6,0.7,1.5,0.7,2.4c0,1.3-0.5,2.4-1.4,3.3
			c-1,0.9-2.2,1.4-3.6,1.4c-1.3,0-2.4-0.4-3.3-1.2C134,487.7,133.5,486.7,133.3,485.4z"/>
		<path class="st3" d="M146,489.4v-2.1h2.1v2.1H146z"/>
		<path class="st3" d="M160.5,487.6v1.8h-9.9c0-0.4,0.1-0.9,0.2-1.3c0.3-0.7,0.7-1.3,1.2-2c0.6-0.7,1.4-1.4,2.4-2.3
			c1.6-1.3,2.7-2.4,3.3-3.2c0.6-0.8,0.9-1.5,0.9-2.2c0-0.7-0.3-1.3-0.8-1.9c-0.5-0.5-1.2-0.8-2-0.8c-0.9,0-1.6,0.3-2.1,0.8
			s-0.8,1.3-0.8,2.2l-1.9-0.2c0.1-1.4,0.6-2.5,1.5-3.2c0.8-0.7,2-1.1,3.4-1.1c1.4,0,2.6,0.4,3.4,1.2c0.8,0.8,1.3,1.8,1.3,3
			c0,0.6-0.1,1.2-0.4,1.8s-0.7,1.2-1.2,1.8c-0.6,0.6-1.5,1.5-2.8,2.6c-1.1,0.9-1.8,1.6-2.1,1.9c-0.3,0.3-0.6,0.7-0.8,1H160.5z"/>
		<path class="st3" d="M162.9,478c0-1.1,0.3-2,0.8-2.7s1.3-1.1,2.3-1.1c0.9,0,1.7,0.3,2.3,1c0.6,0.7,0.9,1.7,0.9,3
			c0,1.3-0.3,2.3-0.9,2.9c-0.6,0.7-1.4,1-2.3,1c-0.9,0-1.7-0.3-2.3-1C163.2,480.4,162.9,479.4,162.9,478z M166.1,475.4
			c-0.5,0-0.8,0.2-1.1,0.6c-0.3,0.4-0.5,1.1-0.5,2.2c0,1,0.2,1.6,0.5,2c0.3,0.4,0.7,0.6,1.1,0.6c0.5,0,0.8-0.2,1.2-0.6
			c0.3-0.4,0.5-1.1,0.5-2.2c0-1-0.2-1.7-0.5-2C166.9,475.6,166.5,475.4,166.1,475.4z M166.1,490l8.2-15.8h1.5l-8.2,15.8H166.1z
			 M172.6,485.9c0-1.1,0.3-2,0.8-2.7c0.5-0.7,1.3-1.1,2.4-1.1c0.9,0,1.7,0.3,2.3,1c0.6,0.7,0.9,1.7,0.9,3c0,1.3-0.3,2.3-0.9,2.9
			c-0.6,0.7-1.4,1-2.3,1c-0.9,0-1.7-0.3-2.3-1C172.9,488.3,172.6,487.2,172.6,485.9z M175.8,483.3c-0.5,0-0.8,0.2-1.2,0.6
			c-0.3,0.4-0.5,1.1-0.5,2.2c0,1,0.2,1.6,0.5,2s0.7,0.6,1.1,0.6c0.5,0,0.9-0.2,1.2-0.6c0.3-0.4,0.5-1.1,0.5-2.2c0-1-0.2-1.7-0.5-2
			C176.6,483.5,176.3,483.3,175.8,483.3z"/>
	</g>
</g>
<g>
	<g>
		<path class="st3" d="M127.6,595.4v-3.6H121v-1.7l6.9-9.7h1.5v9.7h2v1.7h-2v3.6H127.6z M127.6,590.1v-6.8l-4.7,6.8H127.6z"/>
		<path class="st3" d="M140.3,595.4h-1.8v-11.8c-0.4,0.4-1,0.8-1.7,1.3c-0.7,0.4-1.4,0.7-1.9,1v-1.8c1-0.5,1.9-1.1,2.7-1.8
			s1.3-1.4,1.6-2h1.2V595.4z"/>
		<path class="st3" d="M146,595.4v-2.1h2.1v2.1H146z"/>
		<path class="st3" d="M157.8,595.4h-1.8v-11.8c-0.4,0.4-1,0.8-1.7,1.3c-0.7,0.4-1.4,0.7-1.9,1v-1.8c1-0.5,1.9-1.1,2.7-1.8
			s1.3-1.4,1.6-2h1.2V595.4z"/>
		<path class="st3" d="M162.9,584c0-1.1,0.3-2,0.8-2.7s1.3-1.1,2.3-1.1c0.9,0,1.7,0.3,2.3,1c0.6,0.7,0.9,1.7,0.9,3
			c0,1.3-0.3,2.3-0.9,2.9c-0.6,0.7-1.4,1-2.3,1c-0.9,0-1.7-0.3-2.3-1C163.2,586.4,162.9,585.3,162.9,584z M166.1,581.4
			c-0.5,0-0.8,0.2-1.1,0.6c-0.3,0.4-0.5,1.1-0.5,2.2c0,1,0.2,1.6,0.5,2c0.3,0.4,0.7,0.6,1.1,0.6c0.5,0,0.8-0.2,1.2-0.6
			c0.3-0.4,0.5-1.1,0.5-2.2c0-1-0.2-1.7-0.5-2C166.9,581.6,166.5,581.4,166.1,581.4z M166.1,595.9l8.2-15.8h1.5l-8.2,15.8H166.1z
			 M172.6,591.9c0-1.1,0.3-2,0.8-2.7c0.5-0.7,1.3-1.1,2.4-1.1c0.9,0,1.7,0.3,2.3,1c0.6,0.7,0.9,1.7,0.9,3c0,1.3-0.3,2.3-0.9,2.9
			c-0.6,0.7-1.4,1-2.3,1c-0.9,0-1.7-0.3-2.3-1C172.9,594.2,172.6,593.2,172.6,591.9z M175.8,589.3c-0.5,0-0.8,0.2-1.2,0.6
			c-0.3,0.4-0.5,1.1-0.5,2.2c0,1,0.2,1.6,0.5,2s0.7,0.6,1.1,0.6c0.5,0,0.9-0.2,1.2-0.6c0.3-0.4,0.5-1.1,0.5-2.2c0-1-0.2-1.7-0.5-2
			C176.6,589.5,176.3,589.3,175.8,589.3z"/>
	</g>
</g>
<g>
	<g>
		<path class="st3" d="M121.7,446.3l1.8-0.2c0.2,1,0.6,1.8,1.1,2.3c0.5,0.5,1.1,0.7,1.9,0.7c0.9,0,1.6-0.3,2.2-0.9
			c0.6-0.6,0.9-1.3,0.9-2.2c0-0.8-0.3-1.5-0.8-2.1c-0.6-0.5-1.3-0.8-2.1-0.8c-0.3,0-0.8,0.1-1.3,0.2l0.2-1.6c0.1,0,0.2,0,0.3,0
			c0.8,0,1.5-0.2,2.1-0.6c0.6-0.4,0.9-1,0.9-1.9c0-0.7-0.2-1.2-0.7-1.7c-0.5-0.4-1-0.7-1.8-0.7c-0.7,0-1.3,0.2-1.8,0.7
			s-0.8,1.1-0.9,2l-1.8-0.3c0.2-1.2,0.7-2.2,1.5-2.9c0.8-0.7,1.8-1,3-1c0.8,0,1.6,0.2,2.3,0.5c0.7,0.4,1.2,0.8,1.6,1.4
			c0.4,0.6,0.5,1.3,0.5,1.9c0,0.7-0.2,1.2-0.5,1.8s-0.9,1-1.5,1.3c0.9,0.2,1.6,0.6,2.1,1.3c0.5,0.6,0.7,1.5,0.7,2.4
			c0,1.3-0.5,2.4-1.4,3.3c-1,0.9-2.2,1.4-3.6,1.4c-1.3,0-2.4-0.4-3.3-1.2C122.3,448.5,121.8,447.5,121.7,446.3z"/>
		<path class="st3" d="M134.4,450.2v-2.1h2.1v2.1H134.4z"/>
		<path class="st3" d="M139.2,446.3l1.9-0.2c0.1,0.9,0.5,1.7,1,2.1c0.5,0.5,1.2,0.7,1.9,0.7c0.9,0,1.6-0.3,2.3-1s0.9-1.6,0.9-2.7
			c0-1.1-0.3-1.9-0.9-2.5c-0.6-0.6-1.4-0.9-2.3-0.9c-0.6,0-1.1,0.1-1.6,0.4c-0.5,0.3-0.9,0.6-1.1,1.1l-1.7-0.2l1.5-7.7h7.5v1.8h-6
			l-0.8,4c0.9-0.6,1.8-0.9,2.8-0.9c1.3,0,2.4,0.5,3.3,1.4c0.9,0.9,1.4,2.1,1.4,3.5c0,1.4-0.4,2.5-1.2,3.5c-1,1.2-2.3,1.8-3.9,1.8
			c-1.4,0-2.5-0.4-3.3-1.1C139.8,448.6,139.3,447.6,139.2,446.3z"/>
		<path class="st3" d="M151.2,438.8c0-1.1,0.3-2,0.8-2.7s1.3-1.1,2.3-1.1c0.9,0,1.7,0.3,2.3,1c0.6,0.7,0.9,1.7,0.9,3
			c0,1.3-0.3,2.3-0.9,2.9c-0.6,0.7-1.4,1-2.3,1c-0.9,0-1.7-0.3-2.3-1C151.5,441.2,151.2,440.2,151.2,438.8z M154.4,436.2
			c-0.5,0-0.8,0.2-1.1,0.6s-0.5,1.1-0.5,2.2c0,1,0.2,1.6,0.5,2c0.3,0.4,0.7,0.6,1.1,0.6c0.5,0,0.8-0.2,1.2-0.6s0.5-1.1,0.5-2.2
			c0-1-0.2-1.7-0.5-2C155.2,436.4,154.9,436.2,154.4,436.2z M154.4,450.8l8.2-15.8h1.5l-8.2,15.8H154.4z M160.9,446.7
			c0-1.1,0.3-2,0.8-2.7c0.5-0.7,1.3-1.1,2.4-1.1c0.9,0,1.7,0.3,2.3,1c0.6,0.7,0.9,1.7,0.9,3c0,1.3-0.3,2.3-0.9,2.9
			c-0.6,0.7-1.4,1-2.3,1c-0.9,0-1.7-0.3-2.3-1C161.2,449.1,160.9,448.1,160.9,446.7z M164.1,444.1c-0.5,0-0.8,0.2-1.2,0.6
			c-0.3,0.4-0.5,1.1-0.5,2.2c0,1,0.2,1.6,0.5,2c0.3,0.4,0.7,0.6,1.1,0.6c0.5,0,0.9-0.2,1.2-0.6c0.3-0.4,0.5-1.1,0.5-2.2
			c0-1-0.2-1.7-0.5-2C165,444.3,164.6,444.1,164.1,444.1z"/>
	</g>
</g>
<g>
	<g>
		<path class="st3" d="M216.5,415.6l-0.3,1h-7.9c-2.2,0-3.9-0.2-4.9-0.7c-1-0.5-1.7-1-2.2-1.7c-0.8,1.2-1.6,2.2-2.4,2.8l-0.8-0.8
			c1.8-1.4,3.1-3.6,3.8-6.6h-3.2v-1c1.2-1.6,2.2-3,3-4.4h-3.5v-1h4.7v1c-1,1.8-2,3.2-2.8,4.3h3v1c-0.2,1.1-0.6,2.3-1.2,3.6
			c0.4,0.8,1.1,1.4,2.1,1.8s2.4,0.6,4.4,0.6H216.5z M202.4,401.8l-0.8,0.7c-0.6-0.9-1.6-1.9-2.9-3l0.7-0.8
			C200.5,399.6,201.5,400.6,202.4,401.8z M216.3,404.6h-12.6v-0.9h5.8v-1.2h-4.6v-2.9h4.6v-1h1v1h4.6v2.9h-4.6v1.2h5.8V404.6z
			 M214.8,412.1h-6.1l0.5,0.8c-1.5,0.8-3.2,1.3-4.9,1.7l-0.5-0.9c1.7-0.4,3.3-0.9,4.6-1.6H205v-6.5h9.8V412.1z M209.4,401.7v-1.1
			h-3.5v1.1H209.4z M213.8,407.5v-0.9h-7.7v0.9H213.8z M213.8,409.4v-1.1h-7.7v1.1H213.8z M213.8,411.3v-1.1h-7.7v1.1H213.8z
			 M213.9,401.7v-1.1h-3.5v1.1H213.9z M216.2,413.8l-0.5,0.9c-1.2-0.5-2.8-0.9-4.8-1.3l0.5-0.9C213.4,413,215,413.4,216.2,413.8z"/>
		<path class="st3" d="M237.4,401.2h-4.6c1.3,1,2.4,1.9,3.3,2.8l-0.7,0.8c-0.2-0.2-0.5-0.5-0.9-1c-3.5,0.3-7.7,0.5-12.7,0.7l-0.4-1
			c1.4-0.6,2.7-1.4,3.7-2.3h-5.9v-1h7c0.6-0.5,1.2-1.1,1.7-1.8l1,0.6c-0.3,0.4-0.6,0.7-1.1,1.2h9.6V401.2z M237.4,407.3h-2.8v2.8
			h-5.7v1.4h8.4v1h-8.4v4.4h-1.1v-4.4h-8.4v-1h8.4v-1.4h-5.7v-2.8h-2.9v-1h2.9v-1.1h1.1v1.1h4.6v-1.4h1.1v1.4h4.6v-1.5h1.1v1.5h2.8
			V407.3z M226.2,414c-1.6,1.1-3.5,2.1-5.9,2.9l-0.7-0.9c2.3-0.7,4.3-1.7,5.9-2.8L226.2,414z M227.8,409.2v-1.9h-4.6v1.9H227.8z
			 M233.3,402.9c-0.7-0.5-1.3-0.9-1.7-1.2l0.6-0.6h-5.6c-1.2,1-2.3,1.7-3.5,2.3C226,403.4,229.3,403.2,233.3,402.9z M233.4,409.2
			v-1.9h-4.6v1.9H233.4z M237,415.9l-0.6,0.8c-1.7-1-3.6-1.9-5.7-2.7l0.7-0.8C233.7,414.1,235.6,415,237,415.9z"/>
	</g>
</g>
<g>
	<g>
		<path class="st3" d="M216.6,516.3c-0.9,0.9-2,1.7-3,2.6v5.8c0,0.5-0.1,1-0.4,1.2c-0.3,0.3-0.7,0.4-1.4,0.5s-1.4,0.1-2.1,0.1
			c-0.4,0-0.9,0-1.3,0l-0.3-1.1c1,0,1.9,0.1,2.5,0.1c0.9,0,1.5,0,1.6-0.1c0.2-0.1,0.3-0.3,0.3-0.6v-4.9c-2.8,2.4-7.5,4.5-13.9,6.4
			l-0.5-1c5.5-1.5,9.7-3.3,12.8-5.5c-4.2,0.6-8.3,1-12.2,1.3l-0.3-1.1c0.7,0,1.4,0,2.2-0.1v-9.7h2.7c0.8-0.8,1.4-1.5,1.7-2l1.3,0.3
			c-0.3,0.4-0.8,1-1.5,1.8h8.8v7.6c0.6-0.4,1.4-1.1,2.3-2L216.6,516.3z M212.5,512.7V511h-10.8v1.8H212.5z M212.5,515.7v-1.9h-10.8
			v1.9H212.5z M212.5,518.3v-1.4h-10.8v2.6C204.5,519.3,208.1,518.9,212.5,518.3z"/>
		<path class="st3" d="M225.6,524.9c0,0.4-0.1,0.8-0.3,1.1c-0.2,0.3-0.6,0.4-1.2,0.4h-0.8l-0.3-1h1.3c0.1,0,0.1,0,0.2-0.1
			c0.1-0.1,0.1-0.1,0.1-0.2v-2.9c-1.2,0.7-2.2,1.1-2.8,1.4l-0.3-0.5c-0.4,1.4-0.8,2.5-1.4,3.3l-0.8-0.5c1-1.7,1.5-3.5,1.5-5.3v-4.2
			h4.8V524.9z M227,516.1h-1v-1.2h-5.6v1.2h-1v-2.2h1.1v-5.4h5.8v5.4h0.7V516.1z M225.2,511.1v-1.6h-3.8v4.4h1.3v-2.8H225.2z
			 M224.6,521v-3.6h-2.9v1.2c0.7,0.2,1.6,0.5,2.5,0.9l-0.5,0.9c-0.5-0.2-1.1-0.5-2.1-0.8c0,1.3-0.1,2.3-0.2,3
			C222.5,522.2,223.5,521.7,224.6,521z M225.2,513.9v-1.8h-1.5v1.8H225.2z M237.4,526h-10.5v-1h3.2c-0.1-0.6-0.4-1.4-0.8-2.2h-1
			v-3.5h8v3.5H235c-0.3,0.9-0.6,1.6-0.9,2.2h3.3V526z M237.2,518.1h-10v-1h10V518.1z M236.8,515.8h-8.8v-6h2.6v-1.7h0.9v1.7h1.7
			v-1.7h0.9v1.7h2.6V515.8z M230.6,512.3v-1.6h-1.7v1.6H230.6z M230.6,514.9v-1.7h-1.7v1.7H230.6z M235.2,521.9v-1.6h-5.9v1.6H235.2
			z M233.8,522.8h-3.4l0.8,2.2h1.8C233.3,524.2,233.6,523.5,233.8,522.8z M233.2,512.3v-1.6h-1.7v1.6H233.2z M233.2,514.9v-1.7h-1.7
			v1.7H233.2z M235.8,512.3v-1.6h-1.7v1.6H235.8z M235.8,514.9v-1.7h-1.7v1.7H235.8z"/>
		<path class="st3" d="M258.1,512.1c-0.3,1.4-0.7,2.5-1.2,3.5l-1-0.3c0.3-0.6,0.6-1.3,0.9-2.1h-8v1.7l5.9-0.3l0.1,1l-5.9,0.3v1
			c0,0.4,0.2,0.5,0.5,0.5h7.2v0.9h-7.6c-0.3,0-0.6-0.1-0.8-0.3c-0.2-0.2-0.4-0.5-0.4-0.8v-1.2l-3.5,0.2v-1l3.5-0.2v-1.8h-4.5v4.1
			c0,3.9-0.7,7-2.2,9.2l-0.9-0.6c1.4-2.1,2-4.8,2-8.2v-5.5h6.9v-4h1.1v1.5h7v0.9h-7v1.5H258.1z M258.1,523.2h-11.6v1.8h10.7v1h-11.7
			v-2.8h-1.9v-0.9h1.9v-2.6h11.8v0.9h-10.7v1.7h11.6V523.2z"/>
		<path class="st3" d="M266.8,512.7c-0.6,1.3-1.3,2.4-1.9,3.3v10.4h-1.1v-9c-0.8,0.9-1.5,1.7-2.3,2.2l-0.5-1c2-1.6,3.6-3.7,4.9-6.3
			L266.8,512.7z M266,508.3c-1.1,1.8-2.6,3.5-4.3,4.9l-0.6-0.9c1.4-1.1,2.7-2.5,3.9-4.4L266,508.3z M279.4,519.6h-2.5v5.1
			c0,0.5-0.1,0.8-0.3,1.1c-0.2,0.3-0.5,0.4-0.8,0.5c-0.3,0.1-0.9,0.1-1.7,0.1c-0.3,0-0.7,0-1.1,0l-0.4-1.1c0.8,0.1,1.6,0.1,2.4,0.1
			c0.2,0,0.3-0.1,0.5-0.2c0.1-0.2,0.2-0.3,0.2-0.5v-5h-9.3v-1.1h9.3v-2h1.1v2h2.5V519.6z M279.2,511.5h-5.8v3.1h5v1.1h-10.9v-1.1
			h4.8v-3.1h-5.4v-1h5.4v-2.3h1.1v2.3h5.8V511.5z M271.9,523.7l-0.9,0.6c-0.5-0.7-1.4-1.8-2.7-3.2l0.9-0.6
			C270.3,521.6,271.2,522.7,271.9,523.7z"/>
	</g>
</g>
<g>
	<g>
		<path class="st3" d="M200.3,476.8c-0.2,2-0.6,3.7-1.1,5.1l-1.1-0.3c0.5-1.5,0.8-3.1,1-4.9L200.3,476.8z M204.7,478.7l-0.7,0.8
			c-0.6-0.7-1.1-1.3-1.7-1.8v12.7h-1.1v-18.4h1.1v4.3C203.2,477.1,204,477.8,204.7,478.7z M216.4,490h-12v-1.1h5.9v-5.5h-4.8v-1.1
			h4.8v-4.6h-3c-0.5,1.4-1.1,2.6-1.8,3.6l-0.9-0.6c1.4-2.4,2.3-4.8,2.7-7.3l1.1,0.2c-0.2,1.1-0.4,2.1-0.7,2.9h2.7v-4.5h1.2v4.5h4.6
			v1.1h-4.6v4.6h4.1v1.1h-4.1v5.5h5V490z"/>
		<path class="st3" d="M237.1,476.1c-0.3,1.4-0.7,2.5-1.2,3.5l-1-0.3c0.3-0.6,0.6-1.3,0.9-2.1h-8v1.7l5.9-0.3l0.1,1l-5.9,0.3v1
			c0,0.4,0.2,0.5,0.5,0.5h7.2v0.9h-7.6c-0.3,0-0.6-0.1-0.8-0.3c-0.2-0.2-0.4-0.5-0.4-0.8v-1.2l-3.5,0.2v-1l3.5-0.2v-1.8h-4.5v4.1
			c0,3.9-0.7,7-2.2,9.2l-0.9-0.6c1.4-2.1,2-4.8,2-8.2v-5.5h6.9v-4h1.1v1.5h7v0.9h-7v1.5H237.1z M237.1,487.2h-11.6v1.8h10.7v1h-11.7
			v-2.8h-1.9v-0.9h1.9v-2.6h11.8v0.9h-10.7v1.7h11.6V487.2z"/>
		<path class="st3" d="M245.8,476.8c-0.6,1.3-1.3,2.4-1.9,3.3v10.4h-1.1v-9c-0.8,0.9-1.5,1.7-2.3,2.2l-0.5-1c2-1.6,3.6-3.7,4.9-6.3
			L245.8,476.8z M245,472.4c-1.1,1.8-2.6,3.5-4.3,4.9l-0.6-0.9c1.4-1.1,2.7-2.5,3.9-4.4L245,472.4z M258.4,483.6h-2.5v5.1
			c0,0.5-0.1,0.8-0.3,1.1c-0.2,0.3-0.5,0.4-0.8,0.5c-0.3,0.1-0.9,0.1-1.7,0.1c-0.3,0-0.7,0-1.1,0l-0.4-1.1c0.8,0.1,1.6,0.1,2.4,0.1
			c0.2,0,0.3-0.1,0.5-0.2c0.1-0.2,0.2-0.3,0.2-0.5v-5h-9.3v-1.1h9.3v-2h1.1v2h2.5V483.6z M258.2,475.6h-5.8v3.1h5v1.1h-10.9v-1.1
			h4.8v-3.1h-5.4v-1h5.4v-2.3h1.1v2.3h5.8V475.6z M250.9,487.8l-0.9,0.6c-0.5-0.7-1.4-1.8-2.7-3.2l0.9-0.6
			C249.3,485.7,250.2,486.7,250.9,487.8z"/>
	</g>
</g>
<g>
	<g>
		<path class="st3" d="M205.2,552.3h-2v5.5c0.6-0.2,1.3-0.4,2-0.7v1.1c-2.4,1-4.6,1.7-6.7,2.3l-0.3-1c0.3-0.1,0.7-0.2,1.2-0.3v-10.9
			h1.1v10.5c0.4-0.1,1-0.2,1.6-0.5v-10.3c0.6-1,1.1-2,1.5-2.9h-4.7v-1h5.9v1l-1.6,3.3v3h2V552.3z M207.7,552.4
			c-0.1,4.2-0.9,7.2-2.5,9l-1-0.5c1.5-1.6,2.3-4.4,2.5-8.5H207.7z M216.4,546.1h-6.1c-1,1.6-1.9,2.9-2.8,3.9
			c2.3-0.1,4.3-0.2,6.2-0.4c-0.3-0.4-0.8-1-1.6-1.8l0.9-0.6c1.1,1,2.2,2.4,3.3,4.2l-0.9,0.6c-0.3-0.6-0.7-1.1-1-1.5
			c-2.8,0.3-5.6,0.5-8.4,0.6l-0.3-1c1-0.7,2.1-2,3.3-4.1h-3.4v-1h4c0.4-0.7,0.8-1.4,1.1-2.2l1.1,0.4c-0.3,0.7-0.6,1.3-0.9,1.8h5.5
			V546.1z M210.8,561.3h-1.1v-9h1.1V561.3z M216.4,561.3H214c-0.3,0-0.6-0.1-0.9-0.4c-0.3-0.3-0.4-0.6-0.4-0.9v-7.6h1.1v7.5
			c0,0.1,0,0.2,0.1,0.3c0.1,0.1,0.2,0.1,0.2,0.1h2.2V561.3z"/>
		<path class="st3" d="M235.9,544.9c0,2-0.1,3.6-0.2,5c-0.1,1.4-0.3,2.2-0.4,2.5c-0.1,0.3-0.4,0.5-0.7,0.8c-0.3,0.2-1.1,0.4-2.3,0.4
			c-0.4,0-0.8,0-1.3-0.1l-0.4-1.1c0.6,0.1,1.2,0.1,1.7,0.1c0.9,0,1.4-0.1,1.6-0.2s0.3-0.3,0.4-0.5c0.1-0.2,0.2-0.9,0.3-2.1
			s0.2-2.4,0.2-3.7h-2.3c-0.9,2.9-3.1,5.5-6.5,7.9l-0.9-0.8c3.3-2.1,5.4-4.4,6.2-7.1h-3.5c-1,2.9-3.5,5.2-7.4,6.8l-0.7-0.9
			c3.7-1.4,5.9-3.4,6.9-5.9h-3.2c-1.1,1.4-2.2,2.4-3.4,3l-0.8-0.9c2-1,3.6-2.7,4.9-5.2l1.1,0.3c-0.3,0.5-0.6,1.1-0.9,1.6H235.9z
			 M222.9,555.1c-0.8,2.2-1.7,4-2.7,5.4l-1-0.6c1-1.2,1.9-2.9,2.6-5L222.9,555.1z M233.3,557.1c-0.1,1.7-0.3,2.7-0.6,3.2
			c-0.3,0.4-0.7,0.7-1.2,0.8c-0.5,0.1-1.5,0.1-3.3,0.1c-1.3,0-2.2,0-2.5-0.1c-0.4-0.1-0.7-0.2-0.9-0.5c-0.2-0.3-0.4-0.7-0.4-1.3
			v-4.8h1.1v4.9c0,0.3,0.2,0.5,0.5,0.6c0.3,0.1,1.9,0.1,4.7,0.1c0.4,0,0.8-0.2,1-0.5c0.2-0.3,0.4-1.2,0.4-2.7L233.3,557.1z
			 M230.5,557l-1,0.4c-0.7-1.3-1.4-2.5-2.2-3.5l1-0.5C229.3,554.7,230,555.9,230.5,557z M237.4,559.6l-1,0.5
			c-0.7-1.5-1.8-3.2-3.2-5.2l0.9-0.5C235.4,556,236.5,557.8,237.4,559.6z"/>
	</g>
</g>
<g>
	<g>
		<path class="st3" d="M216.7,591.3l-0.7,0.9c-3.1-2.5-5.8-4.3-8.1-5.5v10.4h-1.2v-11.8c-2,2.4-4.6,4.7-8,6.9l-0.7-1
			c5.2-3.1,8.7-6.7,10.5-10.9h-10.1v-1.1h17.9v1.1h-6.5c-0.5,1.1-1.1,2.2-1.9,3.4v1.7C211.8,587.7,214.8,589.7,216.7,591.3z"/>
		<path class="st3" d="M236.6,586h-1v-3.3H221v3.3H220v-4.3h7.8v-2.9h1v2.9h7.8V586z M235.7,597.1h-1.1v-0.9H222v0.9h-1.1v-7.6h14.8
			V597.1z M227.7,592.3v-1.8H222v1.8H227.7z M227.7,595.1v-1.8H222v1.8H227.7z M225.1,580.7l-1,0.6c-0.4-0.6-1.1-1.2-1.9-1.9l1-0.6
			C223.8,579.3,224.4,579.9,225.1,580.7z M233.6,588.1H223v-3.8h10.6V588.1z M232.5,587.1v-1.8h-8.4v1.8H232.5z M234.6,592.3v-1.8
			h-5.7v1.8H234.6z M234.6,595.1v-1.8h-5.7v1.8H234.6z M234.6,579.5c-0.6,0.5-1.4,1.1-2.5,1.7l-0.9-0.8c0.9-0.4,1.8-0.9,2.5-1.5
			L234.6,579.5z"/>
		<path class="st3" d="M249.1,581.1h-5.9c-0.7,0.9-1.5,1.7-2.3,2.4l-0.8-0.7c1.5-1.2,2.7-2.6,3.5-4.3l1,0.4
			c-0.2,0.3-0.4,0.7-0.7,1.2h5.2V581.1z M257.9,588.2h-1.1v-2.9h-15.1v2.9h-1.1v-3.9h7.9c-0.1-0.3-0.2-0.7-0.5-1.2l0.9-0.3
			c0.3,0.5,0.5,1,0.7,1.5h8.2V588.2z M256,596.1h-11.8v0.9h-1.1v-10.2h12.3v3.6h-11.2v1.7H256V596.1z M254.3,589.4v-1.6h-10.1v1.6
			H254.3z M254.9,595.1v-2h-10.7v2H254.9z M247,583.2l-1,0.4c-0.3-0.5-0.6-1.1-1.2-1.7l0.9-0.4C246.3,582.1,246.7,582.7,247,583.2z
			 M258.4,581.2h-6.7c-0.5,0.6-1,1.1-1.6,1.6l-0.9-0.6c1.5-1.4,2.5-2.6,2.9-3.6l1,0.4c-0.2,0.4-0.4,0.7-0.7,1.2h6V581.2z
			 M255.4,583.3l-0.9,0.4c-0.5-0.9-0.8-1.5-1.1-1.8l1-0.4C254.8,582.1,255.1,582.7,255.4,583.3z"/>
		<path class="st3" d="M271.7,580c-0.9,1.5-1.9,2.9-2.9,4.1h2.3v1h-3.3c-0.8,0.8-1.5,1.5-2.1,2h4v0.9c-0.9,0.9-1.8,1.7-2.7,2.5v1
			c1.3-0.2,2.5-0.5,3.8-0.8l0,1.1c-1.2,0.3-2.4,0.5-3.7,0.7v2.9c0,0.5-0.1,0.8-0.4,1.1c-0.3,0.3-0.9,0.4-1.8,0.4
			c-0.3,0-0.7,0-1.1-0.1l-0.3-1.1c0.4,0,0.8,0.1,1.3,0.1c0.6,0,1,0,1.1-0.1c0.1-0.1,0.2-0.2,0.2-0.5v-2.5c-1.8,0.3-3.3,0.5-4.5,0.6
			l-0.3-1c1.8-0.2,3.4-0.5,4.7-0.7v-1.7c0.7-0.6,1.5-1.3,2.2-2h-3.8c-0.9,0.7-1.7,1.2-2.5,1.7L261,589c2.3-1.3,4.1-2.6,5.3-3.8h-4.9
			v-1h3.8v-2.4h-3.2v-1h3.2v-2h1.1v2h2.5v1h-2.5v2.4h1c1.3-1.3,2.4-2.8,3.4-4.6L271.7,580z M279.6,596.1l-0.7,1
			c-1.7-1.1-3-2.3-4-3.5c-1.5,1.5-3.1,2.7-4.6,3.5l-0.7-1c2-1.1,3.6-2.2,4.7-3.5c-0.7-1.3-1.3-3-1.8-5.4l1.1-0.4
			c0.4,2.2,0.9,3.8,1.4,4.8c1.5-2.4,2.2-5.2,2-8.6h-3.2c-0.8,2-1.7,3.6-2.7,4.9l-0.8-0.8c1.8-2.4,3-5.3,3.5-8.7l1.1,0.3
			c-0.2,1.2-0.5,2.2-0.8,3.1h5.3v1.1h-1.3c0,4.1-0.9,7.3-2.5,9.6C276.6,594,277.9,595.1,279.6,596.1z"/>
	</g>
</g>
<g>
	<g>
		<path class="st3" d="M213.8,451.9h-1.1v-1.4h-10.9v1.4h-1.1v-17.9h13.2V451.9z M212.7,439.2v-4.1h-10.9v4.1H212.7z M212.7,444.2
			v-3.9h-10.9v3.9H212.7z M212.7,449.4v-4.1h-10.9v4.1H212.7z"/>
		<path class="st3" d="M225.1,450.4h-1v-1.2h-3v1.7h-1v-16.2h5.1V450.4z M224,439v-3.2h-3v3.2H224z M224,443.5v-3.4h-3v3.4H224z
			 M224,448.2v-3.7h-3v3.7H224z M237.4,440.6h-4.5c-0.6,0.7-1.6,1.6-2.9,2.5h6v8.7H235v-1.2h-6.3v1.2h-1v-7.2
			c-0.4,0.2-0.9,0.5-1.5,0.7l-0.6-0.9c2.2-0.9,4.2-2.2,6-3.9h-5.6v-1h4v-2.7h-3.3v-1h3.3v-2.3h1.1v2.3h2.6v1H231v2.7h1.5
			c1.3-1.4,2.3-3,3.3-4.7l0.9,0.5c-0.9,1.7-1.9,3.1-2.8,4.2h3.6V440.6z M235,446.4v-2.1h-6.3v2.1H235z M235,449.7v-2.3h-6.3v2.3H235
			z"/>
		<path class="st3" d="M258.3,450l-0.7,0.9c-2.6-1.4-4.6-3-5.9-5c0.1,0.6,0.2,1.2,0.2,1.8c0,1.8-0.3,2.9-0.8,3.3
			c-0.6,0.5-1.5,0.7-2.7,0.7c-0.4,0-0.7,0-1.1,0l-0.4-1.1c0.4,0.1,0.9,0.1,1.4,0.1c0.8,0,1.4-0.1,1.7-0.3c0.3-0.2,0.5-0.4,0.6-0.8
			s0.2-1,0.2-2c0-0.6,0-1.2-0.1-1.7c-2.6,2.1-5.9,3.7-9.8,5l-0.6-0.9c4.5-1.4,7.8-3.1,10.1-5.2c-0.2-0.7-0.3-1.2-0.6-1.6
			c-2.1,1.6-4.9,2.9-8.4,3.9l-0.6-1c3.4-0.8,6.3-2.1,8.6-3.9c-0.2-0.3-0.5-0.8-0.8-1.2c-2.1,1-4.3,1.8-6.6,2.3l-0.6-1
			c3.6-0.7,6.4-1.8,8.3-3.1h-6.1V438h11.9v1.1h-4.2c-0.5,0.4-1.1,0.9-1.9,1.4c0.8,1,1.4,2.2,1.8,3.5c2.1-1.1,3.7-2.2,4.8-3.4
			l0.8,0.8c-1.1,1.2-2.7,2.3-4.6,3.4C253.4,447,255.5,448.7,258.3,450z M257.6,438.9h-1.1v-2.6h-14.4v2.6H241v-3.7h8
			c-0.2-0.5-0.4-1-0.6-1.5l1.1-0.4c0.2,0.4,0.4,1,0.7,1.9h7.4V438.9z"/>
		<path class="st3" d="M279.4,447.7l-0.6,1c-2.7-0.9-4.8-2.2-6.2-3.9H268c-1.7,1.8-3.8,3.1-6.2,3.9l-0.6-1c2-0.5,3.8-1.5,5.4-2.9
			h-5.1v-1h5.4v-1.6h-4.2v-1h4.2v-1.5h-3.6v-5.5h14.1v5.5h-3.5v1.5h4.2v1h-4.2v1.6h5.4v1H274C275.4,446,277.1,447,279.4,447.7z
			 M268.8,449.5c-1.9,0.9-3.8,1.5-5.6,1.9l-0.5-0.9c1.7-0.4,3.5-1.1,5.5-1.9L268.8,449.5z M276.2,436.4v-1.2h-11.9v1.2H276.2z
			 M276.2,438.6v-1.3h-11.9v1.3H276.2z M269,447.4l-0.7,0.8c-0.5-0.4-1.1-0.8-1.8-1.2l0.7-0.7C267.9,446.5,268.5,446.9,269,447.4z
			 M270.8,450.7c0,0.3-0.1,0.6-0.3,0.8s-0.4,0.3-0.6,0.4c-0.2,0-0.7,0.1-1.6,0.1l-0.5-1.1c0.2,0,0.5,0,0.9,0c0.5,0,0.7,0,0.9-0.1
			c0.1-0.1,0.2-0.2,0.2-0.4v-4.7h1.1V450.7z M272.7,441.1v-1.5h-4.8v1.5H272.7z M272.7,443.7v-1.6h-4.8v1.6H272.7z M274.2,447.1
			c-0.6,0.5-1.2,0.8-1.8,1.1l-0.7-0.8c0.7-0.4,1.3-0.7,1.7-1L274.2,447.1z M278.1,450.7l-0.6,0.9c-1.4-0.8-3.2-1.4-5.4-2l0.7-0.9
			C275.1,449.3,276.9,450,278.1,450.7z"/>
	</g>
</g>
<circle class="st12" cx="103.4" cy="409.9" r="5.6"/>
<circle class="st10" cx="103.4" cy="445.2" r="5.6"/>
<circle class="st8" cx="103.4" cy="554.4" r="5.6"/>
<circle class="st10" cx="103.4" cy="482.7" r="5.6"/>
<circle class="st9" cx="103.4" cy="519.4" r="5.6"/>
<circle class="st7" cx="103.4" cy="590" r="5.6"/>
<g>
	<g>
		<g>
			<path class="st7" d="M187.3,195.9L96.1,347.7c-83.8-50.4-111-159.2-60.6-243c32.7-54.5,88.2-85.9,151.8-85.9V195.9z"/>
			<path class="st7" d="M96.1,348l-0.2-0.1c-40.6-24.4-69.3-63.1-80.7-109.1s-4.3-93.6,20.1-134.2c32.8-54.6,88.2-86,152-86h0.2V196
				l0,0L96.1,348z M187.1,19c-63.5,0.1-118.7,31.3-151.4,85.8C-14.6,188.4,12.5,297.2,96,347.5l91.1-151.6V19z"/>
		</g>
	</g>
</g>
<g>
	<g>
		<g>
			<path class="st8" d="M187.3,195.9l118.5,131.6c-58.7,52.8-142.1,60.9-209.7,20.2L187.3,195.9z"/>
			<path class="st8" d="M187.6,373.7c-31.9,0-63.3-8.8-91.6-25.8l-0.2-0.1l0.1-0.2l91.4-152.1l0.2,0.2l118.6,131.8l-0.2,0.1
				c-28.8,25.9-64,41.6-101.6,45.2C198.7,373.4,193.1,373.7,187.6,373.7z M96.3,347.7c67,40.2,151,32.1,209.2-20.1L187.3,196.3
				L96.3,347.7z"/>
		</g>
	</g>
</g>
<g>
	<g>
		<g>
			<path class="st9" d="M187.3,195.9l176.9-9.3c2.9,55.3-17.2,103.8-58.4,140.9L187.3,195.9z"/>
			<path class="st9" d="M305.8,327.8l-0.1-0.2L186.9,195.7l0.4,0l177.1-9.3l0,0.2c2.9,55.3-17.3,104-58.4,141.1L305.8,327.8z
				 M187.7,196.1l118.1,131.2c40.9-36.9,61-85.4,58.2-140.4L187.7,196.1z"/>
		</g>
	</g>
</g>
<g>
	<g>
		<g>
			<path class="st10" d="M187.3,195.9L301.1,60.2c39.7,33.3,60.3,74.6,63,126.4L187.3,195.9z"/>
			<path class="st10" d="M186.8,196.2L301.1,60l0.2,0.1c39.7,33.3,60.4,74.7,63.1,126.6l0,0.2l-0.2,0L186.8,196.2z M301.2,60.5
				L187.7,195.7l176.2-9.2C361.2,134.9,340.7,93.7,301.2,60.5z"/>
		</g>
	</g>
</g>
<g>
	<g>
		<g>
			<path class="st10" d="M187.3,195.9l15.4-176.4c13.6,1.2,26.3,3.8,39.3,8L187.3,195.9z"/>
			<path class="st10" d="M186.9,197.7l15.6-178.4l0.2,0c13.7,1.2,26.2,3.7,39.3,8l0.2,0.1l-0.1,0.2L186.9,197.7z M202.9,19.7
				l-15.3,174.5l54.1-166.6C228.8,23.4,216.5,20.9,202.9,19.7z"/>
		</g>
	</g>
</g>
<g>
	<g>
		<g>
			<path class="st11" d="M187.3,195.9V18.8c5.9,0,9.6,0.2,15.4,0.7L187.3,195.9z"/>
			<path class="st11" d="M187.5,195.9l-0.4,0V18.6h0.2c5.9,0,9.6,0.2,15.5,0.7l0.2,0l0,0.2L187.5,195.9z M187.5,19v172.3l15-171.6
				C196.9,19.2,193.2,19,187.5,19z"/>
		</g>
	</g>
</g>
<g>
	<g>
		<g>
			<path class="st0" d="M187.3,195.8L247,12.3c24.7,8,44.5,19,64.4,35.7L187.3,195.8z"/>
			<path class="st0" d="M186.8,196.9l60-184.8l0.2,0.1c24.7,8,44.6,19,64.5,35.7l0.2,0.1L186.8,196.9z M247.1,12.6l-59.2,182.2
				L311,48.1C291.3,31.5,271.6,20.6,247.1,12.6z"/>
		</g>
	</g>
</g>
<g>
	<path class="st0" d="M271.8,127.3l-2.5,0.2c-0.2-1-0.5-1.7-1-2.2c-0.7-0.7-1.5-1.1-2.5-1.1c-0.8,0-1.5,0.2-2.1,0.7
		c-0.8,0.6-1.4,1.4-1.9,2.6c-0.5,1.1-0.7,2.7-0.7,4.8c0.6-0.9,1.4-1.6,2.2-2.1c0.9-0.5,1.8-0.7,2.8-0.7c1.7,0,3.1,0.6,4.3,1.9
		c1.2,1.2,1.8,2.9,1.8,4.8c0,1.3-0.3,2.5-0.8,3.6c-0.6,1.1-1.3,2-2.3,2.6c-1,0.6-2.1,0.9-3.3,0.9c-2.1,0-3.8-0.8-5.2-2.3
		c-1.3-1.6-2-4.1-2-7.7c0-4,0.7-6.9,2.2-8.7c1.3-1.6,3-2.4,5.2-2.4c1.6,0,3,0.5,4,1.4C271,124.5,271.6,125.7,271.8,127.3z
		 M261.4,136.2c0,0.9,0.2,1.7,0.6,2.5s0.9,1.4,1.6,1.8s1.4,0.6,2.1,0.6c1.1,0,2-0.4,2.8-1.3c0.8-0.9,1.2-2,1.2-3.5
		c0-1.4-0.4-2.6-1.1-3.4s-1.7-1.2-2.9-1.2c-1.1,0-2.1,0.4-2.9,1.2C261.8,133.8,261.4,134.9,261.4,136.2z"/>
	<path class="st0" d="M276.1,142.9V140h2.9v2.9H276.1z"/>
	<path class="st0" d="M292.3,142.9h-2.5v-16.2c-0.6,0.6-1.4,1.2-2.4,1.7c-1,0.6-1.9,1-2.7,1.3v-2.5c1.4-0.7,2.7-1.5,3.7-2.4
		s1.8-1.9,2.3-2.8h1.6V142.9z"/>
	<path class="st0" d="M298.5,134c0-0.8,0.2-1.5,0.6-2.1c0.4-0.6,1-0.9,1.8-0.9c0.7,0,1.3,0.3,1.8,0.8c0.5,0.5,0.7,1.3,0.7,2.3
		c0,1-0.2,1.8-0.7,2.3c-0.5,0.5-1.1,0.8-1.8,0.8c-0.7,0-1.3-0.3-1.8-0.8C298.7,135.9,298.5,135.1,298.5,134z M301,132
		c-0.4,0-0.7,0.2-0.9,0.5c-0.2,0.3-0.4,0.9-0.4,1.7c0,0.8,0.1,1.3,0.4,1.6c0.2,0.3,0.5,0.5,0.9,0.5c0.4,0,0.7-0.2,0.9-0.5
		c0.2-0.3,0.4-0.9,0.4-1.7c0-0.8-0.1-1.3-0.4-1.6C301.7,132.2,301.4,132,301,132z M301,143.3l6.4-12.3h1.2l-6.4,12.3H301z
		 M306.1,140.2c0-0.8,0.2-1.6,0.6-2.1c0.4-0.6,1-0.9,1.8-0.9c0.7,0,1.3,0.3,1.8,0.8s0.7,1.3,0.7,2.3c0,1-0.2,1.8-0.7,2.3
		c-0.5,0.5-1.1,0.8-1.8,0.8c-0.7,0-1.3-0.3-1.8-0.8C306.3,142,306.1,141.2,306.1,140.2z M308.6,138.1c-0.4,0-0.7,0.2-0.9,0.5
		c-0.2,0.3-0.4,0.9-0.4,1.7c0,0.7,0.1,1.3,0.4,1.6s0.5,0.5,0.9,0.5c0.4,0,0.7-0.2,0.9-0.5c0.2-0.3,0.4-0.9,0.4-1.7
		c0-0.8-0.1-1.3-0.4-1.6C309.2,138.3,308.9,138.1,308.6,138.1z"/>
	<path class="st0" d="M261,160.3c-0.2,2-0.6,3.9-1.2,5.6l-1-0.4c0.6-1.4,1-3.2,1.3-5.4L261,160.3z M265,159h-2.3v9.9h-1V159h-2.8v-1
		h2.8v-6.6h1v6.6h2.3V159z M261.1,156.3l-1,0.4c-0.2-1-0.5-2.1-1-3.4l0.9-0.4C260.3,153.7,260.7,154.9,261.1,156.3z M265.5,153.2
		c-0.2,1-0.5,2.2-1.1,3.7l-1-0.4c0.5-1,0.9-2.2,1.1-3.7L265.5,153.2z M265.8,164l-1,0.5c-0.3-1.3-0.7-2.5-1.3-3.9l0.9-0.5
		C265,161.4,265.5,162.7,265.8,164z M275.3,167.6c0,0.4-0.2,0.8-0.5,1s-1,0.3-2,0.3c-0.3,0-0.7,0-1.1,0l-0.3-1c0.5,0,1.1,0,1.7,0
		c0.5,0,0.8,0,0.9-0.1s0.2-0.2,0.2-0.4v-1.6h-6.9c-0.4,1.3-0.9,2.3-1.7,3.2l-0.9-0.7c1.2-1.2,1.8-3,1.8-5.4v-3h8.7V167.6z
		 M276.3,158.6h-10.5v-1h4.7v-1.4h-4v-0.9h4v-1.4h-4.3v-1h4.3v-1.5h1v1.5h4.3v1h-4.3v1.4h3.9v0.9h-3.9v1.4h4.7V158.6z M274.3,164.7
		v-1.5h-6.7c0,0.5,0,1-0.1,1.5H274.3z M274.3,162.2v-1.5h-6.7v1.5H274.3z"/>
	<path class="st0" d="M285.7,162.3l-0.8,0.7c-0.7-1.1-1.3-2-2.1-2.9v8.8h-1v-7.8c-0.8,0.9-1.6,1.7-2.4,2.3l-0.7-0.7
		c2.3-1.9,4-4.1,5.2-6.6h-4.8v-1h5.9v1c-0.5,1.1-1,2.1-1.7,3.1C284.2,160.1,285,161.2,285.7,162.3z M283.4,154.1l-0.9,0.5
		c-0.5-0.9-1.1-1.9-1.8-2.9l0.9-0.4C282.5,152.5,283.1,153.4,283.4,154.1z M295.6,164.5h-4.1v4.4h-1.1v-4.4h-4.1v-10h4.1v-3h1.1v3
		h4.1V164.5z M290.4,159v-3.5h-3v3.5H290.4z M290.4,163.5V160h-3v3.5H290.4z M294.6,159v-3.5h-3.1v3.5H294.6z M294.6,163.5V160h-3.1
		v3.5H294.6z"/>
	<path class="st0" d="M316,155.2c-0.3,1.3-0.7,2.4-1.2,3.3l-1-0.3c0.3-0.6,0.6-1.3,0.8-2h-7.6v1.7l5.6-0.3l0,1l-5.6,0.3v0.9
		c0,0.3,0.1,0.5,0.4,0.5h6.9v0.9h-7.3c-0.3,0-0.6-0.1-0.8-0.3s-0.3-0.5-0.3-0.8v-1.1l-3.4,0.2v-0.9l3.4-0.2v-1.7h-4.3v3.9
		c0,3.8-0.7,6.7-2.1,8.8l-0.9-0.6c1.3-2,1.9-4.6,1.9-7.8v-5.3h6.5v-3.8h1v1.4h6.7v0.9h-6.7v1.4H316z M316,165.8h-11.1v1.7h10.2v0.9
		h-11.2v-2.7H302v-0.9h1.9v-2.5h11.2v0.9h-10.2v1.6H316V165.8z"/>
	<path class="st0" d="M324.3,155.9c-0.6,1.2-1.2,2.3-1.9,3.1v9.9h-1v-8.5c-0.8,0.9-1.5,1.6-2.2,2.1l-0.5-1c1.9-1.6,3.4-3.6,4.7-6
		L324.3,155.9z M323.5,151.7c-1.1,1.8-2.5,3.3-4.1,4.6l-0.6-0.8c1.3-1,2.6-2.4,3.8-4.2L323.5,151.7z M336.2,162.4h-2.4v4.9
		c0,0.4-0.1,0.8-0.3,1.1c-0.2,0.3-0.4,0.4-0.7,0.5c-0.3,0.1-0.8,0.1-1.6,0.1c-0.3,0-0.7,0-1,0l-0.4-1.1c0.8,0.1,1.6,0.1,2.3,0.1
		c0.2,0,0.3-0.1,0.5-0.2c0.1-0.1,0.2-0.3,0.2-0.5v-4.8h-8.9v-1h8.9v-1.9h1.1v1.9h2.4V162.4z M336,154.7h-5.5v3h4.8v1h-10.4v-1h4.6
		v-3h-5.1v-1h5.1v-2.2h1.1v2.2h5.5V154.7z M329.1,166.3l-0.9,0.6c-0.5-0.7-1.3-1.7-2.6-3l0.8-0.6
		C327.6,164.3,328.5,165.3,329.1,166.3z"/>
</g>
</svg>
