<?xml version="1.0" encoding="utf-8"?>
<!-- Generator: Adobe Illustrator 19.1.0, SVG Export Plug-In . SVG Version: 6.00 Build 0)  -->
<svg version="1.1" id="圖層_1" xmlns="http://www.w3.org/2000/svg" xmlns:xlink="http://www.w3.org/1999/xlink" x="0px" y="0px"
	 viewBox="0 0 880 425" style="enable-background:new 0 0 880 425;" xml:space="preserve">
<style type="text/css">
	.st0{fill:#B81C25;}
	.st1{fill:none;stroke:#C9CACA;stroke-miterlimit:10;}
	.st2{fill:#231815;}
	.st3{fill:#595757;}
	.st4{fill:none;stroke:#898989;stroke-miterlimit:10;}
	.st5{fill:none;stroke:#B81C25;stroke-miterlimit:10;}
	.st6{fill:#9FA0A0;stroke:#FFFFFF;stroke-miterlimit:10;}
	.st7{fill:#B5B5B6;stroke:#FFFFFF;stroke-miterlimit:10;}
	.st8{fill:#C9CACA;stroke:#FFFFFF;stroke-miterlimit:10;}
	.st9{fill:#DCDDDD;stroke:#FFFFFF;stroke-miterlimit:10;}
	.st10{fill:#EFEFEF;stroke:#FFFFFF;stroke-miterlimit:10;}
	.st11{fill:#F7F8F8;stroke:#FFFFFF;stroke-miterlimit:10;}
	.st12{fill:#F7F8F8;}
	.st13{fill:#EFEFEF;}
	.st14{fill:#DCDDDD;}
	.st15{fill:#C9CACA;}
	.st16{fill:#B5B5B6;}
	.st17{fill:#9FA0A0;}
	.st18{fill:#898989;}
	.st19{fill:none;stroke:#898989;stroke-width:0.5;stroke-miterlimit:10;}
</style>
<g>
	<path class="st0" d="M464.1,32.7c-1.3-0.7-2.7-1-4.1-1c-2.3,0-4.1,1-5.4,3c-1.3,2-2,4.7-2,8.1h0.1c1.2-2.4,3.1-3.6,5.7-3.6
		c2.2,0,3.9,0.7,5.2,2.1c1.3,1.4,2,3.3,2,5.6c0,2.4-0.7,4.4-2.2,5.9s-3.3,2.4-5.6,2.4c-2.6,0-4.6-1-6-3.1c-1.4-2-2-4.8-2-8.4
		c0-4.2,0.9-7.7,2.7-10.4s4.3-4.1,7.5-4.1c1.7,0,3.1,0.2,4.1,0.7V32.7z M452.8,46.7c0,1.8,0.5,3.3,1.4,4.5c0.9,1.2,2.2,1.8,3.7,1.8
		c1.5,0,2.7-0.5,3.6-1.6c0.9-1.1,1.4-2.4,1.4-4.1c0-1.8-0.4-3.2-1.3-4.3c-0.9-1-2.1-1.5-3.6-1.5c-1.4,0-2.6,0.5-3.6,1.5
		C453.3,44.1,452.8,45.3,452.8,46.7z"/>
	<path class="st0" d="M469,53.4c0-0.5,0.2-1,0.6-1.4c0.4-0.4,0.8-0.6,1.3-0.6c0.5,0,1,0.2,1.3,0.6c0.4,0.4,0.6,0.8,0.6,1.4
		c0,0.5-0.2,1-0.6,1.3c-0.4,0.4-0.8,0.6-1.3,0.6c-0.5,0-0.9-0.2-1.3-0.5C469.2,54.4,469,54,469,53.4z"/>
	<path class="st0" d="M491.8,54.9h-14.1v-2.4h5.7V32.8l-5.8,1.8V32l8.5-2.7v23.2h5.7V54.9z"/>
	<path class="st0" d="M494.7,44.3c0-1.2,0.3-2.1,0.9-2.8s1.4-1,2.5-1c1,0,1.8,0.3,2.3,0.9c0.6,0.6,0.8,1.5,0.8,2.6
		c0,1.1-0.3,2-0.9,2.7c-0.6,0.7-1.4,1-2.5,1c-1,0-1.8-0.3-2.3-1C495,46.2,494.7,45.4,494.7,44.3z M496,44.2c0,0.8,0.2,1.4,0.5,1.9
		s0.9,0.7,1.5,0.7c0.6,0,1.1-0.2,1.5-0.7s0.5-1.1,0.5-1.9c0-0.8-0.2-1.5-0.5-1.9c-0.4-0.5-0.8-0.7-1.5-0.7c-0.6,0-1.1,0.2-1.5,0.7
		C496.1,42.8,496,43.4,496,44.2z M507.3,40.7L498.2,55h-1.4l9.1-14.3H507.3z M503.1,51.6c0-1.2,0.3-2.1,0.9-2.8c0.6-0.7,1.4-1,2.5-1
		c1,0,1.8,0.3,2.3,1s0.8,1.5,0.8,2.7c0,1.1-0.3,2-0.9,2.7s-1.4,1-2.4,1c-1,0-1.7-0.3-2.3-1C503.4,53.5,503.1,52.7,503.1,51.6z
		 M504.4,51.5c0,0.8,0.2,1.4,0.6,1.9c0.4,0.5,0.9,0.7,1.5,0.7c0.6,0,1.1-0.2,1.5-0.7c0.4-0.5,0.5-1.1,0.5-1.9s-0.2-1.5-0.5-1.9
		s-0.8-0.7-1.4-0.7c-0.6,0-1.2,0.2-1.5,0.7C504.6,50.1,504.4,50.7,504.4,51.5z"/>
	<path class="st0" d="M519.2,46.2c-0.3,2.3-0.7,4.4-1.4,6.4l-1.2-0.5c0.7-1.6,1.2-3.7,1.4-6.2L519.2,46.2z M523.9,44.7h-2.6v11.4
		h-1.2V44.7h-3.2v-1.2h3.2V36h1.2v7.6h2.6V44.7z M519.3,41.6l-1.1,0.5c-0.2-1.1-0.6-2.4-1.2-4l1-0.5C518.4,38.6,518.9,40,519.3,41.6
		z M524.4,38c-0.2,1.1-0.6,2.5-1.3,4.3l-1.1-0.5c0.5-1.2,1-2.6,1.3-4.2L524.4,38z M524.7,50.4l-1.1,0.6c-0.3-1.4-0.8-2.9-1.4-4.5
		l1-0.5C523.8,47.5,524.4,48.9,524.7,50.4z M535.7,54.5c0,0.5-0.2,0.9-0.6,1.1c-0.4,0.3-1.1,0.4-2.3,0.4c-0.4,0-0.8,0-1.2,0
		l-0.4-1.2c0.6,0,1.2,0.1,2,0.1c0.5,0,0.9-0.1,1-0.2c0.2-0.1,0.2-0.2,0.2-0.4v-1.8h-8c-0.4,1.5-1.1,2.7-1.9,3.6l-1-0.8
		c1.4-1.4,2.1-3.5,2.1-6.2v-3.5h10V54.5z M536.8,44.2h-12.1v-1.1h5.4v-1.6h-4.6v-1.1h4.6v-1.6h-4.9v-1.1h4.9V36h1.2v1.8h5v1.1h-5
		v1.6h4.5v1.1h-4.5v1.6h5.4V44.2z M534.5,51.3v-1.7h-7.7c0,0.5,0,1.1-0.1,1.7H534.5z M534.5,48.4v-1.7h-7.7v1.7H534.5z"/>
	<path class="st0" d="M547.6,48.5l-0.9,0.8c-0.7-1.3-1.5-2.4-2.4-3.3v10.1h-1.2v-8.9c-1,1.1-1.9,2-2.8,2.7l-0.8-0.8
		c2.7-2.2,4.6-4.8,5.9-7.6H540v-1.2h6.8v1.2c-0.5,1.3-1.2,2.4-2,3.5C545.8,46,546.8,47.2,547.6,48.5z M545,39.1l-1.1,0.5
		c-0.5-1.1-1.2-2.2-2-3.3l1.1-0.5C543.9,37.2,544.6,38.3,545,39.1z M559,51h-4.8v5.1H553V51h-4.7V39.5h4.7v-3.5h1.2v3.5h4.8V51z
		 M553,44.7v-4h-3.5v4H553z M553,49.8v-4h-3.5v4H553z M557.8,44.7v-4h-3.6v4H557.8z M557.8,49.8v-4h-3.6v4H557.8z"/>
	<path class="st0" d="M582.4,40.4c-0.4,1.5-0.8,2.8-1.3,3.8l-1.1-0.4c0.3-0.7,0.7-1.5,1-2.3h-8.7v1.9l6.4-0.4l0.1,1.1l-6.5,0.3v1.1
		c0,0.4,0.2,0.6,0.5,0.6h7.9v1h-8.3c-0.3,0-0.6-0.1-0.9-0.4c-0.3-0.3-0.4-0.6-0.4-0.9v-1.3l-3.9,0.2v-1.1l3.9-0.2v-2h-5V46
		c0,4.3-0.8,7.7-2.4,10.1l-1-0.7c1.5-2.3,2.2-5.3,2.2-9v-6h7.5V36h1.2v1.7h7.7v1h-7.7v1.7H582.4z M582.4,52.5h-12.7v2h11.7v1.1
		h-12.9v-3.1h-2.1v-1h2.1v-2.9h12.9v1h-11.7v1.8h12.7V52.5z"/>
	<path class="st0" d="M591.9,41.1c-0.7,1.4-1.4,2.6-2.1,3.6V56h-1.2v-9.8c-0.9,1-1.7,1.8-2.5,2.4l-0.6-1.1c2.2-1.8,3.9-4.1,5.4-6.9
		L591.9,41.1z M591,36.3c-1.2,2-2.8,3.8-4.7,5.3l-0.7-1c1.5-1.2,2.9-2.8,4.3-4.8L591,36.3z M605.6,48.6h-2.7v5.6
		c0,0.5-0.1,0.9-0.3,1.2c-0.2,0.3-0.5,0.5-0.8,0.6c-0.3,0.1-1,0.1-1.9,0.1c-0.4,0-0.8,0-1.2,0l-0.4-1.2c0.9,0.1,1.8,0.1,2.7,0.1
		c0.2,0,0.4-0.1,0.5-0.3c0.2-0.2,0.2-0.4,0.2-0.6v-5.5h-10.2v-1.2h10.2v-2.2h1.2v2.2h2.7V48.6z M605.5,39.7h-6.3v3.4h5.5v1.2h-12
		v-1.2h5.3v-3.4h-5.9v-1.1h5.9v-2.5h1.2v2.5h6.3V39.7z M597.5,53.1l-1,0.7c-0.5-0.8-1.5-2-3-3.5l0.9-0.7
		C595.7,50.8,596.7,52,597.5,53.1z"/>
</g>
<g>
	<path class="st3" d="M602.9,336.2v1.8h-10.2c0-0.5,0.1-0.9,0.2-1.3c0.3-0.7,0.7-1.4,1.2-2.1s1.4-1.5,2.5-2.3
		c1.7-1.4,2.8-2.5,3.4-3.3c0.6-0.8,0.9-1.6,0.9-2.3c0-0.8-0.3-1.4-0.8-1.9c-0.5-0.5-1.2-0.8-2.1-0.8c-0.9,0-1.6,0.3-2.2,0.8
		s-0.8,1.3-0.8,2.3L593,327c0.1-1.5,0.6-2.6,1.5-3.3c0.9-0.8,2-1.1,3.5-1.1c1.5,0,2.7,0.4,3.5,1.2c0.9,0.8,1.3,1.8,1.3,3.1
		c0,0.6-0.1,1.2-0.4,1.8c-0.3,0.6-0.7,1.2-1.3,1.9c-0.6,0.7-1.6,1.6-2.9,2.7c-1.1,1-1.9,1.6-2.2,1.9c-0.3,0.3-0.6,0.7-0.8,1H602.9z"
		/>
	<path class="st3" d="M604.9,330.4c0-1.8,0.2-3.3,0.6-4.4c0.4-1.1,0.9-2,1.7-2.6c0.7-0.6,1.7-0.9,2.8-0.9c0.8,0,1.6,0.2,2.2,0.5
		c0.6,0.3,1.1,0.8,1.5,1.4c0.4,0.6,0.7,1.4,1,2.3s0.3,2.1,0.3,3.6c0,1.8-0.2,3.3-0.6,4.4c-0.4,1.1-0.9,2-1.7,2.6
		c-0.7,0.6-1.7,0.9-2.8,0.9c-1.5,0-2.7-0.5-3.5-1.6C605.4,335.4,604.9,333.3,604.9,330.4z M606.8,330.4c0,2.5,0.3,4.2,0.9,5.1
		c0.6,0.8,1.3,1.3,2.2,1.3s1.6-0.4,2.2-1.3c0.6-0.8,0.9-2.5,0.9-5.1c0-2.5-0.3-4.2-0.9-5.1c-0.6-0.8-1.3-1.3-2.2-1.3
		c-0.9,0-1.6,0.4-2.1,1.1C607.2,326.1,606.8,327.9,606.8,330.4z"/>
	<path class="st3" d="M618,338v-2.2h2.2v2.2H618z"/>
	<path class="st3" d="M632.7,326.4l-1.9,0.1c-0.2-0.7-0.4-1.3-0.7-1.6c-0.5-0.5-1.1-0.8-1.9-0.8c-0.6,0-1.1,0.2-1.6,0.5
		c-0.6,0.4-1.1,1.1-1.4,1.9c-0.3,0.8-0.5,2-0.5,3.6c0.5-0.7,1-1.2,1.7-1.5c0.7-0.3,1.4-0.5,2.1-0.5c1.3,0,2.3,0.5,3.2,1.4
		c0.9,0.9,1.3,2.1,1.3,3.6c0,1-0.2,1.9-0.6,2.7c-0.4,0.8-1,1.5-1.7,1.9s-1.6,0.7-2.5,0.7c-1.6,0-2.9-0.6-3.9-1.7
		c-1-1.2-1.5-3.1-1.5-5.7c0-3,0.5-5.1,1.7-6.5c1-1.2,2.3-1.8,3.9-1.8c1.2,0,2.2,0.3,3,1C632.1,324.2,632.5,325.2,632.7,326.4z
		 M625,333c0,0.7,0.1,1.3,0.4,1.9c0.3,0.6,0.7,1.1,1.2,1.4c0.5,0.3,1,0.5,1.6,0.5c0.8,0,1.5-0.3,2.1-1s0.9-1.5,0.9-2.6
		c0-1.1-0.3-1.9-0.9-2.5c-0.6-0.6-1.3-0.9-2.1-0.9c-0.9,0-1.6,0.3-2.2,0.9C625.3,331.2,625,332,625,333z"/>
	<path class="st3" d="M635.2,326.3c0-1.1,0.3-2,0.8-2.8c0.6-0.8,1.4-1.2,2.4-1.2c1,0,1.8,0.3,2.4,1c0.6,0.7,1,1.7,1,3
		c0,1.3-0.3,2.3-1,3s-1.4,1.1-2.4,1.1c-0.9,0-1.7-0.3-2.3-1C635.5,328.7,635.2,327.7,635.2,326.3z M638.5,323.6
		c-0.5,0-0.9,0.2-1.2,0.6c-0.3,0.4-0.5,1.2-0.5,2.2c0,1,0.2,1.7,0.5,2.1c0.3,0.4,0.7,0.6,1.2,0.6c0.5,0,0.9-0.2,1.2-0.6
		c0.3-0.4,0.5-1.2,0.5-2.2c0-1-0.2-1.7-0.5-2.1C639.4,323.8,639,323.6,638.5,323.6z M638.5,338.6l8.4-16.3h1.5l-8.4,16.3H638.5z
		 M645.2,334.4c0-1.1,0.3-2,0.8-2.8c0.6-0.8,1.4-1.2,2.4-1.2c1,0,1.8,0.3,2.4,1s1,1.7,1,3c0,1.3-0.3,2.3-1,3s-1.4,1.1-2.4,1.1
		c-0.9,0-1.7-0.3-2.3-1C645.5,336.8,645.2,335.8,645.2,334.4z M648.5,331.7c-0.5,0-0.9,0.2-1.2,0.6c-0.3,0.4-0.5,1.2-0.5,2.2
		c0,1,0.2,1.7,0.5,2.1s0.7,0.6,1.2,0.6c0.5,0,0.9-0.2,1.2-0.6s0.5-1.2,0.5-2.2c0-1-0.2-1.7-0.5-2.1
		C649.4,331.9,649,331.7,648.5,331.7z"/>
</g>
<g>
	<g>
		<path class="st3" d="M602.1,194.3h-8.9v-1.5h3.6v-12.5l-3.7,1.1v-1.7l5.4-1.7v14.7h3.6V194.3z"/>
		<path class="st3" d="M604.6,193.3c0-0.3,0.1-0.6,0.4-0.9c0.2-0.2,0.5-0.4,0.8-0.4c0.3,0,0.6,0.1,0.8,0.4c0.2,0.2,0.3,0.5,0.3,0.9
			c0,0.3-0.1,0.6-0.4,0.8c-0.2,0.2-0.5,0.4-0.8,0.4c-0.3,0-0.6-0.1-0.8-0.3C604.7,194,604.6,193.7,604.6,193.3z"/>
		<path class="st3" d="M610,192c1.1,0.7,2.2,1.1,3.3,1.1s2-0.3,2.7-1c0.7-0.6,1.1-1.5,1.1-2.6c0-1.1-0.4-1.9-1.1-2.5s-1.7-0.9-3-0.9
			c-0.4,0-1.2,0-2.5,0.1v-7.9h7.6v1.6h-6v4.8c0.6,0,1-0.1,1.4-0.1c1.7,0,3,0.4,3.9,1.3c0.9,0.8,1.4,2,1.4,3.5c0,1.6-0.5,2.8-1.5,3.7
			c-1,0.9-2.4,1.4-4,1.4c-1.5,0-2.5-0.2-3.3-0.7V192z"/>
		<path class="st3" d="M621.2,182.4c0-1.3,0.3-2.3,1-3.1c0.7-0.8,1.6-1.1,2.8-1.1c1.1,0,2,0.4,2.6,1.1c0.6,0.7,0.9,1.7,0.9,2.9
			c0,1.2-0.3,2.3-1,3c-0.7,0.8-1.6,1.2-2.7,1.2c-1.1,0-2-0.4-2.6-1.1C621.6,184.5,621.2,183.6,621.2,182.4z M622.7,182.3
			c0,0.9,0.2,1.6,0.6,2.1c0.4,0.5,1,0.8,1.7,0.8c0.7,0,1.3-0.3,1.7-0.8c0.4-0.5,0.6-1.2,0.6-2.2c0-0.9-0.2-1.6-0.6-2.1
			c-0.4-0.5-0.9-0.8-1.6-0.8c-0.7,0-1.3,0.3-1.7,0.8S622.7,181.4,622.7,182.3z M635.4,178.4l-10.2,16h-1.5l10.2-16H635.4z
			 M630.7,190.6c0-1.3,0.3-2.3,1-3.1c0.7-0.8,1.6-1.2,2.8-1.2c1.1,0,2,0.4,2.6,1.1s0.9,1.7,0.9,3c0,1.3-0.4,2.3-1.1,3
			c-0.7,0.8-1.6,1.1-2.7,1.1c-1.1,0-1.9-0.4-2.6-1.1C631,192.7,630.7,191.8,630.7,190.6z M632.1,190.5c0,0.9,0.2,1.6,0.6,2.1
			c0.4,0.5,1,0.8,1.6,0.8c0.7,0,1.3-0.3,1.7-0.8c0.4-0.5,0.6-1.3,0.6-2.2s-0.2-1.6-0.6-2.1s-0.9-0.7-1.6-0.7c-0.7,0-1.3,0.3-1.7,0.8
			C632.3,188.8,632.1,189.6,632.1,190.5z"/>
	</g>
</g>
<g>
	<g>
		<path class="st3" d="M602.1,304.1h-8.9v-1.5h3.6V290l-3.7,1.1v-1.7l5.4-1.7v14.7h3.6V304.1z"/>
		<path class="st3" d="M614.7,299.8h-2.1v4.3H611v-4.3h-7.5v-1.1l7.1-10.5h2.1v10.2h2.1V299.8z M611,298.4v-7c0-0.5,0-1,0-1.7h0
			c-0.1,0.2-0.3,0.6-0.6,1.2l-5,7.4H611z"/>
		<path class="st3" d="M616.8,303.1c0-0.3,0.1-0.6,0.4-0.9c0.2-0.2,0.5-0.4,0.8-0.4c0.3,0,0.6,0.1,0.8,0.4c0.2,0.2,0.3,0.5,0.3,0.9
			c0,0.3-0.1,0.6-0.4,0.8c-0.2,0.2-0.5,0.4-0.8,0.4c-0.3,0-0.6-0.1-0.8-0.3C616.9,303.7,616.8,303.5,616.8,303.1z"/>
		<path class="st3" d="M630.9,304.1h-9.5v-1.5l4.6-4.7c1.5-1.5,2.5-2.7,2.8-3.4c0.4-0.7,0.5-1.4,0.5-2.2c0-0.9-0.3-1.7-0.8-2.2
			c-0.5-0.5-1.3-0.8-2.3-0.8c-1.4,0-2.8,0.6-4.1,1.8v-1.8c1.2-1,2.7-1.5,4.3-1.5c1.4,0,2.5,0.4,3.3,1.1c0.8,0.8,1.2,1.8,1.2,3.1
			c0,1-0.3,2-0.8,2.9c-0.5,1-1.6,2.2-3.1,3.7l-3.7,3.7v0h7.5V304.1z"/>
		<path class="st3" d="M633.4,292.2c0-1.3,0.3-2.3,1-3.1c0.7-0.8,1.6-1.1,2.8-1.1c1.1,0,2,0.4,2.6,1.1c0.6,0.7,0.9,1.7,0.9,2.9
			c0,1.2-0.3,2.3-1,3c-0.7,0.8-1.6,1.2-2.7,1.2c-1.1,0-2-0.4-2.6-1.1C633.7,294.3,633.4,293.4,633.4,292.2z M634.8,292.1
			c0,0.9,0.2,1.6,0.6,2.1c0.4,0.5,1,0.8,1.7,0.8c0.7,0,1.3-0.3,1.7-0.8c0.4-0.5,0.6-1.2,0.6-2.2c0-0.9-0.2-1.6-0.6-2.1
			c-0.4-0.5-0.9-0.8-1.6-0.8c-0.7,0-1.3,0.3-1.7,0.8S634.8,291.2,634.8,292.1z M647.6,288.2l-10.2,16h-1.5l10.2-16H647.6z
			 M642.9,300.3c0-1.3,0.3-2.3,1-3.1c0.7-0.8,1.6-1.2,2.8-1.2c1.1,0,2,0.4,2.6,1.1s0.9,1.7,0.9,3c0,1.3-0.4,2.3-1.1,3
			c-0.7,0.8-1.6,1.1-2.7,1.1c-1.1,0-1.9-0.4-2.6-1.1C643.2,302.5,642.9,301.5,642.9,300.3z M644.3,300.3c0,0.9,0.2,1.6,0.6,2.1
			c0.4,0.5,1,0.8,1.6,0.8c0.7,0,1.3-0.3,1.7-0.8c0.4-0.5,0.6-1.3,0.6-2.2s-0.2-1.6-0.6-2.1s-0.9-0.7-1.6-0.7c-0.7,0-1.3,0.3-1.7,0.8
			C644.5,298.6,644.3,299.3,644.3,300.3z"/>
	</g>
</g>
<g>
	<g>
		<path class="st3" d="M602.1,268.7h-8.9v-1.5h3.6v-12.5l-3.7,1.1v-1.7l5.4-1.7v14.7h3.6V268.7z"/>
		<path class="st3" d="M604.8,266.2c1.1,0.9,2.3,1.3,3.7,1.3c1.1,0,2-0.3,2.7-0.8c0.7-0.6,1-1.3,1-2.3c0-2.1-1.5-3.2-4.5-3.2h-1.3
			v-1.5h1.3c2.7,0,4-1,4-3c0-1.8-1-2.8-3-2.8c-1.1,0-2.2,0.4-3.2,1.2v-1.7c1-0.6,2.2-0.9,3.6-0.9c1.3,0,2.3,0.3,3.1,1
			s1.2,1.6,1.2,2.7c0,2.1-1.1,3.4-3.2,4v0c1.1,0.1,2,0.5,2.7,1.2c0.7,0.7,1,1.6,1,2.6c0,1.4-0.5,2.6-1.6,3.5c-1,0.9-2.4,1.3-4,1.3
			c-1.5,0-2.7-0.3-3.6-0.9V266.2z"/>
		<path class="st3" d="M616.8,267.8c0-0.3,0.1-0.6,0.4-0.9c0.2-0.2,0.5-0.4,0.8-0.4c0.3,0,0.6,0.1,0.8,0.4c0.2,0.2,0.3,0.5,0.3,0.9
			c0,0.3-0.1,0.6-0.4,0.8c-0.2,0.2-0.5,0.4-0.8,0.4c-0.3,0-0.6-0.1-0.8-0.3C616.9,268.4,616.8,268.1,616.8,267.8z"/>
		<path class="st3" d="M630.9,268.7h-9.5v-1.5l4.6-4.7c1.5-1.5,2.5-2.7,2.8-3.4c0.4-0.7,0.5-1.4,0.5-2.2c0-0.9-0.3-1.7-0.8-2.2
			c-0.5-0.5-1.3-0.8-2.3-0.8c-1.4,0-2.8,0.6-4.1,1.8V254c1.2-1,2.7-1.5,4.3-1.5c1.4,0,2.5,0.4,3.3,1.1s1.2,1.8,1.2,3.1
			c0,1-0.3,2-0.8,2.9c-0.5,1-1.6,2.2-3.1,3.7l-3.7,3.7v0h7.5V268.7z"/>
		<path class="st3" d="M633.4,256.8c0-1.3,0.3-2.3,1-3.1c0.7-0.8,1.6-1.1,2.8-1.1c1.1,0,2,0.4,2.6,1.1c0.6,0.7,0.9,1.7,0.9,2.9
			c0,1.2-0.3,2.3-1,3c-0.7,0.8-1.6,1.2-2.7,1.2c-1.1,0-2-0.4-2.6-1.1C633.7,259,633.4,258,633.4,256.8z M634.8,256.7
			c0,0.9,0.2,1.6,0.6,2.1c0.4,0.5,1,0.8,1.7,0.8c0.7,0,1.3-0.3,1.7-0.8c0.4-0.5,0.6-1.2,0.6-2.2c0-0.9-0.2-1.6-0.6-2.1
			c-0.4-0.5-0.9-0.8-1.6-0.8c-0.7,0-1.3,0.3-1.7,0.8C635,255.1,634.8,255.8,634.8,256.7z M647.6,252.8l-10.2,16h-1.5l10.2-16H647.6z
			 M642.9,265c0-1.3,0.3-2.3,1-3.1c0.7-0.8,1.6-1.2,2.8-1.2c1.1,0,2,0.4,2.6,1.1s0.9,1.7,0.9,3c0,1.3-0.4,2.3-1.1,3
			c-0.7,0.8-1.6,1.1-2.7,1.1c-1.1,0-1.9-0.4-2.6-1.1C643.2,267.2,642.9,266.2,642.9,265z M644.3,264.9c0,0.9,0.2,1.6,0.6,2.1
			c0.4,0.5,1,0.8,1.6,0.8c0.7,0,1.3-0.3,1.7-0.8c0.4-0.5,0.6-1.3,0.6-2.2s-0.2-1.6-0.6-2.1c-0.4-0.5-0.9-0.7-1.6-0.7
			c-0.7,0-1.3,0.3-1.7,0.8C644.5,263.3,644.3,264,644.3,264.9z"/>
	</g>
</g>
<g>
	<g>
		<path class="st3" d="M602.6,370.4h-2.1v4.3h-1.7v-4.3h-7.5v-1.1l7.1-10.5h2.1V369h2.1V370.4z M598.8,369v-7c0-0.5,0-1,0-1.7h0
			c-0.1,0.2-0.3,0.6-0.6,1.2l-5,7.4H598.8z"/>
		<path class="st3" d="M614.2,374.7h-8.9v-1.5h3.6v-12.5l-3.7,1.1v-1.7l5.4-1.7v14.7h3.6V374.7z"/>
		<path class="st3" d="M616.8,373.8c0-0.3,0.1-0.6,0.4-0.9c0.2-0.2,0.5-0.4,0.8-0.4c0.3,0,0.6,0.1,0.8,0.4c0.2,0.2,0.3,0.5,0.3,0.9
			c0,0.3-0.1,0.6-0.4,0.8c-0.2,0.2-0.5,0.4-0.8,0.4c-0.3,0-0.6-0.1-0.8-0.3C616.9,374.4,616.8,374.1,616.8,373.8z"/>
		<path class="st3" d="M631.2,374.7h-8.9v-1.5h3.6v-12.5l-3.7,1.1v-1.7l5.4-1.7v14.7h3.6V374.7z"/>
		<path class="st3" d="M633.4,362.8c0-1.3,0.3-2.3,1-3.1c0.7-0.8,1.6-1.1,2.8-1.1c1.1,0,2,0.4,2.6,1.1c0.6,0.7,0.9,1.7,0.9,2.9
			c0,1.2-0.3,2.3-1,3c-0.7,0.8-1.6,1.2-2.7,1.2c-1.1,0-2-0.4-2.6-1.1C633.7,365,633.4,364,633.4,362.8z M634.8,362.7
			c0,0.9,0.2,1.6,0.6,2.1c0.4,0.5,1,0.8,1.7,0.8c0.7,0,1.3-0.3,1.7-0.8c0.4-0.5,0.6-1.2,0.6-2.2c0-0.9-0.2-1.6-0.6-2.1
			c-0.4-0.5-0.9-0.8-1.6-0.8c-0.7,0-1.3,0.3-1.7,0.8S634.8,361.8,634.8,362.7z M647.6,358.8l-10.2,16h-1.5l10.2-16H647.6z
			 M642.9,371c0-1.3,0.3-2.3,1-3.1c0.7-0.8,1.6-1.2,2.8-1.2c1.1,0,2,0.4,2.6,1.1s0.9,1.7,0.9,3c0,1.3-0.4,2.3-1.1,3
			c-0.7,0.8-1.6,1.1-2.7,1.1c-1.1,0-1.9-0.4-2.6-1.1C643.2,373.1,642.9,372.2,642.9,371z M644.3,370.9c0,0.9,0.2,1.6,0.6,2.1
			c0.4,0.5,1,0.8,1.6,0.8c0.7,0,1.3-0.3,1.7-0.8c0.4-0.5,0.6-1.3,0.6-2.2s-0.2-1.6-0.6-2.1s-0.9-0.7-1.6-0.7c-0.7,0-1.3,0.3-1.7,0.8
			C644.5,369.3,644.3,370,644.3,370.9z"/>
	</g>
</g>
<g>
	<g>
		<path class="st3" d="M592.6,227.1c1.1,0.9,2.3,1.3,3.7,1.3c1.1,0,2-0.3,2.7-0.8c0.7-0.6,1-1.3,1-2.3c0-2.1-1.5-3.2-4.5-3.2h-1.3
			v-1.5h1.3c2.7,0,4-1,4-3c0-1.8-1-2.8-3-2.8c-1.1,0-2.2,0.4-3.2,1.2v-1.7c1-0.6,2.2-0.9,3.6-0.9c1.3,0,2.3,0.3,3.1,1
			c0.8,0.7,1.2,1.6,1.2,2.7c0,2.1-1.1,3.4-3.2,4v0c1.1,0.1,2,0.5,2.7,1.2c0.7,0.7,1,1.6,1,2.6c0,1.4-0.5,2.6-1.6,3.5
			c-1,0.9-2.4,1.3-4,1.3c-1.5,0-2.7-0.3-3.6-0.9V227.1z"/>
		<path class="st3" d="M604.6,228.6c0-0.3,0.1-0.6,0.4-0.9c0.2-0.2,0.5-0.4,0.8-0.4c0.3,0,0.6,0.1,0.8,0.4c0.2,0.2,0.3,0.5,0.3,0.9
			c0,0.3-0.1,0.6-0.4,0.8c-0.2,0.2-0.5,0.4-0.8,0.4c-0.3,0-0.6-0.1-0.8-0.3C604.7,229.2,604.6,228.9,604.6,228.6z"/>
		<path class="st3" d="M610,227.3c1.1,0.7,2.2,1.1,3.3,1.1s2-0.3,2.7-1c0.7-0.6,1.1-1.5,1.1-2.6c0-1.1-0.4-1.9-1.1-2.5
			s-1.7-0.9-3-0.9c-0.4,0-1.2,0-2.5,0.1v-7.9h7.6v1.6h-6v4.8c0.6,0,1-0.1,1.4-0.1c1.7,0,3,0.4,3.9,1.3c0.9,0.8,1.4,2,1.4,3.5
			c0,1.6-0.5,2.8-1.5,3.7c-1,0.9-2.4,1.4-4,1.4c-1.5,0-2.5-0.2-3.3-0.7V227.3z"/>
		<path class="st3" d="M621.2,217.7c0-1.3,0.3-2.3,1-3.1c0.7-0.8,1.6-1.1,2.8-1.1c1.1,0,2,0.4,2.6,1.1c0.6,0.7,0.9,1.7,0.9,2.9
			c0,1.2-0.3,2.3-1,3c-0.7,0.8-1.6,1.2-2.7,1.2c-1.1,0-2-0.4-2.6-1.1C621.6,219.8,621.2,218.8,621.2,217.7z M622.7,217.6
			c0,0.9,0.2,1.6,0.6,2.1c0.4,0.5,1,0.8,1.7,0.8c0.7,0,1.3-0.3,1.7-0.8c0.4-0.5,0.6-1.2,0.6-2.2c0-0.9-0.2-1.6-0.6-2.1
			c-0.4-0.5-0.9-0.8-1.6-0.8c-0.7,0-1.3,0.3-1.7,0.8S622.7,216.7,622.7,217.6z M635.4,213.7l-10.2,16h-1.5l10.2-16H635.4z
			 M630.7,225.8c0-1.3,0.3-2.3,1-3.1c0.7-0.8,1.6-1.2,2.8-1.2c1.1,0,2,0.4,2.6,1.1s0.9,1.7,0.9,3c0,1.3-0.4,2.3-1.1,3
			c-0.7,0.8-1.6,1.1-2.7,1.1c-1.1,0-1.9-0.4-2.6-1.1C631,228,630.7,227,630.7,225.8z M632.1,225.7c0,0.9,0.2,1.6,0.6,2.1
			c0.4,0.5,1,0.8,1.6,0.8c0.7,0,1.3-0.3,1.7-0.8c0.4-0.5,0.6-1.3,0.6-2.2s-0.2-1.6-0.6-2.1s-0.9-0.7-1.6-0.7c-0.7,0-1.3,0.3-1.7,0.8
			C632.3,224.1,632.1,224.8,632.1,225.7z"/>
	</g>
</g>
<g>
	<g>
		<path class="st3" d="M686.9,194.9l-0.3,1h-7.9c-2.2,0-3.9-0.2-4.9-0.7c-1-0.5-1.7-1-2.2-1.7c-0.8,1.2-1.6,2.2-2.4,2.8l-0.8-0.8
			c1.8-1.4,3.1-3.6,3.8-6.6h-3.2v-1c1.2-1.6,2.2-3,3-4.4h-3.5v-1h4.7v1c-1,1.8-2,3.2-2.8,4.3h3v1c-0.2,1.1-0.6,2.3-1.2,3.6
			c0.4,0.8,1.1,1.4,2.1,1.8s2.4,0.6,4.4,0.6H686.9z M672.8,181.1l-0.8,0.7c-0.6-0.9-1.6-1.9-2.9-3l0.7-0.8
			C670.9,178.9,671.9,179.9,672.8,181.1z M686.7,184h-12.6v-0.9h5.8v-1.2h-4.6V179h4.6v-1h1v1h4.6v2.9h-4.6v1.2h5.8V184z
			 M685.2,191.4h-6.1l0.5,0.8c-1.5,0.8-3.2,1.3-4.9,1.7l-0.5-0.9c1.7-0.4,3.3-0.9,4.6-1.6h-3.5V185h9.8V191.4z M679.8,181v-1.1h-3.5
			v1.1H679.8z M684.2,186.8v-0.9h-7.7v0.9H684.2z M684.2,188.7v-1.1h-7.7v1.1H684.2z M684.2,190.6v-1.1h-7.7v1.1H684.2z M684.3,181
			v-1.1h-3.5v1.1H684.3z M686.6,193.2l-0.5,0.9c-1.2-0.5-2.8-0.9-4.8-1.3l0.5-0.9C683.8,192.3,685.4,192.7,686.6,193.2z"/>
		<path class="st3" d="M707.8,180.5h-4.6c1.3,1,2.4,1.9,3.3,2.8l-0.7,0.8c-0.2-0.2-0.5-0.5-0.9-1c-3.5,0.3-7.7,0.5-12.7,0.7l-0.4-1
			c1.4-0.6,2.7-1.4,3.7-2.3h-5.9v-1h7c0.6-0.5,1.2-1.1,1.7-1.8l1,0.6c-0.3,0.4-0.6,0.7-1.1,1.2h9.6V180.5z M707.8,186.6H705v2.8
			h-5.7v1.4h8.4v1h-8.4v4.4h-1.1v-4.4h-8.4v-1h8.4v-1.4h-5.7v-2.8h-2.9v-1h2.9v-1.1h1.1v1.1h4.6v-1.4h1.1v1.4h4.6v-1.5h1.1v1.5h2.8
			V186.6z M696.6,193.3c-1.6,1.1-3.5,2.1-5.9,2.9l-0.7-0.9c2.3-0.7,4.3-1.7,5.9-2.8L696.6,193.3z M698.2,188.5v-1.9h-4.6v1.9H698.2z
			 M703.8,182.3c-0.7-0.5-1.3-0.9-1.7-1.2l0.6-0.6h-5.6c-1.2,1-2.3,1.7-3.5,2.3C696.4,182.7,699.8,182.5,703.8,182.3z M703.9,188.5
			v-1.9h-4.6v1.9H703.9z M707.4,195.2l-0.6,0.8c-1.7-1-3.6-1.9-5.7-2.7l0.7-0.8C704.1,193.4,706,194.3,707.4,195.2z"/>
	</g>
</g>
<g>
	<g>
		<path class="st3" d="M687,295.6c-0.9,0.9-2,1.7-3,2.6v5.8c0,0.5-0.1,1-0.4,1.2c-0.3,0.3-0.7,0.4-1.4,0.5c-0.7,0-1.4,0.1-2.1,0.1
			c-0.4,0-0.9,0-1.3,0l-0.3-1.1c1,0,1.9,0.1,2.5,0.1c0.9,0,1.5,0,1.6-0.1c0.2-0.1,0.3-0.3,0.3-0.6V299c-2.8,2.4-7.5,4.5-13.9,6.4
			l-0.5-1c5.5-1.5,9.7-3.3,12.8-5.5c-4.2,0.6-8.3,1-12.2,1.3l-0.3-1.1c0.7,0,1.4,0,2.2-0.1v-9.7h2.7c0.8-0.8,1.4-1.5,1.7-2l1.3,0.3
			c-0.3,0.4-0.8,1-1.5,1.8h8.8v7.6c0.6-0.4,1.4-1.1,2.3-2L687,295.6z M682.9,292v-1.8h-10.8v1.8H682.9z M682.9,295.1v-1.9h-10.8v1.9
			H682.9z M682.9,297.6v-1.4h-10.8v2.6C674.9,298.7,678.5,298.3,682.9,297.6z"/>
		<path class="st3" d="M696,304.2c0,0.4-0.1,0.8-0.3,1.1c-0.2,0.3-0.6,0.4-1.2,0.4h-0.8l-0.3-1h1.3c0.1,0,0.1,0,0.2-0.1
			c0.1-0.1,0.1-0.1,0.1-0.2v-2.9c-1.2,0.7-2.2,1.1-2.8,1.4l-0.3-0.5c-0.4,1.4-0.8,2.5-1.4,3.3l-0.8-0.5c1-1.7,1.5-3.5,1.5-5.3v-4.2
			h4.8V304.2z M697.4,295.4h-1v-1.2h-5.6v1.2h-1v-2.2h1.1v-5.4h5.8v5.4h0.7V295.4z M695.6,290.5v-1.6h-3.8v4.4h1.3v-2.8H695.6z
			 M695,300.3v-3.6h-2.9v1.2c0.7,0.2,1.6,0.5,2.5,0.9l-0.5,0.9c-0.5-0.2-1.1-0.5-2.1-0.8c0,1.3-0.1,2.3-0.2,3
			C692.9,301.5,693.9,301,695,300.3z M695.6,293.2v-1.8h-1.5v1.8H695.6z M707.8,305.3h-10.5v-1h3.2c-0.1-0.6-0.4-1.4-0.8-2.2h-1
			v-3.5h8v3.5h-1.2c-0.3,0.9-0.6,1.6-0.9,2.2h3.3V305.3z M707.6,297.4h-10v-1h10V297.4z M707.2,295.1h-8.8v-6h2.6v-1.7h0.9v1.7h1.7
			v-1.7h0.9v1.7h2.6V295.1z M701,291.6V290h-1.7v1.6H701z M701,294.2v-1.7h-1.7v1.7H701z M705.6,301.2v-1.6h-5.9v1.6H705.6z
			 M704.2,302.1h-3.4l0.8,2.2h1.8C703.7,303.5,704,302.8,704.2,302.1z M703.6,291.6V290h-1.7v1.6H703.6z M703.6,294.2v-1.7h-1.7v1.7
			H703.6z M706.2,291.6V290h-1.7v1.6H706.2z M706.2,294.2v-1.7h-1.7v1.7H706.2z"/>
		<path class="st3" d="M728.5,291.4c-0.3,1.4-0.7,2.5-1.2,3.5l-1-0.3c0.3-0.6,0.6-1.3,0.9-2.1h-8v1.7l5.9-0.3l0.1,1l-5.9,0.3v1
			c0,0.4,0.2,0.5,0.5,0.5h7.3v0.9h-7.6c-0.3,0-0.6-0.1-0.8-0.3c-0.2-0.2-0.4-0.5-0.4-0.8v-1.2l-3.5,0.2v-1l3.5-0.2v-1.8h-4.5v4.1
			c0,3.9-0.7,7-2.2,9.2l-0.9-0.6c1.4-2.1,2-4.8,2-8.2v-5.5h6.9v-4h1.1v1.5h7v0.9h-7v1.5H728.5z M728.5,302.5h-11.6v1.8h10.7v1h-11.7
			v-2.8h-1.9v-0.9h1.9v-2.6h11.8v0.9h-10.7v1.7h11.6V302.5z"/>
		<path class="st3" d="M737.2,292c-0.6,1.3-1.3,2.4-1.9,3.3v10.4h-1.1v-9c-0.8,0.9-1.5,1.7-2.3,2.2l-0.5-1c2-1.6,3.6-3.7,4.9-6.3
			L737.2,292z M736.4,287.6c-1.1,1.8-2.6,3.5-4.3,4.9l-0.6-0.9c1.4-1.1,2.7-2.5,3.9-4.4L736.4,287.6z M749.8,298.9h-2.5v5.1
			c0,0.5-0.1,0.8-0.3,1.1c-0.2,0.3-0.5,0.4-0.8,0.5c-0.3,0.1-0.9,0.1-1.7,0.1c-0.3,0-0.7,0-1.1,0l-0.4-1.1c0.8,0.1,1.6,0.1,2.4,0.1
			c0.2,0,0.3-0.1,0.5-0.2c0.1-0.2,0.2-0.3,0.2-0.5v-5h-9.3v-1.1h9.3v-2h1.1v2h2.5V298.9z M749.6,290.8h-5.8v3.1h5v1.1h-10.9v-1.1
			h4.8v-3.1h-5.4v-1h5.4v-2.3h1.1v2.3h5.8V290.8z M742.3,303l-0.9,0.6c-0.5-0.7-1.4-1.8-2.7-3.2l0.9-0.6
			C740.7,300.9,741.6,302,742.3,303z"/>
	</g>
</g>
<g>
	<g>
		<path class="st3" d="M670.7,256.1c-0.2,2-0.6,3.7-1.1,5.1l-1.1-0.3c0.5-1.5,0.8-3.1,1-4.9L670.7,256.1z M675.1,258l-0.7,0.8
			c-0.6-0.7-1.1-1.3-1.7-1.8v12.7h-1.1v-18.4h1.1v4.3C673.6,256.4,674.4,257.1,675.1,258z M686.8,269.3h-12v-1.1h5.9v-5.5h-4.8v-1.1
			h4.8V257h-3c-0.5,1.4-1.1,2.6-1.8,3.6l-0.9-0.6c1.4-2.4,2.3-4.8,2.7-7.3l1.1,0.2c-0.2,1.1-0.4,2.1-0.7,2.9h2.7v-4.5h1.2v4.5h4.6
			v1.1h-4.6v4.6h4.1v1.1h-4.1v5.5h5V269.3z"/>
		<path class="st3" d="M707.5,255.4c-0.3,1.4-0.7,2.5-1.2,3.5l-1-0.3c0.3-0.6,0.6-1.3,0.9-2.1h-8v1.7l5.9-0.3l0.1,1l-5.9,0.3v1
			c0,0.4,0.2,0.5,0.5,0.5h7.2v0.9h-7.6c-0.3,0-0.6-0.1-0.8-0.3c-0.2-0.2-0.4-0.5-0.4-0.8v-1.2l-3.5,0.2v-1l3.5-0.2v-1.8h-4.5v4.1
			c0,3.9-0.7,7-2.2,9.2l-0.9-0.6c1.4-2.1,2-4.8,2-8.2v-5.5h6.9v-4h1.1v1.5h7v0.9h-7v1.5H707.5z M707.5,266.5h-11.6v1.8h10.7v1h-11.7
			v-2.8h-1.9v-0.9h1.9V263h11.8v0.9h-10.7v1.7h11.6V266.5z"/>
		<path class="st3" d="M716.2,256.1c-0.6,1.3-1.3,2.4-1.9,3.3v10.4h-1.1v-9c-0.8,0.9-1.5,1.7-2.3,2.2l-0.5-1c2-1.6,3.6-3.7,4.9-6.3
			L716.2,256.1z M715.4,251.7c-1.1,1.8-2.6,3.5-4.3,4.9l-0.6-0.9c1.4-1.1,2.7-2.5,3.9-4.4L715.4,251.7z M728.8,262.9h-2.5v5.1
			c0,0.5-0.1,0.8-0.3,1.1c-0.2,0.3-0.5,0.4-0.8,0.5c-0.3,0.1-0.9,0.1-1.7,0.1c-0.3,0-0.7,0-1.1,0l-0.4-1.1c0.8,0.1,1.6,0.1,2.4,0.1
			c0.2,0,0.3-0.1,0.5-0.2c0.1-0.2,0.2-0.3,0.2-0.5v-5h-9.3v-1.1h9.3v-2h1.1v2h2.5V262.9z M728.6,254.9h-5.8v3.1h5v1.1h-10.9V258h4.8
			v-3.1h-5.4v-1h5.4v-2.3h1.1v2.3h5.8V254.9z M721.3,267.1l-0.9,0.6c-0.5-0.7-1.4-1.8-2.7-3.2l0.9-0.6
			C719.7,265,720.6,266,721.3,267.1z"/>
	</g>
</g>
<g>
	<g>
		<path class="st3" d="M675.6,331.6h-2v5.5c0.6-0.2,1.3-0.4,2-0.7v1.1c-2.4,1-4.6,1.7-6.7,2.3l-0.3-1c0.3-0.1,0.7-0.2,1.2-0.3v-10.9
			h1.1V338c0.4-0.1,1-0.2,1.6-0.5v-10.3c0.6-1,1.1-2,1.5-2.9h-4.7v-1h5.9v1l-1.6,3.3v3h2V331.6z M678.2,331.7
			c-0.1,4.2-0.9,7.2-2.5,9l-1-0.5c1.5-1.6,2.3-4.4,2.5-8.5H678.2z M686.8,325.4h-6.1c-1,1.6-1.9,2.9-2.8,3.9
			c2.3-0.1,4.3-0.2,6.2-0.4c-0.3-0.4-0.8-1-1.6-1.8l0.9-0.6c1.1,1,2.2,2.4,3.3,4.2l-0.9,0.6c-0.3-0.6-0.7-1.1-1-1.5
			c-2.8,0.3-5.6,0.5-8.4,0.6l-0.3-1c1-0.7,2.1-2,3.3-4.1H676v-1h4c0.4-0.7,0.8-1.4,1.1-2.2l1.1,0.4c-0.3,0.7-0.6,1.3-0.9,1.8h5.5
			V325.4z M681.2,340.7h-1.1v-9h1.1V340.7z M686.8,340.7h-2.4c-0.3,0-0.6-0.1-0.9-0.4c-0.3-0.3-0.4-0.6-0.4-0.9v-7.6h1.1v7.5
			c0,0.1,0,0.2,0.1,0.3s0.2,0.1,0.2,0.1h2.2V340.7z"/>
		<path class="st3" d="M706.3,324.2c0,2-0.1,3.6-0.2,5c-0.1,1.4-0.3,2.2-0.4,2.5c-0.1,0.3-0.4,0.5-0.7,0.8c-0.3,0.2-1.1,0.4-2.3,0.4
			c-0.4,0-0.8,0-1.3-0.1l-0.4-1.1c0.6,0.1,1.2,0.1,1.7,0.1c0.9,0,1.4-0.1,1.6-0.2s0.3-0.3,0.4-0.5c0.1-0.2,0.2-0.9,0.3-2.1
			s0.2-2.4,0.2-3.7h-2.3c-0.9,2.9-3.1,5.5-6.5,7.9l-0.9-0.8c3.3-2.1,5.4-4.4,6.2-7.1h-3.5c-1,2.9-3.5,5.2-7.4,6.8l-0.7-0.9
			c3.7-1.4,5.9-3.4,6.9-5.9h-3.2c-1.1,1.4-2.2,2.4-3.4,3l-0.8-0.9c2-1,3.6-2.7,4.9-5.2l1.1,0.3c-0.3,0.5-0.6,1.1-0.9,1.6H706.3z
			 M693.3,334.4c-0.8,2.2-1.7,4-2.7,5.4l-1-0.6c1-1.2,1.9-2.9,2.6-5L693.3,334.4z M703.7,336.4c-0.1,1.7-0.3,2.7-0.6,3.2
			c-0.3,0.4-0.7,0.7-1.2,0.8s-1.5,0.1-3.3,0.1c-1.3,0-2.2,0-2.5-0.1c-0.4-0.1-0.7-0.2-0.9-0.5c-0.2-0.3-0.4-0.7-0.4-1.3v-4.8h1.1
			v4.9c0,0.3,0.2,0.5,0.5,0.6c0.3,0.1,1.9,0.1,4.7,0.1c0.4,0,0.8-0.2,1-0.5c0.2-0.3,0.4-1.2,0.4-2.7L703.7,336.4z M700.9,336.3
			l-1,0.4c-0.7-1.3-1.4-2.5-2.2-3.5l1-0.5C699.7,334,700.4,335.2,700.9,336.3z M707.8,338.9l-1,0.5c-0.7-1.5-1.8-3.2-3.2-5.2
			l0.9-0.5C705.8,335.4,706.9,337.1,707.8,338.9z"/>
	</g>
</g>
<g>
	<g>
		<path class="st3" d="M687.1,370.6l-0.7,0.9c-3.1-2.5-5.8-4.3-8.1-5.5v10.4h-1.2v-11.8c-2,2.4-4.6,4.7-8,6.9l-0.7-1
			c5.2-3.1,8.7-6.7,10.5-10.9h-10.1v-1.1h17.9v1.1h-6.5c-0.5,1.1-1.1,2.2-1.9,3.4v1.7C682.2,367,685.2,369,687.1,370.6z"/>
		<path class="st3" d="M707,365.3h-1v-3.3h-14.5v3.3h-1.1v-4.3h7.8v-2.9h1v2.9h7.8V365.3z M706.1,376.4H705v-0.9h-12.6v0.9h-1.1
			v-7.6h14.8V376.4z M698.1,371.6v-1.8h-5.8v1.8H698.1z M698.1,374.4v-1.8h-5.8v1.8H698.1z M695.5,360l-1,0.6
			c-0.4-0.6-1.1-1.2-1.9-1.9l1-0.6C694.2,358.6,694.8,359.2,695.5,360z M704,367.4h-10.6v-3.8H704V367.4z M702.9,366.4v-1.8h-8.4
			v1.8H702.9z M705,371.6v-1.8h-5.7v1.8H705z M705,374.4v-1.8h-5.7v1.8H705z M705.1,358.8c-0.6,0.5-1.4,1.1-2.5,1.7l-0.9-0.8
			c0.9-0.4,1.8-0.9,2.5-1.5L705.1,358.8z"/>
		<path class="st3" d="M719.5,360.4h-5.9c-0.7,0.9-1.5,1.7-2.3,2.4l-0.8-0.7c1.5-1.2,2.7-2.6,3.5-4.3l1,0.4
			c-0.2,0.3-0.4,0.7-0.7,1.2h5.2V360.4z M728.3,367.5h-1.1v-2.9h-15.1v2.9h-1.1v-3.9h7.9c-0.1-0.3-0.2-0.7-0.5-1.2l0.9-0.3
			c0.3,0.5,0.5,1,0.7,1.5h8.2V367.5z M726.4,375.5h-11.8v0.9h-1.1v-10.2h12.3v3.6h-11.2v1.7h11.8V375.5z M724.7,368.7v-1.6h-10.1
			v1.6H724.7z M725.3,374.4v-2h-10.7v2H725.3z M717.4,362.5l-1,0.4c-0.3-0.5-0.6-1.1-1.2-1.7l0.9-0.4
			C716.7,361.4,717.1,362,717.4,362.5z M728.8,360.5h-6.7c-0.5,0.6-1,1.1-1.6,1.6l-0.9-0.6c1.5-1.4,2.5-2.6,2.9-3.6l1,0.4
			c-0.2,0.4-0.4,0.7-0.7,1.2h6V360.5z M725.8,362.6l-0.9,0.4c-0.5-0.9-0.8-1.5-1.1-1.8l1-0.4C725.2,361.4,725.5,362.1,725.8,362.6z"
			/>
		<path class="st3" d="M742.1,359.3c-0.9,1.5-1.9,2.9-2.9,4.1h2.3v1h-3.3c-0.8,0.8-1.5,1.5-2.1,2h4.1v0.9c-0.9,0.9-1.8,1.7-2.7,2.5
			v1c1.3-0.2,2.5-0.5,3.8-0.8l0,1.1c-1.2,0.3-2.4,0.5-3.7,0.7v2.9c0,0.5-0.1,0.8-0.4,1.1c-0.3,0.3-0.9,0.4-1.8,0.4
			c-0.3,0-0.7,0-1.1-0.1l-0.3-1.1c0.4,0,0.8,0.1,1.3,0.1c0.6,0,1,0,1.1-0.1c0.1-0.1,0.2-0.2,0.2-0.5v-2.5c-1.8,0.3-3.3,0.5-4.5,0.6
			l-0.3-1c1.8-0.2,3.4-0.5,4.7-0.7v-1.7c0.7-0.6,1.5-1.3,2.2-2h-3.8c-0.9,0.7-1.7,1.2-2.5,1.7l-0.7-0.9c2.3-1.3,4.1-2.6,5.3-3.8
			h-4.9v-1h3.8V361h-3.2v-1h3.2v-2h1.1v2h2.5v1h-2.5v2.4h1c1.3-1.3,2.4-2.8,3.4-4.6L742.1,359.3z M750,375.5l-0.7,1
			c-1.7-1.1-3-2.3-4-3.5c-1.5,1.5-3.1,2.7-4.6,3.5l-0.7-1c2-1.1,3.6-2.2,4.7-3.5c-0.7-1.3-1.3-3-1.8-5.4l1.1-0.4
			c0.4,2.2,0.9,3.8,1.4,4.8c1.5-2.4,2.1-5.2,2-8.6h-3.2c-0.8,2-1.7,3.6-2.7,4.9l-0.8-0.8c1.8-2.4,3-5.3,3.5-8.7l1.1,0.3
			c-0.2,1.2-0.5,2.2-0.8,3.1h5.3v1.1h-1.3c0,4.1-0.9,7.3-2.5,9.6C747,373.3,748.3,374.4,750,375.5z"/>
	</g>
</g>
<g>
	<g>
		<path class="st3" d="M684.2,231.2h-1.1v-1.4h-10.9v1.4H671v-17.9h13.2V231.2z M683.1,218.5v-4.1h-10.9v4.1H683.1z M683.1,223.5
			v-3.9h-10.9v3.9H683.1z M683.1,228.7v-4.1h-10.9v4.1H683.1z"/>
		<path class="st3" d="M695.5,229.8h-1v-1.2h-3v1.7h-1v-16.2h5.1V229.8z M694.4,218.3v-3.2h-3v3.2H694.4z M694.4,222.8v-3.4h-3v3.4
			H694.4z M694.4,227.5v-3.7h-3v3.7H694.4z M707.8,220h-4.5c-0.6,0.7-1.6,1.6-2.9,2.5h6v8.7h-1.1V230H699v1.2h-1V224
			c-0.4,0.2-0.9,0.5-1.5,0.7l-0.6-0.9c2.2-0.9,4.2-2.2,6-3.9h-5.6v-1h4v-2.7h-3.3v-1h3.3v-2.3h1.1v2.3h2.6v1h-2.6v2.7h1.5
			c1.3-1.4,2.3-3,3.3-4.7l0.9,0.5c-0.9,1.7-1.9,3.1-2.8,4.2h3.6V220z M705.4,225.7v-2.1H699v2.1H705.4z M705.4,229v-2.3H699v2.3
			H705.4z"/>
		<path class="st3" d="M728.7,229.4l-0.7,0.9c-2.6-1.4-4.6-3-5.9-5c0.1,0.6,0.2,1.2,0.2,1.8c0,1.8-0.3,2.9-0.8,3.3
			c-0.6,0.5-1.5,0.7-2.7,0.7c-0.4,0-0.7,0-1.1,0l-0.4-1.1c0.4,0.1,0.9,0.1,1.4,0.1c0.8,0,1.4-0.1,1.7-0.3c0.3-0.2,0.5-0.4,0.6-0.8
			s0.2-1,0.2-2c0-0.6,0-1.2-0.1-1.7c-2.6,2.1-5.9,3.7-9.8,5l-0.6-0.9c4.5-1.4,7.8-3.1,10.1-5.2c-0.2-0.7-0.3-1.2-0.6-1.6
			c-2.1,1.6-4.9,2.9-8.4,3.9l-0.6-1c3.4-0.8,6.3-2.1,8.6-3.9c-0.2-0.3-0.5-0.8-0.8-1.2c-2.1,1-4.3,1.8-6.6,2.3l-0.6-1
			c3.6-0.7,6.4-1.8,8.3-3.1h-6.1v-1.1h11.9v1.1h-4.2c-0.5,0.4-1.1,0.9-1.9,1.4c0.8,1,1.4,2.2,1.8,3.5c2.1-1.1,3.7-2.2,4.8-3.4
			l0.8,0.8c-1.1,1.2-2.7,2.3-4.6,3.4C723.8,226.3,725.9,228.1,728.7,229.4z M728,218.2h-1.1v-2.6h-14.4v2.6h-1.1v-3.7h8
			c-0.2-0.5-0.4-1-0.6-1.5l1.1-0.4c0.2,0.4,0.4,1,0.7,1.9h7.4V218.2z"/>
		<path class="st3" d="M749.8,227l-0.6,1c-2.7-0.9-4.8-2.2-6.2-3.9h-4.6c-1.7,1.8-3.8,3.1-6.2,3.9l-0.6-1c2-0.5,3.8-1.5,5.4-2.9
			h-5.1v-1h5.4v-1.6H733v-1h4.2v-1.5h-3.6v-5.5h14.1v5.5h-3.5v1.5h4.2v1h-4.2v1.6h5.4v1h-5.2C745.8,225.3,747.6,226.3,749.8,227z
			 M739.2,228.8c-1.9,0.9-3.8,1.5-5.6,1.9l-0.5-0.9c1.7-0.4,3.5-1.1,5.5-1.9L739.2,228.8z M746.7,215.7v-1.2h-11.9v1.2H746.7z
			 M746.7,217.9v-1.3h-11.9v1.3H746.7z M739.4,226.7l-0.7,0.8c-0.5-0.4-1.1-0.8-1.8-1.2l0.7-0.7
			C738.3,225.8,738.9,226.2,739.4,226.7z M741.2,230c0,0.3-0.1,0.6-0.3,0.8c-0.2,0.2-0.4,0.3-0.6,0.4c-0.2,0-0.7,0.1-1.6,0.1
			l-0.5-1.1c0.2,0,0.5,0,0.9,0c0.5,0,0.7,0,0.9-0.1c0.1-0.1,0.2-0.2,0.2-0.4v-4.7h1.1V230z M743.1,220.4v-1.5h-4.8v1.5H743.1z
			 M743.1,223v-1.6h-4.8v1.6H743.1z M744.6,226.4c-0.6,0.5-1.2,0.8-1.8,1.1l-0.7-0.8c0.7-0.4,1.3-0.7,1.7-1L744.6,226.4z M748.5,230
			l-0.6,0.9c-1.4-0.8-3.2-1.4-5.4-2l0.7-0.9C745.5,228.7,747.3,229.3,748.5,230z"/>
	</g>
</g>
<circle class="st12" cx="573.8" cy="189.2" r="5.6"/>
<circle class="st10" cx="573.8" cy="224.5" r="5.6"/>
<circle class="st8" cx="573.8" cy="333.7" r="5.6"/>
<circle class="st10" cx="573.8" cy="262" r="5.6"/>
<circle class="st9" cx="573.8" cy="298.7" r="5.6"/>
<circle class="st7" cx="573.8" cy="369.3" r="5.6"/>
<g>
	<g>
		<g>
			<path class="st7" d="M294.4,214.7L189.6,389.1C93.2,331.2,62.1,206.2,120,109.8c37.6-62.6,101.4-98.7,174.4-98.7V214.7z"/>
			<path class="st7" d="M189.7,389.4l-0.2-0.1c-46.6-28-79.6-72.5-92.8-125.3s-5-107.6,23-154.2c37.7-62.8,101.4-98.8,174.6-98.8
				h0.2v203.8l0,0.1L189.7,389.4z M294.2,11.4c-73,0.1-136.4,36-174,98.6c-57.7,96-26.6,221,69.3,278.8l104.7-174.2V11.4z"/>
		</g>
	</g>
</g>
<g>
	<g>
		<g>
			<path class="st8" d="M294.4,214.7l136.2,151.2c-67.4,60.7-163.2,69.9-241,23.2L294.4,214.7z"/>
			<path class="st8" d="M294.7,418.9c-36.7,0-72.7-10.1-105.2-29.6l-0.2-0.1l0.1-0.2l105-174.7l0.2,0.2l136.3,151.4l-0.2,0.2
				c-33.1,29.8-73.5,47.8-116.7,51.9C307.5,418.6,301.1,418.9,294.7,418.9z M189.9,389c77,46.2,173.5,36.9,240.3-23.1L294.4,215
				L189.9,389z"/>
		</g>
	</g>
</g>
<g>
	<g>
		<g>
			<path class="st9" d="M294.4,214.7L497.6,204c3.3,63.5-19.8,119.3-67.1,161.9L294.4,214.7z"/>
			<path class="st9" d="M430.5,366.2l-0.2-0.2L293.9,214.4l0.5,0l203.5-10.7l0,0.2c3.3,63.5-19.9,119.5-67.1,162.1L430.5,366.2z
				 M294.9,214.9l135.7,150.7c47-42.4,70.1-98.1,66.8-161.3L294.9,214.9z"/>
		</g>
	</g>
</g>
<g>
	<g>
		<g>
			<path class="st10" d="M294.4,214.7L425.2,58.8c45.6,38.3,69.3,85.8,72.4,145.2L294.4,214.7z"/>
			<path class="st10" d="M293.9,214.9L425.2,58.4l0.2,0.1c45.7,38.3,69.4,85.9,72.5,145.4l0,0.2l-0.2,0L293.9,214.9z M425.2,59.1
				L294.9,214.4l202.5-10.6C494.2,144.6,470.6,97.2,425.2,59.1z"/>
		</g>
	</g>
</g>
<g>
	<g>
		<g>
			<path class="st10" d="M294.4,214.7l17.7-202.7c15.7,1.4,30.2,4.3,45.1,9.2L294.4,214.7z"/>
			<path class="st10" d="M294,216.7l17.9-205l0.2,0c15.8,1.4,30.1,4.3,45.2,9.2l0.2,0.1l-0.1,0.2L294,216.7z M312.3,12.2
				l-17.5,200.5L357,21.3C342.1,16.4,327.9,13.6,312.3,12.2z"/>
		</g>
	</g>
</g>
<g>
	<g>
		<g>
			<path class="st11" d="M294.4,214.7V11.2c6.7,0,11,0.2,17.7,0.8L294.4,214.7z"/>
			<path class="st11" d="M294.6,214.7l-0.5,0V10.9h0.2c6.7,0,11,0.2,17.8,0.8l0.2,0l0,0.2L294.6,214.7z M294.6,11.4v197.9
				l17.3-197.2C305.4,11.6,301.1,11.4,294.6,11.4z"/>
		</g>
	</g>
</g>
<g>
	<g>
		<g>
			<path class="st0" d="M294.4,214.6L362.9,3.7c28.4,9.2,51.1,21.8,74,41L294.4,214.6z"/>
			<path class="st0" d="M293.8,215.7l69-212.3l0.2,0.1c28.4,9.2,51.2,21.9,74.1,41.1l0.2,0.2L293.8,215.7z M363.1,4l-68,209.3
				L436.6,44.8C413.9,25.8,391.2,13.2,363.1,4z"/>
		</g>
	</g>
</g>
</svg>
