<?xml version="1.0" encoding="utf-8"?>
<!-- Generator: Adobe Illustrator 19.1.0, SVG Export Plug-In . SVG Version: 6.00 Build 0)  -->
<svg version="1.1" id="圖層_1" xmlns="http://www.w3.org/2000/svg" xmlns:xlink="http://www.w3.org/1999/xlink" x="0px" y="0px"
	 viewBox="0 0 849 449.9" style="enable-background:new 0 0 849 449.9;" xml:space="preserve">
<style type="text/css">
	.st0{fill:#B81C25;}
	.st1{fill:none;stroke:#C9CACA;stroke-miterlimit:10;}
	.st2{fill:#231815;}
	.st3{fill:#595757;}
	.st4{fill:none;stroke:#898989;stroke-miterlimit:10;}
	.st5{fill:none;stroke:#B81C25;stroke-miterlimit:10;}
	.st6{fill:#9FA0A0;stroke:#FFFFFF;stroke-miterlimit:10;}
	.st7{fill:#B5B5B6;stroke:#FFFFFF;stroke-miterlimit:10;}
	.st8{fill:#C9CACA;stroke:#FFFFFF;stroke-miterlimit:10;}
	.st9{fill:#DCDDDD;stroke:#FFFFFF;stroke-miterlimit:10;}
	.st10{fill:#EFEFEF;stroke:#FFFFFF;stroke-miterlimit:10;}
	.st11{fill:#F7F8F8;stroke:#FFFFFF;stroke-miterlimit:10;}
	.st12{fill:#F7F8F8;}
	.st13{fill:#EFEFEF;}
	.st14{fill:#DCDDDD;}
	.st15{fill:#C9CACA;}
	.st16{fill:#B5B5B6;}
	.st17{fill:#9FA0A0;}
	.st18{fill:#898989;}
	.st19{fill:none;stroke:#898989;stroke-width:0.5;stroke-miterlimit:10;}
</style>
<g>
	<g>
		<path class="st2" d="M26.1,419c-2.3-2.2-3.4-5-3.4-8.3c0-3.3,1.1-6.1,3.4-8.4h1.6c-2.3,2.4-3.5,5.2-3.5,8.4c0,3.2,1.2,6,3.5,8.3
			H26.1z"/>
		<path class="st2" d="M47.6,416.1l-0.8,0.7c-4.4-2.6-7.2-6.3-8.4-10.9c-0.9,4.2-3.7,7.8-8.4,10.9l-0.8-0.8c1.6-0.9,3-2.1,4.4-3.5
			c1.3-1.4,2.3-3,3-4.6c0.7-1.7,1.1-4,1.1-6.9h1.2c0,3.3,0.7,6.3,2.3,8.9C42.8,412.5,45,414.5,47.6,416.1z"/>
		<path class="st2" d="M57.1,411.2h-6.9v-0.9h6.9V411.2z M56.6,404.5h-5.8v-1h5.8V404.5z M68.6,416.1l-0.6,0.8
			c-3.6-2-5.9-4.2-6.8-6.6c-1,2.6-3.2,4.8-6.5,6.5L54,416c1.5-0.7,2.8-1.6,3.8-2.7c1.1-1.1,1.8-2.1,2.2-3c0.4-1,0.6-2.3,0.6-4.1h1.1
			c0,0.3-0.1,0.6-0.1,1c0,1.3,0.2,2.3,0.7,3.2s1.2,1.8,2.1,2.7C65.4,414.1,66.8,415.1,68.6,416.1z M68.1,405c0,0.1-0.2,0.5-0.5,1.1
			s-0.6,1.2-0.9,1.6c-0.3,0.4-0.6,0.9-0.9,1.3c-0.3,0.4-0.7,0.8-1.1,1.2l-0.9-0.6c1.3-1.3,2.3-2.9,3-4.7H59
			c-0.9,1.5-1.7,2.7-2.6,3.5l-0.8-0.7c1.6-1.5,2.9-3.7,3.8-6.7l1.1,0.2c-0.4,1-0.7,1.9-1.1,2.7h8.6V405z"/>
		<path class="st2" d="M70.1,419c2.3-2.4,3.5-5.1,3.5-8.3c0-3.2-1.2-6-3.5-8.4h1.6c2.3,2.3,3.4,5.1,3.4,8.4c0,3.3-1.1,6.1-3.4,8.3
			H70.1z"/>
	</g>
</g>
<g>
	<line class="st1" x1="142.2" y1="409.8" x2="142.2" y2="415.4"/>
	<line class="st1" x1="214.9" y1="409.8" x2="214.9" y2="415.4"/>
	<line class="st1" x1="287.6" y1="409.8" x2="287.6" y2="415.4"/>
	<line class="st1" x1="360.3" y1="409.8" x2="360.3" y2="415.4"/>
	<line class="st1" x1="433" y1="409.8" x2="433" y2="415.4"/>
	<line class="st1" x1="505.7" y1="409.8" x2="505.7" y2="415.4"/>
	<line class="st1" x1="578.4" y1="409.8" x2="578.4" y2="415.4"/>
	<line class="st1" x1="651.1" y1="409.8" x2="651.1" y2="415.4"/>
	<line class="st1" x1="723.8" y1="409.8" x2="723.8" y2="415.4"/>
	<line class="st1" x1="796.5" y1="409.8" x2="796.5" y2="415.4"/>
</g>
<g>
	<g>
		<path class="st3" d="M130.9,430.7l2-0.2c0.2,0.8,0.5,1.4,1,1.8s1.1,0.6,1.8,0.6c0.6,0,1.2-0.1,1.7-0.4s0.9-0.6,1.2-1
			c0.3-0.4,0.6-1,0.8-1.8s0.3-1.5,0.3-2.3c0-0.1,0-0.2,0-0.4c-0.4,0.6-1,1.1-1.7,1.4c-0.7,0.4-1.5,0.5-2.3,0.5
			c-1.4,0-2.6-0.5-3.5-1.4c-1-0.9-1.4-2.1-1.4-3.6c0-1.5,0.5-2.8,1.5-3.7s2.3-1.4,3.8-1.4c1.1,0,2.1,0.3,3,0.8
			c0.9,0.5,1.6,1.3,2.1,2.3c0.5,1,0.7,2.4,0.7,4.2c0,1.9-0.2,3.5-0.7,4.6c-0.5,1.1-1.2,2-2.1,2.6s-2,0.9-3.2,0.9
			c-1.3,0-2.4-0.3-3.2-1C131.6,432.8,131.1,431.9,130.9,430.7z M139.3,424c0-1.1-0.3-1.9-0.9-2.5s-1.4-0.9-2.3-0.9
			c-0.9,0-1.7,0.3-2.4,1s-1,1.5-1,2.6c0,1,0.3,1.7,1,2.3c0.6,0.6,1.4,0.9,2.4,0.9c1,0,1.7-0.3,2.4-0.9
			C139,425.9,139.3,425.1,139.3,424z"/>
		<path class="st3" d="M154.3,422.8l-2,0.1c-0.2-0.7-0.4-1.3-0.8-1.6c-0.6-0.5-1.2-0.8-2.1-0.8c-0.7,0-1.2,0.2-1.7,0.5
			c-0.6,0.4-1.2,1-1.5,1.9c-0.4,0.8-0.6,2-0.6,3.5c0.5-0.7,1.1-1.2,1.8-1.5s1.5-0.5,2.3-0.5c1.4,0,2.5,0.5,3.5,1.4
			c1,0.9,1.4,2.1,1.4,3.5c0,0.9-0.2,1.8-0.7,2.6c-0.5,0.8-1.1,1.4-1.9,1.9s-1.7,0.6-2.7,0.6c-1.7,0-3.1-0.6-4.2-1.7
			c-1.1-1.1-1.6-3-1.6-5.6c0-2.9,0.6-5,1.8-6.3c1-1.1,2.5-1.7,4.2-1.7c1.3,0,2.4,0.3,3.2,1C153.6,420.7,154.1,421.6,154.3,422.8z
			 M145.9,429.3c0,0.6,0.2,1.2,0.5,1.8c0.3,0.6,0.7,1,1.3,1.3c0.5,0.3,1.1,0.5,1.7,0.5c0.9,0,1.6-0.3,2.2-0.9
			c0.6-0.6,0.9-1.5,0.9-2.6c0-1-0.3-1.9-0.9-2.5c-0.6-0.6-1.4-0.9-2.3-0.9c-0.9,0-1.7,0.3-2.4,0.9
			C146.2,427.5,145.9,428.3,145.9,429.3z"/>
	</g>
</g>
<g>
	<g>
		<path class="st3" d="M205,430.7l2-0.2c0.2,0.8,0.5,1.4,1,1.8s1.1,0.6,1.8,0.6c0.6,0,1.2-0.1,1.7-0.4s0.9-0.6,1.2-1
			c0.3-0.4,0.6-1,0.8-1.8s0.3-1.5,0.3-2.3c0-0.1,0-0.2,0-0.4c-0.4,0.6-1,1.1-1.7,1.4c-0.7,0.4-1.5,0.5-2.3,0.5
			c-1.4,0-2.6-0.5-3.5-1.4c-1-0.9-1.4-2.1-1.4-3.6c0-1.5,0.5-2.8,1.5-3.7s2.3-1.4,3.8-1.4c1.1,0,2.1,0.3,3,0.8
			c0.9,0.5,1.6,1.3,2.1,2.3c0.5,1,0.7,2.4,0.7,4.2c0,1.9-0.2,3.5-0.7,4.6c-0.5,1.1-1.2,2-2.1,2.6s-2,0.9-3.2,0.9
			c-1.3,0-2.4-0.3-3.2-1C205.7,432.8,205.2,431.9,205,430.7z M213.5,424c0-1.1-0.3-1.9-0.9-2.5s-1.4-0.9-2.3-0.9
			c-0.9,0-1.7,0.3-2.4,1s-1,1.5-1,2.6c0,1,0.3,1.7,1,2.3c0.6,0.6,1.4,0.9,2.4,0.9c1,0,1.7-0.3,2.4-0.9
			C213.1,425.9,213.5,425.1,213.5,424z"/>
		<path class="st3" d="M217.9,421.1v-1.8h10.9v1.4c-1.1,1-2.1,2.4-3.2,4.1c-1,1.7-1.9,3.4-2.4,5.2c-0.4,1.3-0.7,2.6-0.8,4.1h-2.1
			c0-1.2,0.3-2.6,0.8-4.3c0.5-1.7,1.2-3.3,2.1-4.8c0.9-1.6,1.9-2.9,3-3.9H217.9z"/>
	</g>
</g>
<g>
	<g>
		<path class="st3" d="M278,430.7l2-0.2c0.2,0.8,0.5,1.4,1,1.8s1.1,0.6,1.8,0.6c0.6,0,1.2-0.1,1.7-0.4s0.9-0.6,1.2-1
			c0.3-0.4,0.6-1,0.8-1.8s0.3-1.5,0.3-2.3c0-0.1,0-0.2,0-0.4c-0.4,0.6-1,1.1-1.7,1.4c-0.7,0.4-1.5,0.5-2.3,0.5
			c-1.4,0-2.6-0.5-3.5-1.4c-1-0.9-1.4-2.1-1.4-3.6c0-1.5,0.5-2.8,1.5-3.7s2.3-1.4,3.8-1.4c1.1,0,2.1,0.3,3,0.8
			c0.9,0.5,1.6,1.3,2.1,2.3c0.5,1,0.7,2.4,0.7,4.2c0,1.9-0.2,3.5-0.7,4.6c-0.5,1.1-1.2,2-2.1,2.6s-2,0.9-3.2,0.9
			c-1.3,0-2.4-0.3-3.2-1C278.6,432.8,278.1,431.9,278,430.7z M286.4,424c0-1.1-0.3-1.9-0.9-2.5s-1.4-0.9-2.3-0.9
			c-0.9,0-1.7,0.3-2.4,1s-1,1.5-1,2.6c0,1,0.3,1.7,1,2.3c0.6,0.6,1.4,0.9,2.4,0.9c1,0,1.7-0.3,2.4-0.9
			C286.1,425.9,286.4,425.1,286.4,424z"/>
		<path class="st3" d="M293.9,426c-0.9-0.3-1.5-0.7-1.9-1.2c-0.4-0.5-0.6-1.1-0.6-1.9c0-1.1,0.4-2,1.3-2.8c0.9-0.7,2-1.1,3.5-1.1
			c1.5,0,2.6,0.4,3.5,1.1c0.9,0.8,1.3,1.7,1.3,2.8c0,0.7-0.2,1.3-0.6,1.8c-0.4,0.5-1,0.9-1.9,1.2c1,0.3,1.8,0.8,2.4,1.5
			c0.5,0.7,0.8,1.5,0.8,2.4c0,1.3-0.5,2.4-1.5,3.2c-1,0.9-2.3,1.3-4,1.3c-1.7,0-3-0.4-4-1.3c-1-0.9-1.5-2-1.5-3.3
			c0-1,0.3-1.8,0.8-2.5C292.1,426.7,292.8,426.2,293.9,426z M292.8,429.8c0,0.5,0.1,1,0.4,1.5s0.7,0.9,1.2,1.1
			c0.5,0.3,1.1,0.4,1.8,0.4c1,0,1.8-0.3,2.4-0.9s1-1.3,1-2.2c0-0.9-0.3-1.6-1-2.2c-0.7-0.6-1.5-0.9-2.5-0.9c-1,0-1.8,0.3-2.4,0.9
			S292.8,429,292.8,429.8z M293.4,422.9c0,0.7,0.3,1.3,0.8,1.7s1.2,0.7,2,0.7c0.8,0,1.4-0.2,2-0.7c0.5-0.4,0.8-1,0.8-1.6
			c0-0.7-0.3-1.2-0.8-1.7c-0.5-0.5-1.2-0.7-2-0.7c-0.8,0-1.4,0.2-2,0.7S293.4,422.3,293.4,422.9z"/>
	</g>
</g>
<g>
	<g>
		<path class="st3" d="M350,430.7l2-0.2c0.2,0.8,0.5,1.4,1,1.8s1.1,0.6,1.8,0.6c0.6,0,1.2-0.1,1.7-0.4s0.9-0.6,1.2-1
			c0.3-0.4,0.6-1,0.8-1.8s0.3-1.5,0.3-2.3c0-0.1,0-0.2,0-0.4c-0.4,0.6-1,1.1-1.7,1.4c-0.7,0.4-1.5,0.5-2.3,0.5
			c-1.4,0-2.6-0.5-3.5-1.4c-1-0.9-1.4-2.1-1.4-3.6c0-1.5,0.5-2.8,1.5-3.7s2.3-1.4,3.8-1.4c1.1,0,2.1,0.3,3,0.8
			c0.9,0.5,1.6,1.3,2.1,2.3c0.5,1,0.7,2.4,0.7,4.2c0,1.9-0.2,3.5-0.7,4.6c-0.5,1.1-1.2,2-2.1,2.6s-2,0.9-3.2,0.9
			c-1.3,0-2.4-0.3-3.2-1C350.6,432.8,350.1,431.9,350,430.7z M358.4,424c0-1.1-0.3-1.9-0.9-2.5s-1.4-0.9-2.3-0.9
			c-0.9,0-1.7,0.3-2.4,1s-1,1.5-1,2.6c0,1,0.3,1.7,1,2.3c0.6,0.6,1.4,0.9,2.4,0.9c1,0,1.7-0.3,2.4-0.9
			C358.1,425.9,358.4,425.1,358.4,424z"/>
		<path class="st3" d="M363,430.7l2-0.2c0.2,0.8,0.5,1.4,1,1.8s1.1,0.6,1.8,0.6c0.6,0,1.2-0.1,1.7-0.4s0.9-0.6,1.2-1
			c0.3-0.4,0.6-1,0.8-1.8s0.3-1.5,0.3-2.3c0-0.1,0-0.2,0-0.4c-0.4,0.6-1,1.1-1.7,1.4c-0.7,0.4-1.5,0.5-2.3,0.5
			c-1.4,0-2.6-0.5-3.5-1.4c-1-0.9-1.4-2.1-1.4-3.6c0-1.5,0.5-2.8,1.5-3.7s2.3-1.4,3.8-1.4c1.1,0,2.1,0.3,3,0.8
			c0.9,0.5,1.6,1.3,2.1,2.3c0.5,1,0.7,2.4,0.7,4.2c0,1.9-0.2,3.5-0.7,4.6c-0.5,1.1-1.2,2-2.1,2.6s-2,0.9-3.2,0.9
			c-1.3,0-2.4-0.3-3.2-1C363.7,432.8,363.2,431.9,363,430.7z M371.4,424c0-1.1-0.3-1.9-0.9-2.5s-1.4-0.9-2.3-0.9
			c-0.9,0-1.7,0.3-2.4,1s-1,1.5-1,2.6c0,1,0.3,1.7,1,2.3c0.6,0.6,1.4,0.9,2.4,0.9c1,0,1.7-0.3,2.4-0.9
			C371.1,425.9,371.4,425.1,371.4,424z"/>
	</g>
</g>
<g>
	<g>
		<path class="st3" d="M428,434.2h-2.1v-11.8c-0.5,0.4-1.1,0.8-2,1.3c-0.8,0.4-1.5,0.7-2.2,1v-1.8c1.2-0.5,2.2-1.1,3-1.8
			c0.9-0.7,1.5-1.4,1.8-2h1.3V434.2z"/>
		<path class="st3" d="M433.2,426.7c0-1.8,0.2-3.2,0.6-4.3c0.4-1.1,1-1.9,1.8-2.5c0.8-0.6,1.8-0.9,3-0.9c0.9,0,1.7,0.2,2.4,0.5
			c0.7,0.3,1.2,0.8,1.7,1.4c0.4,0.6,0.8,1.4,1,2.2c0.3,0.9,0.4,2.1,0.4,3.6c0,1.8-0.2,3.2-0.6,4.3c-0.4,1.1-1,1.9-1.8,2.5
			c-0.8,0.6-1.8,0.9-3,0.9c-1.6,0-2.9-0.5-3.8-1.6C433.8,431.6,433.2,429.6,433.2,426.7z M435.4,426.7c0,2.5,0.3,4.1,1,4.9
			c0.6,0.8,1.4,1.2,2.4,1.2c0.9,0,1.7-0.4,2.4-1.2s1-2.5,1-4.9c0-2.5-0.3-4.1-1-4.9s-1.4-1.2-2.4-1.2c-0.9,0-1.7,0.4-2.3,1.1
			C435.7,422.6,435.4,424.3,435.4,426.7z"/>
		<path class="st3" d="M446.3,426.7c0-1.8,0.2-3.2,0.6-4.3c0.4-1.1,1-1.9,1.8-2.5c0.8-0.6,1.8-0.9,3-0.9c0.9,0,1.7,0.2,2.4,0.5
			c0.7,0.3,1.2,0.8,1.7,1.4c0.4,0.6,0.8,1.4,1,2.2c0.3,0.9,0.4,2.1,0.4,3.6c0,1.8-0.2,3.2-0.6,4.3c-0.4,1.1-1,1.9-1.8,2.5
			c-0.8,0.6-1.8,0.9-3,0.9c-1.6,0-2.9-0.5-3.8-1.6C446.8,431.6,446.3,429.6,446.3,426.7z M448.4,426.7c0,2.5,0.3,4.1,1,4.9
			c0.6,0.8,1.4,1.2,2.4,1.2c0.9,0,1.7-0.4,2.4-1.2s1-2.5,1-4.9c0-2.5-0.3-4.1-1-4.9s-1.4-1.2-2.4-1.2c-0.9,0-1.7,0.4-2.3,1.1
			C448.7,422.6,448.4,424.3,448.4,426.7z"/>
	</g>
</g>
<g>
	<g>
		<path class="st3" d="M500.7,434.2h-2.1v-11.8c-0.5,0.4-1.1,0.8-2,1.3c-0.8,0.4-1.5,0.7-2.2,1v-1.8c1.2-0.5,2.2-1.1,3-1.8
			c0.9-0.7,1.5-1.4,1.8-2h1.3V434.2z"/>
		<path class="st3" d="M506,426.7c0-1.8,0.2-3.2,0.6-4.3c0.4-1.1,1-1.9,1.8-2.5c0.8-0.6,1.8-0.9,3-0.9c0.9,0,1.7,0.2,2.4,0.5
			c0.7,0.3,1.2,0.8,1.7,1.4c0.4,0.6,0.8,1.4,1,2.2c0.3,0.9,0.4,2.1,0.4,3.6c0,1.8-0.2,3.2-0.6,4.3c-0.4,1.1-1,1.9-1.8,2.5
			c-0.8,0.6-1.8,0.9-3,0.9c-1.6,0-2.9-0.5-3.8-1.6C506.5,431.6,506,429.6,506,426.7z M508.1,426.7c0,2.5,0.3,4.1,1,4.9
			c0.6,0.8,1.4,1.2,2.4,1.2c0.9,0,1.7-0.4,2.4-1.2s1-2.5,1-4.9c0-2.5-0.3-4.1-1-4.9s-1.4-1.2-2.4-1.2c-0.9,0-1.7,0.4-2.3,1.1
			C508.4,422.6,508.1,424.3,508.1,426.7z"/>
		<path class="st3" d="M526.7,434.2h-2.1v-11.8c-0.5,0.4-1.1,0.8-2,1.3c-0.8,0.4-1.5,0.7-2.2,1v-1.8c1.2-0.5,2.2-1.1,3-1.8
			c0.9-0.7,1.5-1.4,1.8-2h1.3V434.2z"/>
	</g>
</g>
<g>
	<g>
		<path class="st3" d="M573.4,434.2h-2.1v-11.8c-0.5,0.4-1.1,0.8-2,1.3c-0.8,0.4-1.5,0.7-2.2,1v-1.8c1.2-0.5,2.2-1.1,3-1.8
			c0.9-0.7,1.5-1.4,1.8-2h1.3V434.2z"/>
		<path class="st3" d="M578.7,426.7c0-1.8,0.2-3.2,0.6-4.3c0.4-1.1,1-1.9,1.8-2.5c0.8-0.6,1.8-0.9,3-0.9c0.9,0,1.7,0.2,2.4,0.5
			c0.7,0.3,1.2,0.8,1.7,1.4c0.4,0.6,0.8,1.4,1,2.2c0.3,0.9,0.4,2.1,0.4,3.6c0,1.8-0.2,3.2-0.6,4.3c-0.4,1.1-1,1.9-1.8,2.5
			c-0.8,0.6-1.8,0.9-3,0.9c-1.6,0-2.9-0.5-3.8-1.6C579.2,431.6,578.7,429.6,578.7,426.7z M580.8,426.7c0,2.5,0.3,4.1,1,4.9
			c0.6,0.8,1.4,1.2,2.4,1.2c0.9,0,1.7-0.4,2.4-1.2s1-2.5,1-4.9c0-2.5-0.3-4.1-1-4.9s-1.4-1.2-2.4-1.2c-0.9,0-1.7,0.4-2.3,1.1
			C581.1,422.6,580.8,424.3,580.8,426.7z"/>
		<path class="st3" d="M602.5,432.4v1.8h-11.1c0-0.4,0.1-0.9,0.2-1.3c0.3-0.7,0.7-1.3,1.4-2c0.6-0.7,1.5-1.4,2.7-2.3
			c1.8-1.3,3.1-2.4,3.7-3.2c0.6-0.8,1-1.5,1-2.2c0-0.7-0.3-1.3-0.9-1.9c-0.6-0.5-1.3-0.8-2.3-0.8c-1,0-1.8,0.3-2.4,0.8
			s-0.9,1.3-0.9,2.2l-2.1-0.2c0.1-1.4,0.7-2.5,1.6-3.2c0.9-0.7,2.2-1.1,3.8-1.1c1.6,0,2.9,0.4,3.8,1.2c0.9,0.8,1.4,1.8,1.4,3
			c0,0.6-0.1,1.2-0.4,1.8s-0.7,1.2-1.4,1.8c-0.6,0.6-1.7,1.5-3.2,2.6c-1.2,0.9-2,1.6-2.4,1.9c-0.4,0.3-0.6,0.7-0.9,1H602.5z"/>
	</g>
</g>
<g>
	<g>
		<path class="st3" d="M646.1,434.2H644v-11.8c-0.5,0.4-1.1,0.8-2,1.3c-0.8,0.4-1.5,0.7-2.2,1v-1.8c1.2-0.5,2.2-1.1,3-1.8
			c0.9-0.7,1.5-1.4,1.8-2h1.3V434.2z"/>
		<path class="st3" d="M651.4,426.7c0-1.8,0.2-3.2,0.6-4.3c0.4-1.1,1-1.9,1.8-2.5c0.8-0.6,1.8-0.9,3-0.9c0.9,0,1.7,0.2,2.4,0.5
			c0.7,0.3,1.2,0.8,1.7,1.4c0.4,0.6,0.8,1.4,1,2.2c0.3,0.9,0.4,2.1,0.4,3.6c0,1.8-0.2,3.2-0.6,4.3c-0.4,1.1-1,1.9-1.8,2.5
			c-0.8,0.6-1.8,0.9-3,0.9c-1.6,0-2.9-0.5-3.8-1.6C651.9,431.6,651.4,429.6,651.4,426.7z M653.5,426.7c0,2.5,0.3,4.1,1,4.9
			c0.6,0.8,1.4,1.2,2.4,1.2c0.9,0,1.7-0.4,2.4-1.2s1-2.5,1-4.9c0-2.5-0.3-4.1-1-4.9s-1.4-1.2-2.4-1.2c-0.9,0-1.7,0.4-2.3,1.1
			C653.8,422.6,653.5,424.3,653.5,426.7z"/>
		<path class="st3" d="M664.4,430.2l2.1-0.2c0.2,1,0.6,1.8,1.2,2.3c0.6,0.5,1.3,0.7,2.1,0.7c1,0,1.8-0.3,2.5-0.9
			c0.7-0.6,1-1.3,1-2.2c0-0.8-0.3-1.5-0.9-2.1c-0.6-0.5-1.4-0.8-2.4-0.8c-0.4,0-0.9,0.1-1.5,0.2l0.2-1.6c0.1,0,0.2,0,0.3,0
			c0.9,0,1.7-0.2,2.4-0.6c0.7-0.4,1.1-1,1.1-1.9c0-0.7-0.3-1.2-0.8-1.7c-0.5-0.4-1.2-0.7-2-0.7c-0.8,0-1.5,0.2-2,0.7
			c-0.5,0.5-0.9,1.1-1,2l-2.1-0.3c0.3-1.2,0.8-2.2,1.7-2.9c0.9-0.7,2-1,3.3-1c0.9,0,1.8,0.2,2.5,0.5c0.8,0.4,1.4,0.8,1.8,1.4
			s0.6,1.3,0.6,1.9c0,0.7-0.2,1.2-0.6,1.8c-0.4,0.5-1,1-1.7,1.3c1,0.2,1.8,0.6,2.3,1.3c0.5,0.6,0.8,1.5,0.8,2.4
			c0,1.3-0.5,2.4-1.6,3.3c-1.1,0.9-2.4,1.4-4,1.4c-1.5,0-2.7-0.4-3.7-1.2C665.1,432.5,664.5,431.4,664.4,430.2z"/>
	</g>
</g>
<g>
	<g>
		<path class="st3" d="M718.8,434.2h-2.1v-11.8c-0.5,0.4-1.1,0.8-2,1.3c-0.8,0.4-1.5,0.7-2.2,1v-1.8c1.2-0.5,2.2-1.1,3-1.8
			c0.9-0.7,1.5-1.4,1.8-2h1.3V434.2z"/>
		<path class="st3" d="M724.1,426.7c0-1.8,0.2-3.2,0.6-4.3c0.4-1.1,1-1.9,1.8-2.5c0.8-0.6,1.8-0.9,3-0.9c0.9,0,1.7,0.2,2.4,0.5
			c0.7,0.3,1.2,0.8,1.7,1.4c0.4,0.6,0.8,1.4,1,2.2c0.3,0.9,0.4,2.1,0.4,3.6c0,1.8-0.2,3.2-0.6,4.3c-0.4,1.1-1,1.9-1.8,2.5
			c-0.8,0.6-1.8,0.9-3,0.9c-1.6,0-2.9-0.5-3.8-1.6C724.6,431.6,724.1,429.6,724.1,426.7z M726.2,426.7c0,2.5,0.3,4.1,1,4.9
			c0.6,0.8,1.4,1.2,2.4,1.2c0.9,0,1.7-0.4,2.4-1.2s1-2.5,1-4.9c0-2.5-0.3-4.1-1-4.9s-1.4-1.2-2.4-1.2c-0.9,0-1.7,0.4-2.3,1.1
			C726.5,422.6,726.2,424.3,726.2,426.7z"/>
		<path class="st3" d="M743.7,434.2v-3.6h-7.3v-1.7l7.7-9.7h1.7v9.7h2.3v1.7h-2.3v3.6H743.7z M743.7,428.9v-6.8l-5.3,6.8H743.7z"/>
	</g>
</g>
<g>
	<g>
		<path class="st3" d="M791.5,434.2h-2.1v-11.8c-0.5,0.4-1.1,0.8-2,1.3c-0.8,0.4-1.5,0.7-2.2,1v-1.8c1.2-0.5,2.2-1.1,3-1.8
			c0.9-0.7,1.5-1.4,1.8-2h1.3V434.2z"/>
		<path class="st3" d="M796.8,426.7c0-1.8,0.2-3.2,0.6-4.3c0.4-1.1,1-1.9,1.8-2.5c0.8-0.6,1.8-0.9,3-0.9c0.9,0,1.7,0.2,2.4,0.5
			c0.7,0.3,1.2,0.8,1.7,1.4c0.4,0.6,0.8,1.4,1,2.2c0.3,0.9,0.4,2.1,0.4,3.6c0,1.8-0.2,3.2-0.6,4.3c-0.4,1.1-1,1.9-1.8,2.5
			c-0.8,0.6-1.8,0.9-3,0.9c-1.6,0-2.9-0.5-3.8-1.6C797.3,431.6,796.8,429.6,796.8,426.7z M798.9,426.7c0,2.5,0.3,4.1,1,4.9
			c0.6,0.8,1.4,1.2,2.4,1.2c0.9,0,1.7-0.4,2.4-1.2s1-2.5,1-4.9c0-2.5-0.3-4.1-1-4.9s-1.4-1.2-2.4-1.2c-0.9,0-1.7,0.4-2.3,1.1
			C799.2,422.6,798.9,424.3,798.9,426.7z"/>
		<path class="st3" d="M809.8,430.2l2.2-0.2c0.2,0.9,0.5,1.7,1.1,2.1c0.6,0.5,1.3,0.7,2.1,0.7c1,0,1.8-0.3,2.5-1
			c0.7-0.7,1-1.6,1-2.7c0-1.1-0.3-1.9-1-2.5c-0.7-0.6-1.5-0.9-2.6-0.9c-0.7,0-1.3,0.1-1.8,0.4c-0.5,0.3-1,0.6-1.3,1.1l-1.9-0.2
			l1.6-7.7h8.3v1.8h-6.7l-0.9,4c1-0.6,2.1-0.9,3.2-0.9c1.5,0,2.7,0.5,3.7,1.4c1,0.9,1.5,2.1,1.5,3.5c0,1.4-0.4,2.5-1.3,3.5
			c-1.1,1.2-2.5,1.8-4.4,1.8c-1.5,0-2.8-0.4-3.7-1.1C810.5,432.5,809.9,431.5,809.8,430.2z"/>
	</g>
</g>
<g>
	<g>
		<path class="st3" d="M82.7,408.5c0-1.8,0.2-3.2,0.6-4.3c0.4-1.1,1-1.9,1.8-2.5c0.8-0.6,1.8-0.9,3-0.9c0.9,0,1.7,0.2,2.4,0.5
			c0.7,0.3,1.2,0.8,1.7,1.4c0.4,0.6,0.8,1.4,1,2.2c0.3,0.9,0.4,2.1,0.4,3.6c0,1.8-0.2,3.2-0.6,4.3c-0.4,1.1-1,1.9-1.8,2.5
			c-0.8,0.6-1.8,0.9-3,0.9c-1.6,0-2.9-0.5-3.8-1.6C83.3,413.4,82.7,411.4,82.7,408.5z M84.9,408.5c0,2.5,0.3,4.1,1,4.9
			c0.6,0.8,1.4,1.2,2.4,1.2c0.9,0,1.7-0.4,2.4-1.2s1-2.5,1-4.9c0-2.5-0.3-4.1-1-4.9s-1.4-1.2-2.4-1.2c-0.9,0-1.7,0.4-2.3,1.1
			C85.2,404.4,84.9,406.1,84.9,408.5z"/>
	</g>
</g>
<g>
	<g>
		<path class="st3" d="M56.7,313.6l2.2-0.2c0.2,0.9,0.5,1.7,1.1,2.1c0.6,0.5,1.3,0.7,2.1,0.7c1,0,1.8-0.3,2.5-1c0.7-0.7,1-1.6,1-2.7
			c0-1.1-0.3-1.9-1-2.5c-0.7-0.6-1.5-0.9-2.6-0.9c-0.7,0-1.3,0.1-1.8,0.4c-0.5,0.3-1,0.6-1.3,1.1l-1.9-0.2l1.6-7.7H67v1.8h-6.7
			l-0.9,4c1-0.6,2.1-0.9,3.2-0.9c1.5,0,2.7,0.5,3.7,1.4c1,0.9,1.5,2.1,1.5,3.5c0,1.4-0.4,2.5-1.3,3.5c-1.1,1.2-2.5,1.8-4.4,1.8
			c-1.5,0-2.8-0.4-3.7-1.1C57.4,315.9,56.8,314.9,56.7,313.6z"/>
		<path class="st3" d="M69.7,310.2c0-1.8,0.2-3.2,0.6-4.3c0.4-1.1,1-1.9,1.8-2.5c0.8-0.6,1.8-0.9,3-0.9c0.9,0,1.7,0.2,2.4,0.5
			c0.7,0.3,1.2,0.8,1.7,1.4c0.4,0.6,0.8,1.4,1,2.2c0.3,0.9,0.4,2.1,0.4,3.6c0,1.8-0.2,3.2-0.6,4.3c-0.4,1.1-1,1.9-1.8,2.5
			c-0.8,0.6-1.8,0.9-3,0.9c-1.6,0-2.9-0.5-3.8-1.6C70.3,315,69.7,313,69.7,310.2z M71.8,310.2c0,2.5,0.3,4.1,1,4.9
			c0.6,0.8,1.4,1.2,2.4,1.2c0.9,0,1.7-0.4,2.4-1.2s1-2.5,1-4.9c0-2.5-0.3-4.1-1-4.9s-1.4-1.2-2.4-1.2c-0.9,0-1.7,0.4-2.3,1.1
			C72.2,306,71.8,307.7,71.8,310.2z"/>
		<path class="st3" d="M82.7,310.2c0-1.8,0.2-3.2,0.6-4.3c0.4-1.1,1-1.9,1.8-2.5c0.8-0.6,1.8-0.9,3-0.9c0.9,0,1.7,0.2,2.4,0.5
			c0.7,0.3,1.2,0.8,1.7,1.4c0.4,0.6,0.8,1.4,1,2.2c0.3,0.9,0.4,2.1,0.4,3.6c0,1.8-0.2,3.2-0.6,4.3c-0.4,1.1-1,1.9-1.8,2.5
			c-0.8,0.6-1.8,0.9-3,0.9c-1.6,0-2.9-0.5-3.8-1.6C83.3,315,82.7,313,82.7,310.2z M84.9,310.2c0,2.5,0.3,4.1,1,4.9
			c0.6,0.8,1.4,1.2,2.4,1.2c0.9,0,1.7-0.4,2.4-1.2s1-2.5,1-4.9c0-2.5-0.3-4.1-1-4.9s-1.4-1.2-2.4-1.2c-0.9,0-1.7,0.4-2.3,1.1
			C85.2,306,84.9,307.7,84.9,310.2z"/>
	</g>
</g>
<g>
	<g>
		<path class="st3" d="M51.4,220.1h-2.1v-11.8c-0.5,0.4-1.1,0.8-2,1.3c-0.8,0.4-1.5,0.7-2.2,1v-1.8c1.2-0.5,2.2-1.1,3-1.8
			c0.9-0.7,1.5-1.4,1.8-2h1.3V220.1z"/>
		<path class="st3" d="M56.7,212.7c0-1.8,0.2-3.2,0.6-4.3c0.4-1.1,1-1.9,1.8-2.5c0.8-0.6,1.8-0.9,3-0.9c0.9,0,1.7,0.2,2.4,0.5
			c0.7,0.3,1.2,0.8,1.7,1.4c0.4,0.6,0.8,1.4,1,2.2c0.3,0.9,0.4,2.1,0.4,3.6c0,1.8-0.2,3.2-0.6,4.3c-0.4,1.1-1,1.9-1.8,2.5
			c-0.8,0.6-1.8,0.9-3,0.9c-1.6,0-2.9-0.5-3.8-1.6C57.2,217.5,56.7,215.5,56.7,212.7z M58.8,212.7c0,2.5,0.3,4.1,1,4.9
			c0.6,0.8,1.4,1.2,2.4,1.2c0.9,0,1.7-0.4,2.4-1.2c0.6-0.8,1-2.5,1-4.9c0-2.5-0.3-4.1-1-4.9c-0.6-0.8-1.4-1.2-2.4-1.2
			c-0.9,0-1.7,0.4-2.3,1.1C59.2,208.5,58.8,210.2,58.8,212.7z"/>
		<path class="st3" d="M69.7,212.7c0-1.8,0.2-3.2,0.6-4.3c0.4-1.1,1-1.9,1.8-2.5c0.8-0.6,1.8-0.9,3-0.9c0.9,0,1.7,0.2,2.4,0.5
			c0.7,0.3,1.2,0.8,1.7,1.4c0.4,0.6,0.8,1.4,1,2.2c0.3,0.9,0.4,2.1,0.4,3.6c0,1.8-0.2,3.2-0.6,4.3c-0.4,1.1-1,1.9-1.8,2.5
			c-0.8,0.6-1.8,0.9-3,0.9c-1.6,0-2.9-0.5-3.8-1.6C70.3,217.5,69.7,215.5,69.7,212.7z M71.8,212.7c0,2.5,0.3,4.1,1,4.9
			c0.6,0.8,1.4,1.2,2.4,1.2c0.9,0,1.7-0.4,2.4-1.2s1-2.5,1-4.9c0-2.5-0.3-4.1-1-4.9s-1.4-1.2-2.4-1.2c-0.9,0-1.7,0.4-2.3,1.1
			C72.2,208.5,71.8,210.2,71.8,212.7z"/>
		<path class="st3" d="M82.7,212.7c0-1.8,0.2-3.2,0.6-4.3c0.4-1.1,1-1.9,1.8-2.5c0.8-0.6,1.8-0.9,3-0.9c0.9,0,1.7,0.2,2.4,0.5
			c0.7,0.3,1.2,0.8,1.7,1.4c0.4,0.6,0.8,1.4,1,2.2c0.3,0.9,0.4,2.1,0.4,3.6c0,1.8-0.2,3.2-0.6,4.3c-0.4,1.1-1,1.9-1.8,2.5
			c-0.8,0.6-1.8,0.9-3,0.9c-1.6,0-2.9-0.5-3.8-1.6C83.3,217.5,82.7,215.5,82.7,212.7z M84.9,212.7c0,2.5,0.3,4.1,1,4.9
			c0.6,0.8,1.4,1.2,2.4,1.2c0.9,0,1.7-0.4,2.4-1.2s1-2.5,1-4.9c0-2.5-0.3-4.1-1-4.9s-1.4-1.2-2.4-1.2c-0.9,0-1.7,0.4-2.3,1.1
			C85.2,208.5,84.9,210.2,84.9,212.7z"/>
	</g>
</g>
<g>
	<g>
		<path class="st3" d="M51.4,123.4h-2.1v-11.8c-0.5,0.4-1.1,0.8-2,1.3c-0.8,0.4-1.5,0.7-2.2,1v-1.8c1.2-0.5,2.2-1.1,3-1.8
			c0.9-0.7,1.5-1.4,1.8-2h1.3V123.4z"/>
		<path class="st3" d="M56.7,119.5l2.2-0.2c0.2,0.9,0.5,1.7,1.1,2.1c0.6,0.5,1.3,0.7,2.1,0.7c1,0,1.8-0.3,2.5-1c0.7-0.7,1-1.6,1-2.7
			c0-1.1-0.3-1.9-1-2.5c-0.7-0.6-1.5-0.9-2.6-0.9c-0.7,0-1.3,0.1-1.8,0.4c-0.5,0.3-1,0.6-1.3,1.1l-1.9-0.2l1.6-7.7H67v1.8h-6.7
			l-0.9,4c1-0.6,2.1-0.9,3.2-0.9c1.5,0,2.7,0.5,3.7,1.4c1,0.9,1.5,2.1,1.5,3.5c0,1.4-0.4,2.5-1.3,3.5c-1.1,1.2-2.5,1.8-4.4,1.8
			c-1.5,0-2.8-0.4-3.7-1.1C57.4,121.8,56.8,120.7,56.7,119.5z"/>
		<path class="st3" d="M69.7,116c0-1.8,0.2-3.2,0.6-4.3c0.4-1.1,1-1.9,1.8-2.5c0.8-0.6,1.8-0.9,3-0.9c0.9,0,1.7,0.2,2.4,0.5
			c0.7,0.3,1.2,0.8,1.7,1.4c0.4,0.6,0.8,1.4,1,2.2c0.3,0.9,0.4,2.1,0.4,3.6c0,1.8-0.2,3.2-0.6,4.3c-0.4,1.1-1,1.9-1.8,2.5
			c-0.8,0.6-1.8,0.9-3,0.9c-1.6,0-2.9-0.5-3.8-1.6C70.3,120.9,69.7,118.8,69.7,116z M71.8,116c0,2.5,0.3,4.1,1,4.9
			c0.6,0.8,1.4,1.2,2.4,1.2c0.9,0,1.7-0.4,2.4-1.2s1-2.5,1-4.9c0-2.5-0.3-4.1-1-4.9s-1.4-1.2-2.4-1.2c-0.9,0-1.7,0.4-2.3,1.1
			C72.2,111.8,71.8,113.5,71.8,116z"/>
		<path class="st3" d="M82.7,116c0-1.8,0.2-3.2,0.6-4.3c0.4-1.1,1-1.9,1.8-2.5c0.8-0.6,1.8-0.9,3-0.9c0.9,0,1.7,0.2,2.4,0.5
			c0.7,0.3,1.2,0.8,1.7,1.4c0.4,0.6,0.8,1.4,1,2.2c0.3,0.9,0.4,2.1,0.4,3.6c0,1.8-0.2,3.2-0.6,4.3c-0.4,1.1-1,1.9-1.8,2.5
			c-0.8,0.6-1.8,0.9-3,0.9c-1.6,0-2.9-0.5-3.8-1.6C83.3,120.9,82.7,118.8,82.7,116z M84.9,116c0,2.5,0.3,4.1,1,4.9
			c0.6,0.8,1.4,1.2,2.4,1.2c0.9,0,1.7-0.4,2.4-1.2s1-2.5,1-4.9c0-2.5-0.3-4.1-1-4.9s-1.4-1.2-2.4-1.2c-0.9,0-1.7,0.4-2.3,1.1
			C85.2,111.8,84.9,113.5,84.9,116z"/>
	</g>
</g>
<g>
	<g>
		<path class="st3" d="M54.5,30.2v1.8H43.4c0-0.4,0.1-0.9,0.2-1.3c0.3-0.7,0.7-1.3,1.4-2c0.6-0.7,1.5-1.4,2.7-2.3
			c1.8-1.3,3.1-2.4,3.7-3.2c0.6-0.8,1-1.5,1-2.2c0-0.7-0.3-1.3-0.9-1.9c-0.6-0.5-1.3-0.8-2.3-0.8c-1,0-1.8,0.3-2.4,0.8
			s-0.9,1.3-0.9,2.2l-2.1-0.2c0.1-1.4,0.7-2.5,1.6-3.2c0.9-0.7,2.2-1.1,3.8-1.1c1.6,0,2.9,0.4,3.8,1.2c0.9,0.8,1.4,1.8,1.4,3
			c0,0.6-0.1,1.2-0.4,1.8s-0.7,1.2-1.4,1.8c-0.6,0.6-1.7,1.5-3.2,2.6c-1.2,0.9-2,1.6-2.4,1.9c-0.4,0.3-0.6,0.7-0.9,1H54.5z"/>
		<path class="st3" d="M56.7,24.5c0-1.8,0.2-3.2,0.6-4.3c0.4-1.1,1-1.9,1.8-2.5c0.8-0.6,1.8-0.9,3-0.9c0.9,0,1.7,0.2,2.4,0.5
			c0.7,0.3,1.2,0.8,1.7,1.4c0.4,0.6,0.8,1.4,1,2.2c0.3,0.9,0.4,2.1,0.4,3.6c0,1.8-0.2,3.2-0.6,4.3c-0.4,1.1-1,1.9-1.8,2.5
			c-0.8,0.6-1.8,0.9-3,0.9c-1.6,0-2.9-0.5-3.8-1.6C57.2,29.4,56.7,27.3,56.7,24.5z M58.8,24.5c0,2.5,0.3,4.1,1,4.9
			c0.6,0.8,1.4,1.2,2.4,1.2c0.9,0,1.7-0.4,2.4-1.2c0.6-0.8,1-2.5,1-4.9c0-2.5-0.3-4.1-1-4.9c-0.6-0.8-1.4-1.2-2.4-1.2
			c-0.9,0-1.7,0.4-2.3,1.1C59.2,20.4,58.8,22,58.8,24.5z"/>
		<path class="st3" d="M69.7,24.5c0-1.8,0.2-3.2,0.6-4.3c0.4-1.1,1-1.9,1.8-2.5c0.8-0.6,1.8-0.9,3-0.9c0.9,0,1.7,0.2,2.4,0.5
			c0.7,0.3,1.2,0.8,1.7,1.4c0.4,0.6,0.8,1.4,1,2.2c0.3,0.9,0.4,2.1,0.4,3.6c0,1.8-0.2,3.2-0.6,4.3c-0.4,1.1-1,1.9-1.8,2.5
			c-0.8,0.6-1.8,0.9-3,0.9c-1.6,0-2.9-0.5-3.8-1.6C70.3,29.4,69.7,27.3,69.7,24.5z M71.8,24.5c0,2.5,0.3,4.1,1,4.9
			c0.6,0.8,1.4,1.2,2.4,1.2c0.9,0,1.7-0.4,2.4-1.2s1-2.5,1-4.9c0-2.5-0.3-4.1-1-4.9s-1.4-1.2-2.4-1.2c-0.9,0-1.7,0.4-2.3,1.1
			C72.2,20.4,71.8,22,71.8,24.5z"/>
		<path class="st3" d="M82.7,24.5c0-1.8,0.2-3.2,0.6-4.3c0.4-1.1,1-1.9,1.8-2.5c0.8-0.6,1.8-0.9,3-0.9c0.9,0,1.7,0.2,2.4,0.5
			c0.7,0.3,1.2,0.8,1.7,1.4c0.4,0.6,0.8,1.4,1,2.2c0.3,0.9,0.4,2.1,0.4,3.6c0,1.8-0.2,3.2-0.6,4.3c-0.4,1.1-1,1.9-1.8,2.5
			c-0.8,0.6-1.8,0.9-3,0.9c-1.6,0-2.9-0.5-3.8-1.6C83.3,29.4,82.7,27.3,82.7,24.5z M84.9,24.5c0,2.5,0.3,4.1,1,4.9
			c0.6,0.8,1.4,1.2,2.4,1.2c0.9,0,1.7-0.4,2.4-1.2s1-2.5,1-4.9c0-2.5-0.3-4.1-1-4.9s-1.4-1.2-2.4-1.2c-0.9,0-1.7,0.4-2.3,1.1
			C85.2,20.4,84.9,22,84.9,24.5z"/>
	</g>
</g>
<g>
	<rect x="108.2" y="409.8" class="st1" width="724.9" height="0.7"/>
</g>
<g>
	<rect x="107.8" y="21.1" class="st1" width="0.8" height="389"/>
</g>
<g>
	<g>
		<g>
			<rect x="100.9" y="409.8" class="st1" width="7.2" height="0.7"/>
		</g>
		<g>
			<rect x="100.9" y="312.6" class="st1" width="7.2" height="0.7"/>
		</g>
		<g>
			<rect x="100.9" y="215.3" class="st1" width="7.2" height="0.7"/>
		</g>
		<g>
			<rect x="100.9" y="118" class="st1" width="7.2" height="0.7"/>
		</g>
		<g>
			<rect x="100.9" y="20.8" class="st1" width="7.2" height="0.7"/>
		</g>
	</g>
</g>
<g>
	<g>
		<g>
			<path class="st0" d="M144.4,245.4c-0.3,0-0.6-0.2-0.8-0.4c-0.2-0.4,0-0.8,0.4-0.9l72.5-28.2c0.4-0.2,0.9,0,1.1,0.4
				c0.2,0.4,0,0.8-0.4,0.9l-72.5,28.2C144.7,245.3,144.5,245.4,144.4,245.4z"/>
		</g>
		<g>
			<path class="st0" d="M216.9,217.1c-0.4,0-0.7-0.2-0.8-0.5c-0.1-0.4,0.1-0.8,0.5-0.9l72.5-19.5c0.4-0.1,0.9,0.1,1,0.5
				c0.1,0.4-0.1,0.8-0.5,0.9l-72.5,19.5C217.1,217.1,217,217.1,216.9,217.1z"/>
		</g>
		<g>
			<path class="st0" d="M289.4,197.7c-0.2,0-0.3,0-0.4-0.1c-0.4-0.2-0.5-0.6-0.3-1l72.5-97.8c0.2-0.3,0.8-0.4,1.1-0.2
				c0.4,0.2,0.5,0.6,0.3,1l-72.5,97.8C289.9,197.6,289.7,197.7,289.4,197.7z"/>
		</g>
		<g>
			<path class="st0" d="M434.4,109.8c0,0-0.1,0-0.1,0l-72.5-9.9c-0.4-0.1-0.8-0.4-0.7-0.8c0.1-0.4,0.5-0.7,0.9-0.6l72.5,9.9
				c0.4,0.1,0.8,0.4,0.7,0.8C435.1,109.5,434.8,109.8,434.4,109.8z"/>
		</g>
		<g>
			<path class="st0" d="M434.4,109.8c-0.3,0-0.6-0.1-0.7-0.4c-0.2-0.4,0-0.8,0.4-1l72.5-30.5c0.4-0.2,0.9,0,1.1,0.3
				c0.2,0.4,0,0.8-0.4,1l-72.5,30.5C434.6,109.7,434.5,109.8,434.4,109.8z"/>
		</g>
		<g>
			<path class="st0" d="M579.3,101c-0.1,0-0.2,0-0.3,0l-72.5-21.8c-0.4-0.1-0.7-0.5-0.5-0.9c0.2-0.4,0.6-0.6,1.1-0.4l72.5,21.8
				c0.4,0.1,0.7,0.5,0.5,0.9C580,100.8,579.7,101,579.3,101z"/>
		</g>
		<g>
			<path class="st0" d="M651.8,200.2c-0.3,0-0.5-0.1-0.7-0.3l-72.5-99.2c-0.2-0.3-0.1-0.8,0.3-1c0.4-0.2,0.9-0.1,1.1,0.2l72.5,99.2
				c0.2,0.3,0.1,0.8-0.3,1C652.1,200.2,652,200.2,651.8,200.2z"/>
		</g>
		<g>
			<path class="st0" d="M651.8,200.2c-0.4,0-0.8-0.3-0.8-0.6c-0.1-0.4,0.3-0.7,0.7-0.8l72.5-7.2c0.5,0,0.9,0.2,0.9,0.6
				c0.1,0.4-0.3,0.7-0.7,0.8L651.8,200.2C651.9,200.2,651.9,200.2,651.8,200.2z"/>
		</g>
		<g>
			<path class="st0" d="M724.3,193c-0.4,0-0.8-0.3-0.8-0.6c-0.1-0.4,0.3-0.7,0.7-0.8l72.5-7.8c0.5,0,0.9,0.2,0.9,0.6
				c0.1,0.4-0.3,0.7-0.7,0.8l-72.5,7.8C724.4,193,724.3,193,724.3,193z"/>
		</g>
	</g>
</g>
<ellipse class="st0" cx="143.6" cy="245.5" rx="3.5" ry="3"/>
<ellipse class="st0" cx="579.3" cy="100.3" rx="3.5" ry="3"/>
<ellipse class="st0" cx="506.9" cy="78.5" rx="3.5" ry="3"/>
<ellipse class="st0" cx="434.4" cy="109.1" rx="3.5" ry="3"/>
<ellipse class="st0" cx="651.8" cy="199.4" rx="3.5" ry="3"/>
<ellipse class="st0" cx="796.5" cy="184.5" rx="3.5" ry="3"/>
<ellipse class="st0" cx="724.3" cy="192.3" rx="3.5" ry="3"/>
<ellipse class="st0" cx="361.9" cy="99.1" rx="3.5" ry="3"/>
<ellipse class="st0" cx="289.4" cy="197" rx="3.5" ry="3"/>
<ellipse class="st0" cx="217" cy="216.3" rx="3.5" ry="3"/>
</svg>
