<?xml version="1.0" encoding="utf-8"?>
<!-- Generator: Adobe Illustrator 19.1.0, SVG Export Plug-In . SVG Version: 6.00 Build 0)  -->
<svg version="1.1" id="圖層_1" xmlns="http://www.w3.org/2000/svg" xmlns:xlink="http://www.w3.org/1999/xlink" x="0px" y="0px"
	 viewBox="0 0 282 128" style="enable-background:new 0 0 282 128;" xml:space="preserve">
<style type="text/css">
	.st0{fill:#EA9431;}
	.st1{fill:#FFFFFF;}
	.st2{fill:url(#SVGID_1_);}
	.st3{opacity:0.62;fill:#323085;}
	.st4{fill:#231815;}
	.st5{fill:#323085;}
</style>
<rect x="4.4" y="34.9" class="st0" width="190.4" height="49"/>
<path class="st0" d="M215.6,36.2c-9.3,0-16.8,7.5-16.8,16.8c0,0.1,0,0.2,0,0.2h14c0-1.8,1.5-3.2,3.2-3.2c1.8,0,3.2,1.4,3.2,3.2
	c0,1.8-1.4,3.2-3.2,3.2c0,0-0.1,0-0.1,0v10.6c0.1,0,0.1,0,0.2,0c1.9,0,3.6,0.7,4.9,1.8c3.4-1.2,6.4-3.4,8.4-6.4c1.9-2.7,3-6,3-9.6
	C232.5,43.7,224.9,36.2,215.6,36.2z"/>
<g>
	<g>
		<path class="st1" d="M53.7,40.2h-2.1v-1.5h11.8v1.5H61v26.5h-1.7v-5.8l-7,2.6l-0.7-1.4l2.2-0.8V40.2z M59.3,45.3v-5.2h-3.9v5.2
			H59.3z M59.3,52.4v-5.6h-3.9v5.6H59.3z M59.3,59.2v-5.2h-3.9v6.9l0.6-0.2L59.3,59.2z M63.3,51.3l-0.4-1.5l1.9-0.2l2.6-3.1
			c-1.5-1.7-3.1-3.1-4.7-4.2l1-1.2c0.2,0,0.6,0.3,1.3,1c1-1.6,1.9-3.5,2.8-5.5l1.5,0.7c-0.6,1.5-1.7,3.4-3.1,5.8l2.2,2.2
			c1.1-1.6,1.8-3.2,2.4-4.7l1.6,0.4c-0.8,2.7-2.6,5.5-5.4,8.5l4.3-0.5l-1-1.8l1.6-0.6c0.8,1.2,1.4,2.7,2.1,4.6l-1.6,0.5l-0.5-1.3
			L63.3,51.3z M65.3,61.5c-0.3-0.1-0.5-0.2-0.7-0.5c-0.3-0.4-0.4-1-0.4-1.9v-5.5h1.6v5.9v0.2l0.2,0.2l4.1-0.5v-6.5h1.7v7.9
			c0,0.5-0.1,1.1-0.3,1.6c-0.7,1.7-2.9,3.2-6.3,4.3l-0.8-1.4c1.8-0.4,3.3-1.1,4.3-1.8c1-0.8,1.4-1.7,1.4-2.6
			C67.4,61.3,65.7,61.5,65.3,61.5z M74.5,50.5L74,49l1.8-0.2l2.2-2.5c-1.5-1.5-3.1-2.9-4.7-3.9l0.9-1.3c0.1,0,0.6,0.3,1.4,0.9
			c1.1-1.5,2.1-3.3,3.1-5.2l1.5,0.8c-0.7,1.4-1.8,3.2-3.4,5.4l2.3,1.9c1.2-1.7,2.2-3.4,2.7-5.1l1.6,0.4c-0.8,2.4-2.6,5.2-5.3,8.1
			l4.3-0.7l-0.5-1.3l1.6-0.5c0.6,1.3,1.1,2.8,1.5,4.6l-1.6,0.4l-0.5-1.8L74.5,50.5z M81.7,60.1c0.3,0,0.4-0.1,0.4-0.3v-6.6h1.7v8
			c0,0.3-0.1,0.4-0.5,0.4h-5.8v4.9h-1.7V52.9h1.7v7.3H81.7z"/>
		<path class="st1" d="M91.5,65h-1.6V38.9c0-0.3,0.1-0.5,0.5-0.5h6.9c0.4,0,0.5,0.2,0.5,0.5v22.9c0,0.4-0.2,0.6-0.6,0.6h-5.7V65z
			 M91.8,39.9c-0.2,0-0.3,0.1-0.3,0.3V50h4.6v-9.9c0-0.2-0.1-0.2-0.3-0.2H91.8z M96.1,51.5h-4.6v9.3h4.3c0.2,0,0.3-0.1,0.3-0.3V51.5
			z M98.4,66.3L97.5,65c2-0.7,3.8-1.4,5.3-2.3c3.9-2.2,6.1-5.2,6.5-9h-8.5c-0.1,0-0.2-0.1-0.2-0.2v-8.8c0-0.1,0.1-0.2,0.2-0.2h8.8
			c2-1.7,3.5-3.3,4.4-4.8h-8.5c-1.7,1.5-3.6,2.9-5.5,4L99,42.3c2.9-1.5,5.2-3.2,6.8-5.1l1.4,0.6l-0.3,0.3h8.4l1,0.8
			c-0.8,1.8-2.2,3.7-4.2,5.5h7.9c0.2,0,0.3,0.1,0.3,0.2v8.8c0,0.2-0.1,0.2-0.3,0.2H111c-0.1,0.9-0.3,1.8-0.6,2.6h1.4v7.1
			c0,0.2,0.1,0.5,0.3,0.6l0.7,0.2h5.9l0.5-0.2c0.2-0.1,0.3-1.8,0.3-4.9l1.7,0.1c0,3.4-0.2,5.3-0.6,5.8c-0.4,0.4-0.9,0.6-1.2,0.6
			h-7.6c-0.4,0-0.8-0.2-1.2-0.5c-0.3-0.3-0.5-0.7-0.5-1v-7.1C108.4,61,104.5,64,98.4,66.3z M109.4,46h-7l-0.1,0.1v6l0.1,0.1h7V46z
			 M111.1,52.2h7.5l0.1-0.1v-6l-0.1-0.1h-7.5V52.2z"/>
		<path class="st1" d="M140.1,38v7.6c0,0.3-0.2,0.5-0.5,0.5h-11.1v20.3h-1.7V38c0-0.3,0.1-0.4,0.5-0.4h12.3
			C139.9,37.6,140.1,37.7,140.1,38z M138.4,41.2v-1.9c0-0.2-0.1-0.3-0.4-0.3h-9.1c-0.3,0-0.4,0.1-0.4,0.3v1.9H138.4z M128.5,42.5
			v2.1h9.5c0.3,0,0.4-0.1,0.4-0.4v-1.7H128.5z M131.2,56.5l-0.3-1.5l1.2-0.1l2.2-1.6c-0.9-1.1-1.9-2-2.9-2.8l1.1-1.2l0.8,0.6
			c1.1-1.1,2.2-2.2,3.4-3.6l1.2,1.1c-0.8,0.9-2,2.1-3.6,3.5l1.3,1.4c0.9-0.9,1.6-1.8,2.3-2.6l1.5,0.8c-0.8,1.3-2.3,2.7-4.2,4.2
			l4-0.4l-0.4-1.3l1.6-0.4c0.5,1.1,0.9,2.5,1.2,4.2l-1.7,0.3l-0.3-1.3L131.2,56.5z M133.8,61.8c-0.5,0-0.8-0.3-0.8-0.7v-3.9h1.7V60
			c0,0.2,0.1,0.3,0.3,0.3h4v-3h1.7v3c0,0.6-0.1,1.1-0.3,1.7c-0.5,1.8-2.4,3.3-5.4,4.4l-0.9-1.3c2.3-0.7,3.8-1.8,4.6-3.2H133.8z
			 M142.5,56.8l-0.4-1.5l1.5-0.2l1.5-1.2c-1-1.3-1.9-2.4-3-3.3l1.1-1.1l0.7,0.6c1-1,2.1-2.2,3.1-3.4l1.2,1c-0.7,0.9-1.9,2.1-3.4,3.5
			l1.4,1.6c0.9-1,1.6-2,2.2-2.9l1.5,0.6c-0.8,1.4-2,2.9-3.7,4.3l4.3-0.5l-0.7-1.5l1.6-0.6c0.7,1.1,1.2,2.5,1.7,4.3l-1.6,0.5
			l-0.4-1.2L142.5,56.8z M144,46.1c-0.4,0-0.5-0.1-0.5-0.5V38c0-0.3,0.2-0.4,0.5-0.4h11.9c0.4,0,0.6,0.2,0.6,0.5v26.7
			c0,0.3-0.1,0.6-0.3,0.9c-0.2,0.2-0.4,0.4-0.7,0.6c-1.1,0.3-2.6,0.2-4.6-0.5l0.3-1.6c1.6,0.6,2.8,0.8,3.3,0.7l0.3-0.2l0.1-0.4v-18
			H144z M149.8,60.3c0.3,0,0.4-0.1,0.4-0.3v-2.8h1.7v4.2c0,0.3-0.1,0.4-0.5,0.4h-5.7v4.5H144v-8.9h1.7v2.9H149.8z M154.7,41.3v-1.9
			c0-0.3-0.2-0.4-0.5-0.4h-8.7c-0.3,0-0.4,0.1-0.4,0.3v2H154.7z M145.1,42.7v1.6c0,0.3,0.1,0.5,0.5,0.5h9.2v-2.1H145.1z"/>
		<path class="st1" d="M164,43.8c-0.4,4.2-0.8,7.3-1.2,9.2l-1.6-0.3c0.5-2.8,1-5.9,1.2-9.2L164,43.8z M167.4,36.4v30.2h-1.7V36.4
			H167.4z M171.4,51l-1.7,0.1l-0.5-7.4l1.7-0.2L171.4,51z M177.5,59.8c-2.3,1.1-4.5,1.7-6.6,2l-0.6-1.5c3.5-0.4,6.6-1.6,9.5-3.5
			l1,1.3l-1.5,0.9v5.7l4.2-0.7l0.3,1.5c-1.9,0.4-5.1,0.9-9.5,1.2l-0.3-1.5l3.6-0.3V59.8z M182.6,36.4h1.7v2.1h10.8V40H172v-1.5h10.7
			V36.4z M180.6,50.5V52h-7.9v-1.5H180.6z M180.6,54.1v1.5h-7.9v-1.5H180.6z M193.1,48.4H174c-0.1,0-0.2-0.1-0.2-0.2v-5.7
			c0-0.1,0.1-0.2,0.2-0.2h19.1c0.2,0,0.3,0.1,0.3,0.2v5.7C193.3,48.3,193.3,48.4,193.1,48.4z M179.8,43.8h-4.3l-0.1,0.1v3l0.1,0.1
			h4.3V43.8z M185.6,43.8h-4.2v3.1h4.2V43.8z M184.3,49.9v5.7h-1.7v-5.7H184.3z M191.5,57.2l1,1.2c-1.2,0.9-2.9,1.8-4.8,2.7
			c1.5,1.6,4,2.8,7.1,3.8l-1,1.4l-2.3-0.9c-3.6-1.4-6.4-4-8.3-7.8l1.5-0.6c0.6,1.1,1.2,2.1,1.9,2.9C188.8,59,190.4,58.1,191.5,57.2z
			 M194,50.5V52h-7.5v-1.5H194z M194,54.1v1.5h-7.5v-1.5H194z M187.3,46.9h4.2l0.1-0.1v-3l-0.1-0.1h-4.2V46.9z"/>
	</g>
</g>
<g>
	
		<linearGradient id="SVGID_1_" gradientUnits="userSpaceOnUse" x1="92.0906" y1="-65.75" x2="128.1164" y2="-65.75" gradientTransform="matrix(0.8027 -0.5964 0.5964 0.8027 203.5714 172.79)">
		<stop  offset="0" style="stop-color:#EA9431"/>
		<stop  offset="0.2697" style="stop-color:#E89333"/>
		<stop  offset="0.4135" style="stop-color:#E28F3A"/>
		<stop  offset="0.5275" style="stop-color:#D88844"/>
		<stop  offset="0.626" style="stop-color:#CA7E50"/>
		<stop  offset="0.7144" style="stop-color:#B7715C"/>
		<stop  offset="0.7956" style="stop-color:#9F6168"/>
		<stop  offset="0.8714" style="stop-color:#805074"/>
		<stop  offset="0.9408" style="stop-color:#5C3F7E"/>
		<stop  offset="1" style="stop-color:#332F86"/>
	</linearGradient>
	<path class="st2" d="M238.3,65.1c-5.9-8-4.3-19.3,3.7-25.2l0,0c8-5.9,19.3-4.3,25.2,3.7l0,0c5.9,8,4.3,19.3-3.7,25.2l0,0
		C255.5,74.7,244.2,73.1,238.3,65.1L238.3,65.1z M246.7,58.9c2.5,3.3,7.2,4,10.6,1.6l0,0c3.3-2.5,4-7.2,1.6-10.6l0,0
		c-2.5-3.3-7.2-4-10.6-1.6l0,0C244.9,50.8,244.2,55.5,246.7,58.9L246.7,58.9z"/>
</g>
<path class="st3" d="M229.5,62.6c-3.3-3.6-8-5.9-13.3-5.9c-0.1,0-0.1,0-0.2,0v10.5c0.1,0,0.1,0,0.2,0c1.9,0,3.6,0.7,4.9,1.8
	C224.5,67.8,227.4,65.5,229.5,62.6z"/>
<g>
	<g>
		<path class="st4" d="M269.8,42.1c0,0.5,0.1,0.8,0.4,1c0.2,0.2,0.5,0.3,0.9,0.3c0.5,0,0.8-0.3,0.9-1h0.5c-0.1,0.6-0.3,0.9-0.5,1.1
			c-0.3,0.2-0.6,0.3-0.9,0.3c-0.5,0-1-0.1-1.3-0.4c-0.3-0.3-0.5-0.8-0.5-1.4v-3.4h-1.1v-0.5h1.1v-1.5h0.5v1.5h2.1v0.5h-2.1V42.1z"/>
		<path class="st4" d="M274.5,39.1c-0.3,0.3-0.5,0.7-0.5,1.2v3.5h-0.5v-7.4h0.5v2.5c0.1-0.2,0.2-0.3,0.4-0.4
			c0.4-0.3,0.9-0.4,1.4-0.4c0.5,0,0.9,0.1,1.2,0.4c0.3,0.3,0.4,0.8,0.4,1.7v3.6h-0.5v-3.6c0-0.7-0.1-1.1-0.3-1.3
			c-0.2-0.2-0.5-0.3-0.7-0.3C275.2,38.6,274.8,38.7,274.5,39.1z"/>
	</g>
</g>
<path class="st5" d="M229.5,62.6c-2,2.9-5,5.2-8.4,6.4c1.6,1.4,2.6,3.4,2.6,5.7c0,4.2-3.4,7.5-7.6,7.6c-4.2,0-7.5-3.4-7.6-7.6h-10.5
	c0,10,8.1,18,18,18c9.9,0,18-8.1,18-18C234.1,70,232.4,65.8,229.5,62.6z"/>
</svg>
